<?xml version="1.0" encoding="UTF-8"?>
<svg version="1.1" xmlns="http://www.w3.org/2000/svg" width="512" height="512">
<path d="M0 0 C1.64994626 -0.01169993 1.64994626 -0.01169993 3.33322477 -0.02363622 C6.99662597 -0.0434828 10.65897991 -0.02781923 14.3223877 -0.01205444 C16.95788071 -0.01883382 19.59330306 -0.02755869 22.22877502 -0.03860474 C28.63039989 -0.06077595 35.03173076 -0.05606349 41.43336689 -0.04154153 C46.63853998 -0.03022505 51.84363099 -0.02872877 57.04881287 -0.03416061 C58.16230793 -0.03530986 58.16230793 -0.03530986 59.29829785 -0.03648233 C60.80657822 -0.03808104 62.31485857 -0.03970211 63.82313889 -0.04134528 C77.94864304 -0.05558485 92.07398463 -0.03923829 106.19946212 -0.01234345 C118.3057856 0.00999375 130.41186932 0.00611311 142.51818848 -0.01693726 C156.59497219 -0.04372703 170.67161363 -0.05421172 184.74841928 -0.03887594 C186.25098576 -0.03728328 187.75355226 -0.03571143 189.25611877 -0.03416061 C189.99530744 -0.03338924 190.7344961 -0.03261786 191.49608442 -0.03182311 C196.69179605 -0.02751562 201.88741704 -0.03477206 207.08311462 -0.04655838 C213.4196106 -0.06061734 219.7557971 -0.05671264 226.09225786 -0.03015466 C229.32204321 -0.01706145 232.55121019 -0.01450159 235.78100777 -0.02840042 C239.28949278 -0.04210448 242.79653788 -0.02487836 246.30493164 0 C247.82100486 -0.01673041 247.82100486 -0.01673041 249.36770582 -0.03379881 C256.9250187 0.06984044 263.46493968 1.99634785 269.27195787 7.04210603 C274.32058744 12.66456073 276.0403622 18.50829965 275.94543457 25.88101196 C275.94118973 26.53698868 275.93694489 27.19296539 275.93257141 27.86882019 C275.91595361 29.93712732 275.8783382 32.00441222 275.83996582 34.07241821 C275.82489693 35.48581547 275.81121241 36.8992282 275.7989502 38.31265259 C275.76867348 41.75410584 275.70993111 45.19338583 275.65246582 48.63491821 C284.89246582 48.63491821 294.13246582 48.63491821 303.65246582 48.63491821 C303.65246582 45.66491821 303.65246582 42.69491821 303.65246582 39.63491821 C304.62355285 31.01013208 308.27065369 25.54451012 314.77355957 19.93179321 C321.14330069 15.53521515 328.20271521 15.97609673 335.65246582 16.63491821 C342.31205915 18.31577404 346.83794029 23.09870143 350.65246582 28.63491821 C352.86358663 32.85350398 352.89342187 36.7868768 352.77746582 41.44741821 C352.76844238 42.14028931 352.75941895 42.8331604 352.75012207 43.54702759 C352.72672739 45.24314217 352.69086223 46.93907692 352.65246582 48.63491821 C353.36789551 48.61397095 354.0833252 48.59302368 354.82043457 48.57144165 C358.09763234 48.48770988 361.37460423 48.4360777 364.65246582 48.38491821 C365.77781738 48.35140259 366.90316895 48.31788696 368.06262207 48.28335571 C375.71128676 48.19389765 381.40318081 48.92928704 387.28210449 54.05606079 C395.78089596 63.01035872 398.51519794 76.15575635 401.84777832 87.68569946 C402.32582103 89.31495777 402.80474986 90.94395631 403.28451538 92.57270813 C404.53617848 96.8278834 405.7791838 101.08552882 407.01928711 105.34408569 C409.00900711 112.17611977 411.00643764 119.00585126 413.01452255 125.83250999 C413.71017063 128.20519768 414.39862249 130.57989121 415.08657837 132.95481873 C415.51465106 134.4150871 415.94301107 135.87527129 416.3717041 137.33535767 C416.5587793 137.98845917 416.74585449 138.64156067 416.93859863 139.31445312 C418.58897509 144.89096861 420.51813793 149.91163211 424.7310791 154.02236938 C425.32824738 154.61285568 425.92541565 155.20334198 426.54067993 155.8117218 C427.1782724 156.4275563 427.81586487 157.04339081 428.47277832 157.67788696 C429.13204315 158.3281636 429.79130798 158.97844025 430.47055054 159.64842224 C432.56578797 161.71376494 434.67068902 163.76885257 436.77746582 165.82241821 C438.89044912 167.88758668 441.00110459 169.95493799 443.10580444 172.02854919 C444.4128647 173.31583524 445.72483512 174.59815857 447.04214478 175.87495422 C447.63300873 176.45598404 448.22387268 177.03701385 448.8326416 177.63565063 C449.35431915 178.14383835 449.8759967 178.65202606 450.41348267 179.1756134 C452.64460054 181.80347887 452.77931966 184.42789146 452.79290771 187.72045898 C452.79861786 188.55035843 452.804328 189.38025787 452.81021118 190.23530579 C452.81132904 191.14238785 452.8124469 192.04946991 452.81359863 192.98403931 C452.81856354 193.94204941 452.82352844 194.90005951 452.8286438 195.88710022 C452.84326613 199.06085932 452.85006725 202.23456845 452.85559082 205.40835571 C452.86134182 207.61169435 452.86709956 209.81503298 452.87286377 212.01837158 C452.88337369 216.64023065 452.88921655 221.26207231 452.8927002 225.88394165 C452.89818757 231.80796376 452.92222096 237.73175633 452.95067215 243.65570641 C452.96928907 248.20758742 452.97450361 252.75941301 452.97603607 257.31132889 C452.97906482 259.49542115 452.98710077 261.6795124 453.00022125 263.86356735 C453.01726312 266.91822574 453.01540601 269.97232151 453.00891113 273.02700806 C453.01812592 273.93004166 453.0273407 274.83307526 453.03683472 275.76347351 C452.99661494 281.79763976 452.03337344 285.25401059 447.65246582 289.63491821 C445.62765503 289.87542725 445.62765503 289.87542725 443.11096191 289.86196899 C442.17013763 289.86181793 441.22931335 289.86166687 440.25997925 289.86151123 C439.24223419 289.85118866 438.22448914 289.84086609 437.17590332 289.83023071 C436.1355191 289.82740082 435.09513489 289.82457092 434.02322388 289.82165527 C430.69118888 289.81043525 427.35941996 289.78532736 424.02746582 289.75991821 C421.77226136 289.74989077 419.5170527 289.74076451 417.26184082 289.73257446 C411.72529128 289.71049 406.18889755 289.6769946 400.65246582 289.63491821 C400.4743335 290.42213257 400.29620117 291.20934692 400.1126709 292.02041626 C396.15973427 308.75600955 388.22277369 320.42447128 373.65246582 329.63491821 C359.87007262 336.96086145 345.30372756 338.78893299 329.93371582 335.94741821 C327.03178647 335.03101947 324.38771821 333.96558154 321.65246582 332.63491821 C320.6908252 332.17601196 319.72918457 331.71710571 318.73840332 331.24429321 C305.07102585 324.24482766 295.73429877 313.25011219 290.65246582 298.63491821 C289.99246582 295.66491821 289.33246582 292.69491821 288.65246582 289.63491821 C235.85246582 289.63491821 183.05246582 289.63491821 128.65246582 289.63491821 C127.66246582 293.59491821 126.67246582 297.55491821 125.65246582 301.63491821 C119.01136064 317.15227051 108.79285245 326.85554616 93.35559082 333.62710571 C80.86488196 338.2840463 64.75974349 339.01815576 52.25402832 333.90054321 C50.96625488 333.27405884 50.96625488 333.27405884 49.65246582 332.63491821 C48.6908252 332.17601196 47.72918457 331.71710571 46.73840332 331.24429321 C33.07102585 324.24482766 23.73429877 313.25011219 18.65246582 298.63491821 C18.2819942 297.07828765 17.92874214 295.51749457 17.58947754 293.95376587 C17.41294647 293.14460724 17.23641541 292.33544861 17.05453491 291.50177002 C16.92185211 290.88570892 16.78916931 290.26964783 16.65246582 289.63491821 C14.82872437 289.67419434 14.82872437 289.67419434 12.96813965 289.71426392 C8.44895901 289.80489581 3.92985838 289.86221469 -0.58996582 289.90957642 C-2.54453041 289.93469102 -4.49900135 289.96878953 -6.45324707 290.01211548 C-9.26590086 290.07290256 -12.0773112 290.10115804 -14.89050293 290.12319946 C-15.76152145 290.14900589 -16.63253998 290.17481232 -17.529953 290.20140076 C-18.35042618 290.20177841 -19.17089935 290.20215607 -20.01623535 290.20254517 C-20.73349289 290.21364822 -21.45075043 290.22475128 -22.18974304 290.2361908 C-25.75780696 289.24194303 -27.0960405 287.56208374 -29.34753418 284.63491821 C-30.09159488 281.10321292 -30.01354178 277.62521453 -29.96899414 274.02705383 C-29.97538296 272.94628486 -29.98177178 271.86551589 -29.98835421 270.75199634 C-30.00363749 267.12364715 -29.98311917 263.49638401 -29.96276855 259.86807251 C-29.96626878 257.26950722 -29.97192624 254.67094406 -29.97958374 252.0723877 C-29.99411291 245.74224782 -29.98187293 239.41242861 -29.9604705 233.0823191 C-29.93645427 225.70818073 -29.93817536 218.33411576 -29.94077641 210.95994697 C-29.94446719 197.7988845 -29.92363827 184.63797299 -29.88952637 171.47695923 C-29.8564549 158.71259748 -29.84226461 145.94839422 -29.84851074 133.18399048 C-29.8552801 119.28197079 -29.85279749 105.38001751 -29.83315134 91.47800761 C-29.83211185 90.74227516 -29.83107237 90.00654271 -29.83000138 89.24851534 C-29.82791051 87.77090745 -29.82579953 86.29329959 -29.82366821 84.81569177 C-29.816781 79.67873954 -29.81610195 74.54180779 -29.81755066 69.40485191 C-29.81914369 62.48471906 -29.80420266 55.56477896 -29.77832413 48.64469528 C-29.77116388 46.10505783 -29.76907801 43.56540024 -29.77244186 41.02575493 C-29.7761585 37.55820928 -29.76140148 34.09121554 -29.74194336 30.62373352 C-29.74727129 29.61934555 -29.75259921 28.61495758 -29.75808859 27.58013362 C-29.6833116 19.85241933 -28.40428254 12.95016262 -22.96702623 7.00670564 C-16.07010658 1.16468397 -8.76224222 -0.09669449 0 0 Z " fill="#DBE8ED" transform="translate(47.3475341796875,103.36508178710938)"/>
<path d="M0 0 C2.2109375 1.625 2.2109375 1.625 4.85350609 4.18519783 C8.36754518 7.10529648 11.69020983 7.3388123 16.14077759 7.28683472 C16.9214794 7.29745693 17.70218121 7.30807915 18.50654066 7.31902325 C21.11364794 7.34825272 23.71941533 7.34190725 26.32666016 7.33544922 C28.19969191 7.34877815 30.07270994 7.36417072 31.94570923 7.38146973 C37.02874212 7.42134252 42.11133637 7.42897157 47.19450808 7.42835379 C51.4436318 7.43013562 55.69265933 7.44606352 59.94175184 7.46147549 C69.97310847 7.49699365 80.00423652 7.50476284 90.03564453 7.49658203 C100.36631103 7.48874906 110.69586308 7.53265057 121.02627909 7.60138309 C129.90810268 7.65833986 138.78956644 7.6803121 147.67157018 7.67514813 C152.97072942 7.67257672 158.26896998 7.68360105 163.5679512 7.72939682 C168.55735001 7.77120611 173.54489399 7.76917716 178.53432846 7.73443604 C180.35795354 7.72895975 182.18170172 7.73862256 184.00514221 7.76514053 C194.77916889 7.91122393 201.422191 7.30415495 209.6885891 -0.15809441 C219.54407764 -8.82013635 233.36296877 -10.37221296 245.95751953 -9.61767578 C256.61017345 -8.4704669 269.32926213 -4.08719275 276.39648438 4.18237305 C281.58725431 8.48412529 289.06397657 7.35182584 295.453125 7.33203125 C296.94672657 7.34515626 298.44031041 7.36046296 299.93386841 7.37785339 C303.84986782 7.41762344 307.76540207 7.42788856 311.68157959 7.43188477 C315.68369587 7.44123147 319.68554057 7.4786545 323.6875 7.51367188 C331.52865095 7.57816605 339.36953372 7.61147292 347.2109375 7.625 C348.25013725 15.11234045 348.43140596 22.50157473 348.45117188 30.05297852 C348.46095947 32.31758253 348.492093 34.58130802 348.5234375 36.84570312 C348.5299618 38.29686968 348.53521452 39.74804263 348.5390625 41.19921875 C348.5484082 42.50463623 348.55775391 43.81005371 348.56738281 45.1550293 C348.08703161 49.83121537 346.48540085 52.35053665 343.2109375 55.625 C341.18612671 55.86550903 341.18612671 55.86550903 338.66943359 55.85205078 C337.72860931 55.85189972 336.78778503 55.85174866 335.81845093 55.85159302 C334.80070587 55.84127045 333.78296082 55.83094788 332.734375 55.8203125 C331.69399078 55.8174826 330.65360657 55.81465271 329.58169556 55.81173706 C326.24966056 55.80051704 322.91789164 55.77540915 319.5859375 55.75 C317.33073304 55.73997256 315.07552438 55.7308463 312.8203125 55.72265625 C307.28376296 55.70057178 301.74736923 55.66707639 296.2109375 55.625 C296.03280518 56.41221436 295.85467285 57.19942871 295.67114258 58.01049805 C291.71820595 74.74609134 283.78124537 86.41455306 269.2109375 95.625 C255.4285443 102.95094323 240.86219924 104.77901478 225.4921875 101.9375 C222.59025815 101.02110126 219.94618989 99.95566333 217.2109375 98.625 C216.24929688 98.16609375 215.28765625 97.7071875 214.296875 97.234375 C200.62949753 90.23490945 191.29277045 79.24019398 186.2109375 64.625 C185.5509375 61.655 184.8909375 58.685 184.2109375 55.625 C131.4109375 55.625 78.6109375 55.625 24.2109375 55.625 C23.2209375 59.585 22.2309375 63.545 21.2109375 67.625 C14.56983232 83.1423523 4.35132413 92.84562795 -11.0859375 99.6171875 C-23.57664636 104.27412809 -39.68178483 105.00823755 -52.1875 99.890625 C-53.04601562 99.47296875 -53.90453125 99.0553125 -54.7890625 98.625 C-55.75070313 98.16609375 -56.71234375 97.7071875 -57.703125 97.234375 C-71.37050247 90.23490945 -80.70722955 79.24019398 -85.7890625 64.625 C-86.15953412 63.06836944 -86.51278618 61.50757636 -86.85205078 59.94384766 C-87.02858185 59.13468903 -87.20511292 58.3255304 -87.38699341 57.49185181 C-87.51967621 56.87579071 -87.65235901 56.25972961 -87.7890625 55.625 C-89.61280396 55.66427612 -89.61280396 55.66427612 -91.47338867 55.7043457 C-95.99256931 55.7949776 -100.51166994 55.85229648 -105.03149414 55.8996582 C-106.98605873 55.92477281 -108.94052967 55.95887131 -110.89477539 56.00219727 C-113.70742918 56.06298434 -116.51883952 56.09123983 -119.33203125 56.11328125 C-120.20304977 56.13908768 -121.0740683 56.1648941 -121.97148132 56.19148254 C-126.11297388 56.19338883 -128.2707179 55.94884133 -131.84960938 53.71289062 C-134.59930698 49.33497329 -134.42034914 45.79961203 -134.27734375 40.73046875 C-134.27026901 39.78311356 -134.26319427 38.83575836 -134.25590515 37.85969543 C-134.22798584 34.84314979 -134.16525165 31.8284816 -134.1015625 28.8125 C-134.07647646 26.76369874 -134.05366383 24.7148683 -134.03320312 22.66601562 C-133.97816709 17.65162379 -133.89191106 12.63862986 -133.7890625 7.625 C-132.66392242 7.63618614 -132.66392242 7.63618614 -131.51605225 7.64759827 C-124.39671824 7.71029477 -117.27887806 7.72902908 -110.15942001 7.70015812 C-106.50022156 7.68682224 -102.842613 7.68962842 -99.18359375 7.73120117 C-95.64253381 7.77080851 -92.10395926 7.76556424 -88.56287384 7.73107719 C-86.57564466 7.72287182 -84.58838935 7.7594031 -82.60150146 7.7971344 C-73.84568552 7.66060691 -69.08401053 5.57855346 -62.45758057 -0.15797424 C-44.78712426 -14.83872805 -18.21202153 -11.57153715 0 0 Z " fill="#33658A" transform="translate(151.7890625,337.375)"/>
<path d="M0 0 C1.03833984 0.75023437 1.03833984 0.75023437 2.09765625 1.515625 C2.71769531 1.95390625 3.33773437 2.3921875 3.9765625 2.84375 C14.57172293 11.09233128 21.73690075 24.42112695 24.09765625 37.515625 C25.75151218 54.87015953 22.35331482 70.26400083 11.41015625 84.203125 C2.0556298 94.36155606 -12.04618851 102.2479044 -25.9765625 102.8515625 C-36.20445729 103.01654317 -45.51751204 103.08121881 -54.90234375 98.515625 C-55.86398438 98.05671875 -56.825625 97.5978125 -57.81640625 97.125 C-71.48378372 90.12553445 -80.8205108 79.13081898 -85.90234375 64.515625 C-86.27281537 62.95899444 -86.62606743 61.39820136 -86.96533203 59.83447266 C-87.1418631 59.02531403 -87.31839417 58.2161554 -87.50027466 57.38247681 C-87.63295746 56.76641571 -87.76564026 56.15035461 -87.90234375 55.515625 C-89.72608521 55.55490112 -89.72608521 55.55490112 -91.58666992 55.5949707 C-96.10585056 55.6856026 -100.62495119 55.74292148 -105.14477539 55.7902832 C-107.09933998 55.81539781 -109.05381092 55.84949631 -111.00805664 55.89282227 C-113.82071043 55.95360934 -116.63212077 55.98186483 -119.4453125 56.00390625 C-120.31633102 56.02971268 -121.18734955 56.0555191 -122.08476257 56.08210754 C-126.22625513 56.08401383 -128.38399915 55.83946633 -131.96289062 53.60351562 C-134.71258823 49.22559829 -134.53363039 45.69023703 -134.390625 40.62109375 C-134.38355026 39.67373856 -134.37647552 38.72638336 -134.3691864 37.75032043 C-134.34126709 34.73377479 -134.2785329 31.7191066 -134.21484375 28.703125 C-134.18975771 26.65432374 -134.16694508 24.6054933 -134.14648438 22.55664062 C-134.09144834 17.54224879 -134.00519231 12.52925486 -133.90234375 7.515625 C-132.77720367 7.52681114 -132.77720367 7.52681114 -131.6293335 7.53822327 C-124.50999949 7.60091977 -117.39215931 7.61965408 -110.27270126 7.59078312 C-106.61350281 7.57744724 -102.95589425 7.58025342 -99.296875 7.62182617 C-95.75581506 7.66143351 -92.21724051 7.65618924 -88.67615509 7.62170219 C-86.68892591 7.61349682 -84.7016706 7.6500281 -82.71478271 7.6877594 C-73.95896677 7.55123191 -69.19729178 5.46917846 -62.57086182 -0.26734924 C-45.0400142 -14.83211506 -17.99602678 -11.89720635 0 0 Z " fill="#33658A" transform="translate(151.90234375,337.484375)"/>
<path d="M0 0 C1.20348083 -0.00006042 1.20348083 -0.00006042 2.43127441 -0.00012207 C4.12239443 0.00522359 5.8135146 0.02276578 7.50439453 0.05175781 C10.08573724 0.09362006 12.66446867 0.09282315 15.24609375 0.0859375 C16.89324721 0.09643096 18.54038728 0.10936992 20.1875 0.125 C21.3392572 0.12530212 21.3392572 0.12530212 22.51428223 0.12561035 C27.02599744 0.22473308 30.01087988 0.78722566 33.59375 3.59375 C34.97683781 6.35992563 34.70585196 8.60393 34.69140625 11.6953125 C34.68657227 13.51289063 34.68657227 13.51289063 34.68164062 15.3671875 C34.66907227 17.27371094 34.66907227 17.27371094 34.65625 19.21875 C34.65173828 20.4975 34.64722656 21.77625 34.64257812 23.09375 C34.63076203 26.26046292 34.61428815 29.42708356 34.59375 32.59375 C35.73589966 32.57018433 35.73589966 32.57018433 36.90112305 32.54614258 C40.3610894 32.48366547 43.8209369 32.44471828 47.28125 32.40625 C48.47943359 32.38111328 49.67761719 32.35597656 50.91210938 32.33007812 C52.06904297 32.32041016 53.22597656 32.31074219 54.41796875 32.30078125 C55.48104248 32.2850708 56.54411621 32.26936035 57.6394043 32.25317383 C61.01852331 32.64271775 62.87365964 33.58579546 65.59375 35.59375 C67.18381531 38.77388063 66.77792077 42.21345657 66.796875 45.70703125 C66.80257507 46.51359665 66.80827515 47.32016205 66.81414795 48.15116882 C66.82360195 49.86012458 66.83013352 51.5690986 66.83398438 53.27807617 C66.8436732 55.88558041 66.874685 58.49229078 66.90625 61.09960938 C66.91278185 62.76041199 66.91803161 64.42122024 66.921875 66.08203125 C66.9342218 66.85928055 66.9465686 67.63652985 66.95928955 68.43733215 C66.94069428 72.98490483 66.51725081 76.03271364 63.59375 79.59375 C60.35623322 80.67292226 58.01623229 80.70800601 54.61328125 80.69140625 C53.44990234 80.68818359 52.28652344 80.68496094 51.08789062 80.68164062 C49.87294922 80.67326172 48.65800781 80.66488281 47.40625 80.65625 C46.17970703 80.65173828 44.95316406 80.64722656 43.68945312 80.64257812 C40.65750332 80.63078065 37.62565094 80.61431921 34.59375 80.59375 C34.60946045 81.35518311 34.6251709 82.11661621 34.64135742 82.90112305 C34.70383453 86.3610894 34.74278172 89.8209369 34.78125 93.28125 C34.80638672 94.47943359 34.83152344 95.67761719 34.85742188 96.91210938 C34.86708984 98.06904297 34.87675781 99.22597656 34.88671875 100.41796875 C34.9024292 101.48104248 34.91813965 102.54411621 34.93432617 103.6394043 C34.54232676 107.03982354 33.66811927 108.8889084 31.59375 111.59375 C27.8240619 112.8503127 24.27657257 112.77550362 20.34765625 112.796875 C19.54013412 112.80257507 18.732612 112.80827515 17.90061951 112.81414795 C16.19344388 112.82358834 14.48625011 112.83012812 12.77905273 112.83398438 C10.16943625 112.8437009 7.56060393 112.8747369 4.95117188 112.90625 C3.29167134 112.91277933 1.63216518 112.91803007 -0.02734375 112.921875 C-1.19625404 112.9403952 -1.19625404 112.9403952 -2.38877869 112.95928955 C-5.62902164 112.94598287 -7.99008795 112.81914875 -10.86743164 111.26074219 C-13.82490861 108.05692611 -13.52410809 104.7546593 -13.50390625 100.61328125 C-13.50068359 99.44990234 -13.49746094 98.28652344 -13.49414062 97.08789062 C-13.48576172 95.87294922 -13.47738281 94.65800781 -13.46875 93.40625 C-13.46423828 92.17970703 -13.45972656 90.95316406 -13.45507812 89.68945312 C-13.44328065 86.65750332 -13.42681921 83.62565094 -13.40625 80.59375 C-14.19797607 80.61993408 -14.98970215 80.64611816 -15.80541992 80.6730957 C-19.40132717 80.77719122 -22.99691731 80.842119 -26.59375 80.90625 C-27.83962891 80.94814453 -29.08550781 80.99003906 -30.36914062 81.03320312 C-31.57119141 81.04931641 -32.77324219 81.06542969 -34.01171875 81.08203125 C-35.66917114 81.12130737 -35.66917114 81.12130737 -37.36010742 81.16137695 C-41.56334574 80.37813346 -42.93680364 79.06245939 -45.40625 75.59375 C-46.10478722 72.70674472 -46.10824952 69.9288191 -46.0703125 66.96875 C-46.07509613 66.1442334 -46.07987976 65.3197168 -46.08480835 64.47021484 C-46.08820122 62.73207687 -46.07904153 60.99387456 -46.05810547 59.25585938 C-46.03132729 56.60141175 -46.05786996 53.95119175 -46.08984375 51.296875 C-46.08653954 49.60415737 -46.08013306 47.91144237 -46.0703125 46.21875 C-46.08043365 45.42903809 -46.09055481 44.63932617 -46.10098267 43.82568359 C-46.01485143 39.75830792 -45.69093551 37.99363368 -43.2644043 34.58520508 C-39.85203502 32.20759371 -38.13471789 32.00776735 -34.01171875 32.10546875 C-32.80966797 32.12158203 -31.60761719 32.13769531 -30.36914062 32.15429688 C-29.12326172 32.19619141 -27.87738281 32.23808594 -26.59375 32.28125 C-25.32853516 32.30380859 -24.06332031 32.32636719 -22.75976562 32.34960938 C-19.64072381 32.40845922 -16.52409098 32.4906363 -13.40625 32.59375 C-13.43243408 31.80202393 -13.45861816 31.01029785 -13.4855957 30.19458008 C-13.58969122 26.59867283 -13.654619 23.00308269 -13.71875 19.40625 C-13.76064453 18.16037109 -13.80253906 16.91449219 -13.84570312 15.63085938 C-13.86181641 14.42880859 -13.87792969 13.22675781 -13.89453125 11.98828125 C-13.92071533 10.88331299 -13.94689941 9.77834473 -13.97387695 8.63989258 C-12.52432782 0.86095732 -6.97057184 -0.14883913 0 0 Z " fill="#FE6B6B" transform="translate(157.40625,175.40625)"/>
<path d="M0 0 C62.7 0 125.4 0 190 0 C187 5 187 5 185.5 7.4296875 C177.21169143 20.9413572 175.93070804 31.24725523 175 48 C122.2 48 69.4 48 15 48 C14.67 42.06 14.34 36.12 14 30 C11.25700272 18.93004668 7.35075665 10.61088636 0 2 C0 1.34 0 0.68 0 0 Z " fill="#FE6A6B" transform="translate(161,345)"/>
<path d="M0 0 C1.28483276 -0.01253311 2.56966553 -0.02506622 3.89343262 -0.03797913 C5.28768937 -0.02571042 6.68193641 -0.01229034 8.07617188 0.00219727 C9.51436543 0.00136802 10.95255889 -0.00109346 12.39074707 -0.00511169 C15.40027503 -0.00796579 18.40905714 0.00669168 21.41845703 0.03417969 C25.26888876 0.06826331 29.11798741 0.06224142 32.96848297 0.04351711 C35.9369002 0.03292948 38.90500923 0.04190063 41.87339783 0.05690193 C43.2927102 0.06207137 44.71205493 0.06161698 46.13136292 0.05535698 C48.1175657 0.04988459 50.10378428 0.07317688 52.08984375 0.09765625 C53.21837769 0.10385483 54.34691162 0.11005341 55.50964355 0.11643982 C59.27283036 0.75452813 60.89007488 1.91851422 63.54492188 4.63110352 C64.68873596 6.87814331 64.68873596 6.87814331 65.42602539 9.36108398 C65.71304825 10.29661102 66.00007111 11.23213806 66.29579163 12.1960144 C66.58554367 13.20326569 66.87529572 14.21051697 67.17382812 15.24829102 C67.49020737 16.297034 67.80658661 17.34577698 68.1325531 18.42630005 C69.14049031 21.78160998 70.12413201 25.14349795 71.10742188 28.50610352 C71.77186767 30.73053137 72.43786768 32.9544956 73.10546875 35.17797852 C74.67352421 40.41604491 76.21860365 45.66042617 77.74984741 50.90936279 C78.4547049 53.32226803 79.16614091 55.73309535 79.88012695 58.14331055 C80.24130615 59.37678223 80.60248535 60.61025391 80.97460938 61.88110352 C81.27222168 62.89430664 81.56983398 63.90750977 81.87646484 64.95141602 C82.92271536 69.14558902 83.16900648 72.33185398 82.54492188 76.63110352 C79.69275458 79.75007153 77.998706 80.57066778 73.78160095 81.13230896 C72.2978218 81.15292213 70.81363664 81.15165818 69.32983398 81.1328125 C68.5162291 81.13821548 67.70262421 81.14361847 66.86436462 81.14918518 C64.18329144 81.16166131 61.50329435 81.1451908 58.82226562 81.12719727 C56.95569299 81.12735227 55.08912003 81.1288414 53.22254944 81.13160706 C49.31448098 81.1329905 45.40677977 81.12044102 41.4987793 81.09765625 C36.48936704 81.0692521 31.48056401 81.07201501 26.47110653 81.08474636 C22.61836034 81.09170035 18.76575501 81.08391778 14.91302681 81.07148933 C13.0658478 81.0669735 11.21865369 81.06663919 9.37147331 81.07055473 C6.79087169 81.07346472 4.21111064 81.05697128 1.63061523 81.03515625 C0.48577667 81.04190872 0.48577667 81.04190872 -0.68218994 81.04879761 C-3.84093489 81.0044239 -6.10219968 80.82434632 -8.89793396 79.29335022 C-11.9973222 75.98476261 -11.60196082 72.34147598 -11.64794922 68.03588867 C-11.65612671 67.37048569 -11.6643042 66.7050827 -11.67272949 66.01951599 C-11.69752166 63.81974172 -11.71408189 61.62003163 -11.72851562 59.42016602 C-11.7338393 58.66791119 -11.73916298 57.91565636 -11.74464798 57.14060593 C-11.77135042 53.16023529 -11.7907361 49.17989573 -11.80517578 45.19946289 C-11.81852493 41.90718869 -11.84639822 38.61553285 -11.88720703 35.32348633 C-11.93651777 31.3453121 -11.96129421 27.36769944 -11.96840286 23.38923264 C-11.97511473 21.8749516 -11.99033541 20.36068307 -12.01429367 18.84657669 C-12.04594753 16.72542325 -12.0459838 14.60643542 -12.03857422 12.48510742 C-12.04666107 11.27948151 -12.05474792 10.07385559 -12.06307983 8.83169556 C-10.76357462 1.99094827 -6.52882133 0.00556401 0 0 Z " fill="#33B9EE" transform="translate(347.455078125,183.368896484375)"/>
<path d="M0 0 C21.78 0 43.56 0 66 0 C66.94372124 7.54976993 67.22039511 14.84855274 67.24023438 22.42797852 C67.25002197 24.69258253 67.2811555 26.95630802 67.3125 29.22070312 C67.3190243 30.67186968 67.32427702 32.12304263 67.328125 33.57421875 C67.3374707 34.87963623 67.34681641 36.18505371 67.35644531 37.5300293 C66.87609411 42.20621537 65.27446335 44.72553665 62 48 C59.93722534 48.24050903 59.93722534 48.24050903 57.36669922 48.22705078 C56.40585419 48.22689972 55.44500916 48.22674866 54.45504761 48.22659302 C53.41542877 48.21627045 52.37580994 48.20594788 51.3046875 48.1953125 C50.24210724 48.1924826 49.17952698 48.18965271 48.08474731 48.18673706 C44.68138501 48.17551639 41.27828314 48.15040837 37.875 48.125 C35.57161838 48.11497264 33.26823264 48.10584637 30.96484375 48.09765625 C25.30980655 48.07557093 19.65492187 48.04207489 14 48 C14.01957764 46.78256104 14.03915527 45.56512207 14.05932617 44.31079102 C14.07516439 42.68766716 14.09051958 41.06453854 14.10546875 39.44140625 C14.11960815 38.64206665 14.13374756 37.84272705 14.14831543 37.01916504 C14.2420725 23.41049921 8.69812231 12.189229 0 2 C0 1.34 0 0.68 0 0 Z " fill="#FE6A6B" transform="translate(433,345)"/>
<path d="M0 0 C20.13 0 40.26 0 61 0 C58 5 58 5 56.5 7.4296875 C49.91884423 18.15834248 47.0994637 27.37577145 46.4453125 39.8203125 C46.37969116 41.00185913 46.37969116 41.00185913 46.31274414 42.20727539 C46.205886 44.13804091 46.10258506 46.06900273 46 48 C40.25260242 48.12377604 34.50598373 48.21442248 28.75756836 48.2746582 C26.80300377 48.29977281 24.84853283 48.33387131 22.89428711 48.37719727 C20.08163332 48.43798434 17.27022298 48.46623983 14.45703125 48.48828125 C13.58601273 48.51408768 12.7149942 48.5398941 11.81758118 48.56648254 C7.67608862 48.56838883 5.5183446 48.32384133 1.93945312 46.08789062 C-0.80988797 41.7105409 -0.63191476 38.17516626 -0.48828125 33.10546875 C-0.48324585 32.26520142 -0.47821045 31.42493408 -0.47302246 30.5592041 C-0.44695768 27.43495324 -0.37715018 24.31119063 -0.3125 21.1875 C-0.209375 14.195625 -0.10625 7.20375 0 0 Z " fill="#FE6B6B" transform="translate(18,345)"/>
<path d="M0 0 C6.53030938 3.6603008 11.41078925 8.83004706 13.75 16 C14.91799552 24.00384299 13.36092605 30.37977872 8.75 37 C4.28317587 42.02915591 -1.06763217 45.49209626 -7.85546875 46.31640625 C-14.1893084 46.5872325 -19.14723295 45.89722534 -24.25 42 C-30.88078805 35.7932055 -34.19779404 30.77223346 -34.625 21.625 C-34.45212074 14.90090668 -32.79515033 10.67335753 -28.15625 5.80078125 C-19.79637213 -1.95997204 -10.90570496 -4.94502958 0 0 Z " fill="#D9E7EC" transform="translate(130.25,362)"/>
<path d="M0 0 C6.53030938 3.6603008 11.41078925 8.83004706 13.75 16 C14.918871 24.00984234 13.35486687 30.37178253 8.75 37 C4.03886569 42.42009142 -1.59897976 45.3991505 -8.69921875 46.31640625 C-14.72576417 46.60250565 -19.36686208 45.61676398 -24.25 42 C-30.51434827 36.2010752 -34.30461784 30.24913911 -34.6875 21.5625 C-34.45056662 14.89191397 -32.75895296 10.63533679 -28.15625 5.80078125 C-19.79637213 -1.95997204 -10.90570496 -4.94502958 0 0 Z " fill="#D9E7EC" transform="translate(402.25,362)"/>
<path d="M0 0 C6.13052573 3.70468329 9.9448497 8.95587425 12.5625 15.5 C12.5625 20.45 12.5625 25.4 12.5625 30.5 C-3.6075 30.5 -19.7775 30.5 -36.4375 30.5 C-36.4375 13.7972973 -36.4375 13.7972973 -30.4375 6.5 C-22.28554167 -1.59373005 -11.0997647 -4.91871926 0 0 Z " fill="#FF6B6B" transform="translate(387.4375,121.5)"/>
<path d="M0 0 C4.36847389 2.85388262 6.77311068 6.38801973 9.25 10.875 C9.600625 11.47441406 9.95125 12.07382813 10.3125 12.69140625 C12.42549729 16.43791298 13.70415799 19.69796417 14 24 C12.39588152 27.52906067 11.25840638 28.82772908 8 31 C4.625 31.5 4.625 31.5 1 31 C-1.24372926 28.98064366 -2.41921963 27.50600181 -4 25 C-4.60328125 24.06800781 -5.2065625 23.13601562 -5.828125 22.17578125 C-12.34410732 11.62041964 -12.34410732 11.62041964 -12 6 C-8.68791982 0.74635558 -6.16206486 -0.60412401 0 0 Z " fill="#FF6A6A" transform="translate(339,82)"/>
<path d="M0 0 C2.83201396 2.23510235 2.99919847 2.99599237 3.75 6.75 C3.55683654 14.55380393 -2.51830848 22.91990204 -7.43041992 28.67626953 C-9 30 -9 30 -12.375 30.4375 C-16.61034787 29.92633733 -18.16896442 29.16409859 -21 26 C-21.9748762 22.55926047 -22.25218213 20.65794887 -20.9609375 17.2890625 C-20.43757813 16.40992187 -19.91421875 15.53078125 -19.375 14.625 C-18.818125 13.68011719 -18.26125 12.73523438 -17.6875 11.76171875 C-17.130625 10.85035156 -16.57375 9.93898438 -16 9 C-15.54625 8.20207031 -15.0925 7.40414062 -14.625 6.58203125 C-10.75670241 -0.05451681 -7.92001869 -1.87200442 0 0 Z " fill="#FF6A6A" transform="translate(421,83)"/>
<path d="M0 0 C1.68383789 1.20336914 1.68383789 1.20336914 3 3 C3.64647643 7.11518379 3.46316586 11.27729766 3.4375 15.4375 C3.4674707 17.15549805 3.4674707 17.15549805 3.49804688 18.90820312 C3.49740234 20.00970703 3.49675781 21.11121094 3.49609375 22.24609375 C3.49887329 23.75707642 3.49887329 23.75707642 3.50170898 25.29858398 C2.87107172 28.6942051 1.66394685 29.87368776 -1 32 C-4.71971137 32.92266278 -8.05233851 32.48598025 -11.4375 30.75 C-14.99062462 26.77050043 -14.18345687 21.09619876 -14.1875 16.0625 C-14.19974609 15.26392578 -14.21199219 14.46535156 -14.22460938 13.64257812 C-14.23530005 9.34136222 -14.12061134 5.86569775 -12 2 C-7.96409011 -1.45935133 -5.03812703 -1.30618108 0 0 Z " fill="#FF6A6A" transform="translate(381,72)"/>
<path d="M0 0 C1.47726562 -0.02900391 1.47726562 -0.02900391 2.984375 -0.05859375 C7.77512201 -0.02622384 10.22682286 0.04751534 14.1484375 2.9765625 C16 5.625 16 5.625 16.625 8.625 C15.74952595 12.82727546 14.44619808 14.05104064 11 16.625 C7.31963136 17.36573147 3.74267136 17.32348177 0 17.25 C-1.47726562 17.27900391 -1.47726562 17.27900391 -2.984375 17.30859375 C-7.77512201 17.27622384 -10.22682286 17.20248466 -14.1484375 14.2734375 C-16 11.625 -16 11.625 -16.625 8.625 C-14.75456808 -0.3530732 -7.60103253 -0.14923493 0 0 Z " fill="#C8D4D9" transform="translate(352,279.375)"/>
</svg>
