<?xml version="1.0" encoding="UTF-8"?>
<svg version="1.1" xmlns="http://www.w3.org/2000/svg" width="512" height="512">
<path d="M0 0 C0.639375 -0.00773438 1.27875 -0.01546875 1.9375 -0.0234375 C6.24420104 0.80853884 8.5129336 2.66134606 10.96484375 6.25390625 C11.63575665 7.47452169 12.29225163 8.70312537 12.9375 9.9375 C13.31028076 10.62440918 13.68306152 11.31131836 14.06713867 12.01904297 C14.91297008 13.58226784 15.75248543 15.14892058 16.58691406 16.71826172 C18.13701118 19.63259427 19.70411277 22.53738399 21.2734375 25.44140625 C23.55033862 29.65755245 25.81912459 33.87789202 28.08203125 38.1015625 C30.28708839 42.21216922 32.51049068 46.31152537 34.75561523 50.40039062 C41.512921 62.71279394 48.0704766 75.10661737 54.4375 87.625 C54.90967957 88.55134247 55.38185913 89.47768494 55.86834717 90.43209839 C64.37064726 107.11515946 72.7967315 123.83682759 81.19029617 140.57481384 C82.10527618 142.39819419 83.02165107 144.22086662 83.93844604 146.04333496 C92.63226402 163.34034956 100.95724427 180.76709843 109 198.375 C109.39491638 199.23817841 109.78983276 200.10135681 110.19671631 200.99069214 C112.44845615 205.91997549 114.67406151 210.86033325 116.875 215.8125 C117.20017609 216.54360992 117.52535217 217.27471985 117.86038208 218.02798462 C174.51973804 345.72112361 174.51973804 345.72112361 149.55883789 412.19458008 C140.16414586 436.09709363 124.13358894 459.33307591 104 475.375 C103.46697266 475.80393555 102.93394531 476.23287109 102.38476562 476.67480469 C82.50974173 492.54259404 60.58390278 502.96245186 36 509.375 C35.31615234 509.55724121 34.63230469 509.73948242 33.92773438 509.92724609 C12.74141829 515.27705707 -14.91079597 514.9741687 -36 509.375 C-37.18770996 509.06900879 -37.18770996 509.06900879 -38.39941406 508.75683594 C-70.81385629 500.21494035 -101.73832668 482.7560784 -123 456.375 C-123.76957031 455.43140625 -124.53914063 454.4878125 -125.33203125 453.515625 C-150.19958231 422.47106126 -164.56369242 381.46988415 -160.4375 341.5 C-154.08623866 300.48662609 -136.55213631 261.08786553 -120 223.375 C-119.49774902 222.23015137 -118.99549805 221.08530273 -118.47802734 219.90576172 C-112.26168179 205.78745023 -105.83772064 191.76856975 -99.2578125 177.81640625 C-98.89683912 177.05090517 -98.53586575 176.28540409 -98.16395378 175.49670601 C-89.79175341 157.76938807 -81.06098182 140.2263061 -72.26379395 122.70697021 C-70.64349944 119.47733025 -69.02779951 116.24540109 -67.41205311 113.013484 C-59.43057888 97.05103215 -51.43218198 81.10557993 -43 65.375 C-42.34914613 64.15327953 -41.69866473 62.93136054 -41.04858398 61.70922852 C-39.26708508 58.36565492 -37.47892695 55.02576334 -35.6875 51.6875 C-35.37628204 51.10736145 -35.06506409 50.5272229 -34.74441528 49.92950439 C-32.81308344 46.32970814 -30.87972868 42.73100399 -28.94506836 39.13299561 C-28.01430028 37.40160106 -27.08429261 35.6697978 -26.15429688 33.93798828 C-24.41819727 30.70712392 -22.67850883 27.4782211 -20.9375 24.25 C-20.42598389 23.29778564 -19.91446777 22.34557129 -19.38745117 21.36450195 C-17.9423912 18.69127167 -16.47682242 16.0307983 -15 13.375 C-14.4961377 12.45364258 -13.99227539 11.53228516 -13.47314453 10.58300781 C-12.9676709 9.69194336 -12.46219727 8.80087891 -11.94140625 7.8828125 C-11.49611572 7.08762207 -11.0508252 6.29243164 -10.59204102 5.47314453 C-7.87339509 1.89025186 -4.51695602 -0.0546406 0 0 Z " fill="#D32F2F" transform="translate(256,-0.375)"/>
<path d="M0 0 C2.92483867 1.82547936 5.43429205 3.86858411 7 7 C7.17461552 9.02175319 7.3453338 11.04394745 7.49267578 13.06787109 C9.09424519 33.57518459 16.87366782 51.66201086 32 66 C45.92859427 77.85871029 61.53972788 84.09075111 79.7734375 84.59375 C84.17867355 85.14840442 87.52333168 86.72022079 90.875 89.625 C92.65007411 93.37237868 92.79535729 96.94367783 92 101 C89.81840855 103.75569447 88.12822506 105.43588747 85 107 C61.24088312 108.96649407 37.38141611 99.3299708 19.359375 84.10546875 C18.58078125 83.41066406 17.8021875 82.71585937 17 82 C15.77023438 80.91138672 15.77023438 80.91138672 14.515625 79.80078125 C-2.9063282 63.43388422 -13.50494209 39.54835523 -14.46118164 15.65087891 C-14.61422695 7.91005871 -14.61422695 7.91005871 -12.0859375 4.1640625 C-8.38005337 0.31938121 -5.36440686 -0.75101696 0 0 Z " fill="#E47272" transform="translate(174,341)"/>
</svg>
