<?xml version="1.0" encoding="UTF-8"?>
<svg version="1.1" xmlns="http://www.w3.org/2000/svg" width="128" height="128">
<path d="M0 0 C3.46941546 0.45822468 6.67395049 0.89131683 10 2 C10 3.98 10 5.96 10 8 C3.375 11 3.375 11 0 11 C0 10.34 0 9.68 0 9 C-1.98 9 -3.96 9 -6 9 C-6 10.65 -6 12.3 -6 14 C-4.60974609 13.98259766 -4.60974609 13.98259766 -3.19140625 13.96484375 C-1.99386719 13.95582031 -0.79632813 13.94679688 0.4375 13.9375 C1.63246094 13.92589844 2.82742187 13.91429687 4.05859375 13.90234375 C7 14 7 14 8 15 C8.09304018 16.47354348 8.11746265 17.95150591 8.11352539 19.42797852 C8.11344986 20.36887833 8.11337433 21.30977814 8.11329651 22.27919006 C8.10813522 23.30209641 8.10297394 24.32500275 8.09765625 25.37890625 C8.0962413 26.42070541 8.09482635 27.46250458 8.09336853 28.53587341 C8.0877508 31.87811094 8.0751953 35.22028257 8.0625 38.5625 C8.05748728 40.82226466 8.05292398 43.08203037 8.04882812 45.34179688 C8.03777561 50.89455391 8.02102024 56.44727225 8 62 C8.99 62 9.98 62 11 62 C10.99333817 61.44289841 10.98667633 60.88579681 10.97981262 60.31181335 C10.91351434 54.5208411 10.8682225 48.72997639 10.83520508 42.9387207 C10.82010556 40.77656679 10.79962429 38.61444357 10.77368164 36.45239258 C10.73734983 33.347091 10.72028538 30.24219386 10.70703125 27.13671875 C10.69154739 26.16788254 10.67606354 25.19904633 10.66011047 24.20085144 C10.65988388 23.3001442 10.65965729 22.39943695 10.65942383 21.47143555 C10.65276199 20.67867722 10.64610016 19.88591888 10.63923645 19.06913757 C11.09423716 16.45950845 11.90754585 15.58111387 14 14 C16.63549805 13.65942383 16.63549805 13.65942383 19.76171875 13.70703125 C20.87998047 13.71669922 21.99824219 13.72636719 23.15039062 13.73632812 C24.90125977 13.7740332 24.90125977 13.7740332 26.6875 13.8125 C27.86634766 13.82603516 29.04519531 13.83957031 30.25976562 13.85351562 C33.17363411 13.88890674 36.08658945 13.93828191 39 14 C38.979375 13.195625 38.95875 12.39125 38.9375 11.5625 C39 9 39 9 40 8 C42.33297433 7.95907063 44.66705225 7.95758277 47 8 C47 9.98 47 11.96 47 14 C48.051875 13.896875 49.10375 13.79375 50.1875 13.6875 C55.07032445 14.08773151 55.74109632 15.44396098 59 19 C59.50249268 19.46929932 60.00498535 19.93859863 60.52270508 20.42211914 C69.52026613 29.06060638 71.65826645 38.17018927 71.9516449 50.25788879 C71.97946054 53.15223824 71.96820994 56.04320189 71.9375 58.9375 C71.92549057 60.37795181 71.92549057 60.37795181 71.91323853 61.84750366 C71.87554974 64.61743749 71.80538486 67.38366695 71.71484375 70.15234375 C71.68083969 71.42165741 71.68083969 71.42165741 71.64614868 72.71661377 C71.36406802 78.53003231 71.36406802 78.53003231 69.66285706 80.72608948 C67.02115758 82.74988867 64.56372628 82.28407108 61.3125 82.1875 C59.54326172 82.14689453 59.54326172 82.14689453 57.73828125 82.10546875 C56.83464844 82.07066406 55.93101563 82.03585938 55 82 C54.87496094 82.76699219 54.74992187 83.53398438 54.62109375 84.32421875 C53.70493013 88.27121298 52.28870135 89.6509276 49 92 C45.52957092 92.71232124 42.46978594 92.71788675 39 92 C35.09702646 89.13250924 34.18067986 87.72271943 33 83 C23.43 82.67 13.86 82.34 4 82 C3.67 83.98 3.34 85.96 3 88 C0.82274395 90.58549156 -0.80002056 91.78696017 -4.15625 92.3828125 C-8.10977436 92.58048872 -10.47864327 92.28240156 -14 90.375 C-16.37473207 87.55500567 -16.75210718 85.63576129 -17 82 C-19.31 82 -21.62 82 -24 82 C-24 82.66 -24 83.32 -24 84 C-24.99 84 -25.98 84 -27 84 C-27 83.34 -27 82.68 -27 82 C-29.64 82 -32.28 82 -35 82 C-35 82.66 -35 83.32 -35 84 C-35.99 84 -36.98 84 -38 84 C-38 83.34 -38 82.68 -38 82 C-38.928125 82.061875 -39.85625 82.12375 -40.8125 82.1875 C-44 82 -44 82 -45.67793274 80.87675476 C-47.59423958 78.15644083 -47.3600679 76.09152086 -47.34057617 72.78442383 C-47.34034958 71.5033223 -47.34012299 70.22222076 -47.33988953 68.90229797 C-47.32456957 67.50387219 -47.30892158 66.10544996 -47.29296875 64.70703125 C-47.28737268 63.27642766 -47.28310263 61.84581831 -47.28010559 60.41520691 C-47.26865756 56.65198868 -47.23919115 52.88911844 -47.20599365 49.1260376 C-47.17529163 45.28524483 -47.1616 41.44439577 -47.14648438 37.60351562 C-47.11432106 30.06885186 -47.06312566 22.53447471 -47 15 C-46.01 14.67 -45.02 14.34 -44 14 C-43.9071875 12.39125 -43.9071875 12.39125 -43.8125 10.75 C-42.83052355 6.21780098 -41.81911426 5.46120697 -38 3 C-35.29296875 2.390625 -35.29296875 2.390625 -32.1875 2.25 C-30.98222656 2.19457031 -29.77695312 2.13914062 -28.53515625 2.08203125 C-19.02592379 1.86365639 -9.51064645 1.92381168 0 2 C0 1.34 0 0.68 0 0 Z M-39 11 C-38.67 11.99 -38.34 12.98 -38 14 C-30.08 14 -22.16 14 -14 14 C-14 12.35 -14 10.7 -14 9 C-19.47061198 8.32222506 -24.92542032 7.88427722 -30.4375 7.75 C-31.42621094 7.72421875 -32.41492188 7.6984375 -33.43359375 7.671875 C-36.36968205 8.04726529 -37.21652629 8.70264404 -39 11 Z " fill="#454043" transform="translate(52,19)"/>
<path d="M0 0 C3.46941546 0.45822468 6.67395049 0.89131683 10 2 C10 3.98 10 5.96 10 8 C3.375 11 3.375 11 0 11 C0 10.34 0 9.68 0 9 C-1.98 9 -3.96 9 -6 9 C-6 10.65 -6 12.3 -6 14 C-4.60974609 13.98259766 -4.60974609 13.98259766 -3.19140625 13.96484375 C-1.99386719 13.95582031 -0.79632813 13.94679688 0.4375 13.9375 C1.63246094 13.92589844 2.82742187 13.91429687 4.05859375 13.90234375 C7 14 7 14 8 15 C8.09311889 16.50418739 8.11746028 18.01271356 8.11352539 19.51977539 C8.11344986 20.48069595 8.11337433 21.44161652 8.11329651 22.43165588 C8.10813522 23.476436 8.10297394 24.52121613 8.09765625 25.59765625 C8.0962413 26.66165146 8.09482635 27.72564667 8.09336853 28.82188416 C8.08775064 32.23545083 8.07519511 35.648953 8.0625 39.0625 C8.05748731 41.37044176 8.052924 43.67838455 8.04882812 45.98632812 C8.03862433 51.65759721 8.01905243 57.32872601 8 63 C-2.89 63 -13.78 63 -25 63 C-25.495 53.1 -25.495 53.1 -26 43 C-29.3 43 -32.6 43 -36 43 C-36.33 49.6 -36.66 56.2 -37 63 C-40.3 63 -43.6 63 -47 63 C-47 47.16 -47 31.32 -47 15 C-46.01 14.67 -45.02 14.34 -44 14 C-43.9071875 12.39125 -43.9071875 12.39125 -43.8125 10.75 C-42.83052355 6.21780098 -41.81911426 5.46120697 -38 3 C-35.29296875 2.390625 -35.29296875 2.390625 -32.1875 2.25 C-30.98222656 2.19457031 -29.77695312 2.13914062 -28.53515625 2.08203125 C-19.02592379 1.86365639 -9.51064645 1.92381168 0 2 C0 1.34 0 0.68 0 0 Z M-39 11 C-38.67 11.99 -38.34 12.98 -38 14 C-30.08 14 -22.16 14 -14 14 C-14 12.35 -14 10.7 -14 9 C-19.47061198 8.32222506 -24.92542032 7.88427722 -30.4375 7.75 C-31.42621094 7.72421875 -32.41492188 7.6984375 -33.43359375 7.671875 C-36.36968205 8.04726529 -37.21652629 8.70264404 -39 11 Z " fill="#59474C" transform="translate(52,19)"/>
<path d="M0 0 C1.134375 0.020625 2.26875 0.04125 3.4375 0.0625 C3.4375 2.0425 3.4375 4.0225 3.4375 6.0625 C4.489375 5.959375 5.54125 5.85625 6.625 5.75 C11.52610164 6.15172964 12.19883221 7.44757522 15.4375 11.0625 C15.93999268 11.62219482 16.44248535 12.18188965 16.96020508 12.75854492 C28.49890746 26.1852376 28.58710728 36.62678962 27.4375 54.0625 C16.2175 54.0625 4.9975 54.0625 -6.5625 54.0625 C-6.8925 40.8625 -7.2225 27.6625 -7.5625 14.0625 C-12.8425 14.0625 -18.1225 14.0625 -23.5625 14.0625 C-23.8925 27.2625 -24.2225 40.4625 -24.5625 54.0625 C-27.2025 54.0625 -29.8425 54.0625 -32.5625 54.0625 C-32.63847749 47.70881803 -32.69106897 41.35525291 -32.72729492 35.0012207 C-32.74239444 32.83906679 -32.76287571 30.67694357 -32.78881836 28.51489258 C-32.82515017 25.409591 -32.84221462 22.30469386 -32.85546875 19.19921875 C-32.87095261 18.23038254 -32.88643646 17.26154633 -32.90238953 16.26335144 C-32.90261612 15.3626442 -32.90284271 14.46193695 -32.90307617 13.53393555 C-32.90973801 12.74117722 -32.91639984 11.94841888 -32.92326355 11.13163757 C-32.46826284 8.52200845 -31.65495415 7.64361387 -29.5625 6.0625 C-26.92700195 5.72192383 -26.92700195 5.72192383 -23.80078125 5.76953125 C-22.68251953 5.77919922 -21.56425781 5.78886719 -20.41210938 5.79882812 C-18.66124023 5.8365332 -18.66124023 5.8365332 -16.875 5.875 C-15.69615234 5.88853516 -14.51730469 5.90207031 -13.30273438 5.91601562 C-10.38886589 5.95140674 -7.47591055 6.00078191 -4.5625 6.0625 C-4.583125 5.258125 -4.60375 4.45375 -4.625 3.625 C-4.52750049 -0.37247981 -4.13731851 0.07258454 0 0 Z " fill="#CF0129" transform="translate(95.5625,26.9375)"/>
<path d="M0 0 C4.39663033 -0.02291238 8.79305488 -0.04283833 13.18969727 -0.05493164 C14.68644918 -0.05997121 16.18319616 -0.06680287 17.67993164 -0.07543945 C19.82699807 -0.08752159 21.97399962 -0.09323191 24.12109375 -0.09765625 C26.06133423 -0.10551147 26.06133423 -0.10551147 28.04077148 -0.11352539 C31 0 31 0 32 1 C32.08758003 2.99964982 32.10696576 5.0023611 32.09765625 7.00390625 C32.09515869 8.09775635 32.09266113 9.19160645 32.09008789 10.31860352 C32.08098389 11.71908936 32.07187988 13.1195752 32.0625 14.5625 C32.041875 18.996875 32.02125 23.43125 32 28 C21.44 28 10.88 28 0 28 C0 18.76 0 9.52 0 0 Z " fill="#D1032A" transform="translate(28,33)"/>
<path d="M0 0 C0.33 0 0.66 0 1 0 C1 2.64 1 5.28 1 8 C4.3 8 7.6 8 11 8 C11 5.69 11 3.38 11 1 C11.33 1 11.66 1 12 1 C12 9.91 12 18.82 12 28 C15.96 28 19.92 28 24 28 C24 28.33 24 28.66 24 29 C22.02 29 20.04 29 18 29 C18 29.99 18 30.98 18 32 C19.98 32 21.96 32 24 32 C23.48866068 36.47421905 21.76406839 38.54491451 19 42 C18.21053391 44.68507329 18.21053391 44.68507329 18 47 C16.35 47 14.7 47 13 47 C13 47.66 13 48.32 13 49 C12.01 49 11.02 49 10 49 C10 48.34 10 47.68 10 47 C7.36 47 4.72 47 2 47 C2 47.66 2 48.32 2 49 C1.01 49 0.02 49 -1 49 C-1 48.34 -1 47.68 -1 47 C-1.928125 47.061875 -2.85625 47.12375 -3.8125 47.1875 C-7 47 -7 47 -8.6875 46 C-10.76763714 42.83026721 -10.31199229 39.46746606 -10.1875 35.8125 C-10.17396484 35.06291016 -10.16042969 34.31332031 -10.14648438 33.54101562 C-10.11118539 31.69370233 -10.05737917 29.84675934 -10 28 C-6.7 28 -3.4 28 0 28 C0 18.76 0 9.52 0 0 Z " fill="#434244" transform="translate(15,54)"/>
<path d="M0 0 C0 0.66 0 1.32 0 2 C4.62 2 9.24 2 14 2 C14 2.33 14 2.66 14 3 C9.38 3 4.76 3 0 3 C0 8.28 0 13.56 0 19 C-3.63 19 -7.26 19 -11 19 C-11.0928125 20.36125 -11.0928125 20.36125 -11.1875 21.75 C-12 25 -12 25 -14 27.375 C-18.09233245 29.59168007 -21.440303 29.80951142 -26 29 C-29 27.375 -29 27.375 -31 25 C-31.8125 21.75 -31.8125 21.75 -32 19 C-32.66 19 -33.32 19 -34 19 C-34.3125 16.875 -34.3125 16.875 -34 14 C-32.37873325 11.96302383 -30.71140469 9.96185416 -29 8 C-28.14720662 5.78264561 -28.14720662 5.78264561 -28 4 C-29.98 4 -31.96 4 -34 4 C-34 3.01 -34 2.02 -34 1 C-28.53704355 -0.07259378 -23.10959713 -0.36066741 -17.5625 -0.625 C-16.18868164 -0.70234375 -16.18868164 -0.70234375 -14.78710938 -0.78125 C-9.68755432 -1.03018736 -5.02404216 -0.92602703 0 0 Z " fill="#808285" transform="translate(67,82)"/>
<path d="M0 0 C1.12535156 0.00580078 1.12535156 0.00580078 2.2734375 0.01171875 C3.02367188 0.00785156 3.77390625 0.00398438 4.546875 0 C10.14682697 0.01010822 10.14682697 0.01010822 11.2734375 1.13671875 C11.36215023 4.16649679 11.388631 7.17338897 11.37109375 10.203125 C11.3696788 11.11174789 11.36826385 12.02037079 11.36680603 12.95652771 C11.36118943 15.87079096 11.34863415 18.78497856 11.3359375 21.69921875 C11.33092464 23.66992077 11.32636136 25.64062399 11.32226562 27.61132812 C11.31206367 32.45317789 11.29249159 37.29486322 11.2734375 42.13671875 C5.3334375 42.13671875 -0.6065625 42.13671875 -6.7265625 42.13671875 C-6.74946889 36.31595064 -6.76939676 30.49533775 -6.78149414 24.67456055 C-6.78653517 22.69278434 -6.79336788 20.71101186 -6.80200195 18.72924805 C-6.81407765 15.88719766 -6.81979295 13.04519628 -6.82421875 10.203125 C-6.82938004 9.31146133 -6.83454132 8.41979767 -6.83985901 7.50111389 C-6.84005427 5.37931274 -6.7886628 3.25761095 -6.7265625 1.13671875 C-4.90540247 -0.68444128 -2.41984486 0.00436795 0 0 Z " fill="#919498" transform="translate(77.7265625,39.86328125)"/>
<path d="M0 0 C10.56 0 21.12 0 32 0 C32 1.98 32 3.96 32 6 C31.01 6 30.02 6 29 6 C29 9.96 29 13.92 29 18 C19.43 18 9.86 18 0 18 C0 12.06 0 6.12 0 0 Z " fill="#D10229" transform="translate(28,61)"/>
<path d="M0 0 C4.17960204 1.54964059 6.53831841 3.27024522 8.9375 7.0625 C10 10 10 10 10 13 C9.34 13 8.68 13 8 13 C7.9071875 14.0828125 7.9071875 14.0828125 7.8125 15.1875 C6.67243114 19.13389222 5.35124453 20.60625391 2 23 C-1.47075987 23.71238914 -4.52928627 23.71355134 -8 23 C-11.72389553 20.28465951 -13.92799276 17.50243042 -15 13 C-15 9.5911781 -14.98173779 7.11626163 -12.66015625 4.4765625 C-8.33558446 0.8181228 -5.63956605 -0.53203453 0 0 Z " fill="#5B5C5E" transform="translate(99,88)"/>
<path d="M0 0 C3.46941546 0.45822468 6.67395049 0.89131683 10 2 C10 3.98 10 5.96 10 8 C3.375 11 3.375 11 0 11 C0 10.34 0 9.68 0 9 C-1.98 9 -3.96 9 -6 9 C-6 10.98 -6 12.96 -6 15 C-8.33294775 15.04241723 -10.66702567 15.04092937 -13 15 C-14 14 -14 14 -14.0625 11.4375 C-14.041875 10.633125 -14.02125 9.82875 -14 9 C-17.60374463 8.85499356 -21.20674242 8.76603237 -24.8125 8.6875 C-25.83666016 8.64560547 -26.86082031 8.60371094 -27.91601562 8.56054688 C-30.69643335 8.51496626 -33.26158495 8.51011473 -36 9 C-38.11905402 11.34621781 -38.11905402 11.34621781 -39 14 C-41.6875 14.3125 -41.6875 14.3125 -44 14 C-43.63265306 7.63265306 -43.63265306 7.63265306 -40.8125 4.8125 C-37.63853194 2.76705391 -35.93005558 2.41947422 -32.1875 2.25 C-30.98222656 2.19457031 -29.77695312 2.13914062 -28.53515625 2.08203125 C-19.02592379 1.86365639 -9.51064645 1.92381168 0 2 C0 1.34 0 0.68 0 0 Z " fill="#FEC81D" transform="translate(52,19)"/>
<path d="M0 0 C10.23 0.33 20.46 0.66 31 1 C31 2.98 31 4.96 31 7 C29.3203125 8.57421875 29.3203125 8.57421875 27.125 9.6875 C23.98097681 11.327125 23.05473582 11.91789627 21 15 C20.67 16.65 20.34 18.3 20 20 C14.39 20 8.78 20 3 20 C3 13.73 3 7.46 3 1 C2.01 0.67 1.02 0.34 0 0 Z " fill="#58595B" transform="translate(64,81)"/>
<path d="M0 0 C0 15.51 0 31.02 0 47 C9.57 47 19.14 47 29 47 C29 43.04 29 39.08 29 35 C29.99 35 30.98 35 32 35 C32 39.95 32 44.9 32 50 C21.11 50 10.22 50 -1 50 C-1.33 40.1 -1.66 30.2 -2 20 C-5.3 20 -8.6 20 -12 20 C-12 13.73 -12 7.46 -12 1 C-3 0 -3 0 0 0 Z " fill="#7F2A3B" transform="translate(28,32)"/>
<path d="M0 0 C2.75569447 2.18159145 4.43588747 3.87177494 6 7 C6.12150428 11.49565838 5.80266747 14.9715823 3 18.5625 C-1.09270946 20.52358995 -4.54004525 20.82412207 -9 20 C-11.87029869 18.20606332 -13.49131638 17.01736724 -15 14 C-15.5811138 6.91041162 -15.5811138 6.91041162 -13.125 3.0625 C-9.24699241 -0.70144855 -5.21240222 -0.82822281 0 0 Z " fill="#5A5B5D" transform="translate(50,91)"/>
<path d="M0 0 C1.65322266 0.01740234 1.65322266 0.01740234 3.33984375 0.03515625 C4.44457031 0.04417969 5.54929687 0.05320312 6.6875 0.0625 C7.54214844 0.07410156 8.39679687 0.08570312 9.27734375 0.09765625 C9.27734375 0.42765625 9.27734375 0.75765625 9.27734375 1.09765625 C7.29734375 1.09765625 5.31734375 1.09765625 3.27734375 1.09765625 C3.27734375 2.08765625 3.27734375 3.07765625 3.27734375 4.09765625 C5.25734375 4.09765625 7.23734375 4.09765625 9.27734375 4.09765625 C8.76600443 8.5718753 7.04141214 10.64257076 4.27734375 14.09765625 C3.48787766 16.78272954 3.48787766 16.78272954 3.27734375 19.09765625 C1.62734375 19.09765625 -0.02265625 19.09765625 -1.72265625 19.09765625 C-1.72265625 19.75765625 -1.72265625 20.41765625 -1.72265625 21.09765625 C-2.71265625 21.09765625 -3.70265625 21.09765625 -4.72265625 21.09765625 C-4.72265625 20.43765625 -4.72265625 19.77765625 -4.72265625 19.09765625 C-7.36265625 19.09765625 -10.00265625 19.09765625 -12.72265625 19.09765625 C-12.71105469 18.45957031 -12.69945313 17.82148437 -12.6875 17.1640625 C-12.67847656 16.33777344 -12.66945313 15.51148437 -12.66015625 14.66015625 C-12.64275391 13.42458984 -12.64275391 13.42458984 -12.625 12.1640625 C-12.48998277 10.10601687 -12.48998277 10.10601687 -13.72265625 9.09765625 C-13.86380786 6.42706774 -13.76512732 3.77333387 -13.72265625 1.09765625 C-13.01238281 1.10925781 -12.30210938 1.12085937 -11.5703125 1.1328125 C-10.65121094 1.14183594 -9.73210938 1.15085937 -8.78515625 1.16015625 C-7.41037109 1.17755859 -7.41037109 1.17755859 -6.0078125 1.1953125 C-3.12764204 1.07222829 -3.03245421 0.10876808 0 0 Z " fill="#49494B" transform="translate(29.72265625,81.90234375)"/>
<path d="M0 0 C3.82664458 0.11871228 5.65095019 0.62243047 8.57739258 3.12597656 C11.47294486 7.15830122 13.66390017 11.3868206 15.87426758 15.81347656 C11.72844871 15.84234407 7.58265541 15.86022984 3.43676758 15.87597656 C1.66076172 15.88854492 1.66076172 15.88854492 -0.15112305 15.90136719 C-1.27583008 15.90458984 -2.40053711 15.9078125 -3.55932617 15.91113281 C-5.12251587 15.91898804 -5.12251587 15.91898804 -6.71728516 15.92700195 C-9.12573242 15.81347656 -9.12573242 15.81347656 -10.12573242 14.81347656 C-10.22466182 12.6486686 -10.25544343 10.48053871 -10.25073242 8.31347656 C-10.25331055 7.12753906 -10.25588867 5.94160156 -10.25854492 4.71972656 C-9.99044506 -1.14692918 -4.96216905 0.15266406 0 0 Z " fill="#478BF5" transform="translate(106.125732421875,39.1865234375)"/>
<path d="M0 0 C2.64590014 -0.02684679 5.29153096 -0.04676357 7.9375 -0.0625 C8.69224609 -0.07087891 9.44699219 -0.07925781 10.22460938 -0.08789062 C12.14994313 -0.09652441 14.07535581 -0.05224333 16 0 C17 1 17 1 17.09765625 4.16015625 C17.06510417 7.7734375 17.03255208 11.38671875 17 15 C11.39 15 5.78 15 0 15 C0 10.05 0 5.1 0 0 Z " fill="#4787F0" transform="translate(72,40)"/>
<path d="M0 0 C2.64 0 5.28 0 8 0 C8 8.91 8 17.82 8 27 C5.03 27 2.06 27 -1 27 C-1.02886537 22.68751391 -1.04675255 18.37505238 -1.0625 14.0625 C-1.07087891 12.83080078 -1.07925781 11.59910156 -1.08789062 10.33007812 C-1.09111328 9.16025391 -1.09433594 7.99042969 -1.09765625 6.78515625 C-1.10289307 5.70113525 -1.10812988 4.61711426 -1.11352539 3.50024414 C-1 1 -1 1 0 0 Z " fill="#D00128" transform="translate(6,33)"/>
<path d="M0 0 C2.97 0 5.94 0 9 0 C9 6.27 9 12.54 9 19 C3 19 3 19 1.13671875 18.01171875 C-0.68866126 14.78123523 -0.31015592 11.4135521 -0.1875 7.8125 C-0.17396484 7.06291016 -0.16042969 6.31332031 -0.14648438 5.54101562 C-0.11118539 3.69370233 -0.05737917 1.84675934 0 0 Z " fill="#58585A" transform="translate(5,82)"/>
<path d="M0 0 C10.56 0 21.12 0 32 0 C32 1.65 32 3.3 32 5 C21.44 5 10.88 5 0 5 C0 3.35 0 1.7 0 0 Z " fill="#EBEBEC" transform="translate(28,61)"/>
<path d="M0 0 C2.97 0 5.94 0 9 0 C9 5.28 9 10.56 9 16 C6.03 16 3.06 16 0 16 C0 10.72 0 5.44 0 0 Z " fill="#D10129" transform="translate(5,66)"/>
<path d="M0 0 C3.63 0 7.26 0 11 0 C11 0.33 11 0.66 11 1 C9.02 1 7.04 1 5 1 C5 1.99 5 2.98 5 4 C6.98 4 8.96 4 11 4 C10.48866068 8.47421905 8.76406839 10.54491451 6 14 C5.21053391 16.68507329 5.21053391 16.68507329 5 19 C3.35 19 1.7 19 0 19 C0 12.73 0 6.46 0 0 Z " fill="#595A5C" transform="translate(28,82)"/>
<path d="M0 0 C0.33 0 0.66 0 1 0 C1 12.54 1 25.08 1 38 C5.95 38 10.9 38 16 38 C16 30.08 16 22.16 16 14 C16.66 14 17.32 14 18 14 C18 22.91 18 31.82 18 41 C12.06 41 6.12 41 0 41 C0 27.47 0 13.94 0 0 Z " fill="#847689" transform="translate(71,41)"/>
<path d="M0 0 C0.99 0 1.98 0 3 0 C3 4.95 3 9.9 3 15 C-7.56 15 -18.12 15 -29 15 C-29 14.01 -29 13.02 -29 12 C-19.43 12 -9.86 12 0 12 C0 8.04 0 4.08 0 0 Z " fill="#B7052E" transform="translate(57,67)"/>
<path d="M0 0 C0.69287109 0.01804687 1.38574219 0.03609375 2.09960938 0.0546875 C3.79617664 0.10148936 5.49202476 0.17322376 7.1875 0.25 C7.1875 1.9 7.1875 3.55 7.1875 5.25 C6.28386719 5.26417969 5.38023438 5.27835938 4.44921875 5.29296875 C2.67998047 5.36451172 2.67998047 5.36451172 0.875 5.4375 C-0.29675781 5.47230469 -1.46851563 5.50710937 -2.67578125 5.54296875 C-6.00807123 5.92196583 -6.00807123 5.92196583 -7.5625 8.78125 C-7.975 9.5959375 -8.3875 10.410625 -8.8125 11.25 C-11.5 11.5625 -11.5 11.5625 -13.8125 11.25 C-13.44810112 4.93375272 -13.44810112 4.93375272 -10.75 2.03125 C-7.08839614 -0.18908426 -4.13973757 -0.20599651 0 0 Z " fill="#818284" transform="translate(21.8125,21.75)"/>
<path d="M0 0 C0 0.66 0 1.32 0 2 C4.62 2 9.24 2 14 2 C14 2.33 14 2.66 14 3 C-1.84 3 -17.68 3 -34 3 C-34 2.34 -34 1.68 -34 1 C-28.53704355 -0.07259378 -23.10959713 -0.36066741 -17.5625 -0.625 C-16.18868164 -0.70234375 -16.18868164 -0.70234375 -14.78710938 -0.78125 C-9.68755432 -1.03018736 -5.02404216 -0.92602703 0 0 Z " fill="#888A8D" transform="translate(67,82)"/>
<path d="M0 0 C1.65 0 3.3 0 5 0 C5 6.27 5 12.54 5 19 C3.35 19 1.7 19 0 19 C-1.8855253 17.1144747 -1.13246689 14.42231169 -1.13671875 11.91796875 C-1.13285156 11.12003906 -1.12898438 10.32210937 -1.125 9.5 C-1.12886719 8.70207031 -1.13273437 7.90414062 -1.13671875 7.08203125 C-1.12660767 1.12660767 -1.12660767 1.12660767 0 0 Z " fill="#D1B8BF" transform="translate(118,59)"/>
<path d="M0 0 C0.33 0 0.66 0 1 0 C1 12.21 1 24.42 1 37 C11.89 36.67 22.78 36.34 34 36 C34 36.99 34 37.98 34 39 C22.78 39 11.56 39 0 39 C0 26.13 0 13.26 0 0 Z " fill="#B70C37" transform="translate(89,42)"/>
<path d="M0 0 C0.33 0 0.66 0 1 0 C1 16.17 1 32.34 1 49 C0.67 49 0.34 49 0 49 C0 43.72 0 38.44 0 33 C-2.97 33 -5.94 33 -9 33 C-9 31.02 -9 29.04 -9 27 C-6.03 27 -3.06 27 0 27 C0 18.09 0 9.18 0 0 Z " fill="#933245" transform="translate(14,33)"/>
<path d="M0 0 C5.18716594 -0.66865811 9.83144047 -0.95636642 15 0 C18.68661763 3.14399858 20.82381759 6.70758511 23 11 C23.39574219 11.77859375 23.79148437 12.5571875 24.19921875 13.359375 C24.46347656 13.90078125 24.72773437 14.4421875 25 15 C22.234375 15.30078125 22.234375 15.30078125 19 15 C16.953125 12.91796875 16.953125 12.91796875 15.25 10.1875 C14.67765625 9.29417969 14.1053125 8.40085937 13.515625 7.48046875 C13.01546875 6.66191406 12.5153125 5.84335937 12 5 C10.36221601 1.7882039 10.36221601 1.7882039 7.6171875 1.48828125 C6.71226563 1.43027344 5.80734375 1.37226562 4.875 1.3125 C3.96492188 1.24675781 3.05484375 1.18101563 2.1171875 1.11328125 C1.41851562 1.07589844 0.71984375 1.03851563 0 1 C0 0.67 0 0.34 0 0 Z " fill="#4476D7" transform="translate(97,40)"/>
<path d="M0 0 C3 2 3 2 3.9375 5.75 C4.27161441 9.27747709 3.95059836 10.09369277 2.1875 13.4375 C-0.11323818 16.13265044 -0.83264866 16.87785861 -4.27734375 17.23828125 C-5.15519531 17.26277344 -6.03304687 17.28726563 -6.9375 17.3125 C-7.81277344 17.34988281 -8.68804687 17.38726562 -9.58984375 17.42578125 C-12 17 -12 17 -13.81640625 14.98046875 C-14.20699219 14.32691406 -14.59757812 13.67335938 -15 13 C-13.98679687 13.06960937 -13.98679687 13.06960937 -12.953125 13.140625 C-7.46802884 13.42397797 -7.46802884 13.42397797 -2.4375 11.5625 C-0.35393781 7.84832392 -0.17966679 4.2042029 0 0 Z " fill="#464547" transform="translate(103,94)"/>
<path d="M0 0 C6.93359375 -0.09765625 6.93359375 -0.09765625 9 0 C10 1 10 1 10.09765625 2.84765625 C10.04882812 5.92382812 10.04882812 5.92382812 10 9 C6.7 9 3.4 9 0 9 C0 6.03 0 3.06 0 0 Z " fill="#9F7D85" transform="translate(16,63)"/>
<path d="M0 0 C3.46941546 0.45822468 6.67395049 0.89131683 10 2 C10 3.98 10 5.96 10 8 C3.375 11 3.375 11 0 11 C0 7.37 0 3.74 0 0 Z " fill="#F79119" transform="translate(52,19)"/>
<path d="M0 0 C2.03477711 1.6585553 2.93665784 2.46258133 3.25 5.12109375 C2.82658582 9.0442908 2.47159876 11.39576408 0 14.5625 C-4.06520894 16.51041262 -7.56846879 16.85984934 -12 16 C-14.5625 14 -14.5625 14 -16 12 C-15.32453125 12.03480469 -14.6490625 12.06960937 -13.953125 12.10546875 C-12.61507812 12.14607422 -12.61507812 12.14607422 -11.25 12.1875 C-10.36828125 12.22230469 -9.4865625 12.25710937 -8.578125 12.29296875 C-5.45059161 11.93756723 -4.19773144 11.23697665 -2 9 C-1.09956172 6.74842467 -1.09956172 6.74842467 -0.75 4.3125 C-0.60046875 3.50425781 -0.4509375 2.69601563 -0.296875 1.86328125 C-0.19890625 1.24839844 -0.1009375 0.63351563 0 0 Z " fill="#454446" transform="translate(53,95)"/>
<path d="M0 0 C4.17960204 1.54964059 6.53831841 3.27024522 8.9375 7.0625 C10 10 10 10 10 13 C9.01 12.67 8.02 12.34 7 12 C5.8125 8.4375 5.8125 8.4375 5 5 C1.12020595 3.70673532 -2.97300686 3.28089408 -7 4 C-9.92743134 6.24228783 -11.58605983 7.82186261 -12.8125 11.3125 C-12.9053125 12.1478125 -12.9053125 12.1478125 -13 13 C-13.66 13 -14.32 13 -15 13 C-14.76001446 6.88036865 -14.76001446 6.88036865 -12.66796875 4.45703125 C-8.30672621 0.83857941 -5.65322703 -0.5333233 0 0 Z " fill="#B6B7B9" transform="translate(99,88)"/>
<path d="M0 0 C3.0482673 2.46455654 4.83325083 4.74987624 7 8 C7 9.32 7 10.64 7 12 C6.34 12 5.68 12 5 12 C4.566875 10.88625 4.13375 9.7725 3.6875 8.625 C2.30088881 4.82487666 2.30088881 4.82487666 -1 3 C-4.06630655 2.45449602 -6.93176819 2.46709658 -10 3 C-12.9916738 5.24375535 -14.57201141 6.78187864 -15.8125 10.3125 C-15.9053125 11.1478125 -15.9053125 11.1478125 -16 12 C-16.66 12 -17.32 12 -18 12 C-18.56123666 8.1835907 -18.03056013 7.04329351 -15.75 3.8125 C-10.80264483 -1.24729506 -6.74634599 -1.89138629 0 0 Z " fill="#C1C3C5" transform="translate(51,89)"/>
<path d="M0 0 C3.3 0 6.6 0 10 0 C10 2.64 10 5.28 10 8 C6.7 8 3.4 8 0 8 C0 5.36 0 2.72 0 0 Z " fill="#B7092C" transform="translate(16,73)"/>
<path d="M0 0 C0.99 0.33 1.98 0.66 3 1 C3 9.58 3 18.16 3 27 C2.01 27 1.02 27 0 27 C0 18.09 0 9.18 0 0 Z " fill="#BB012B" transform="translate(57,33)"/>
<path d="M0 0 C2.64 0 5.28 0 8 0 C8 2.97 8 5.94 8 9 C5.36 9 2.72 9 0 9 C0 6.03 0 3.06 0 0 Z " fill="#D10028" transform="translate(17,33)"/>
<path d="M0 0 C7.26 0.33 14.52 0.66 22 1 C21.67 2.32 21.34 3.64 21 5 C15.06 5 9.12 5 3 5 C3 3.68 3 2.36 3 1 C2.01 0.67 1.02 0.34 0 0 Z " fill="#6C6669" transform="translate(64,81)"/>
<path d="M0 0 C2.64 0 5.28 0 8 0 C8 2.64 8 5.28 8 8 C5.36 8 2.72 8 0 8 C0 5.36 0 2.72 0 0 Z " fill="#58595B" transform="translate(17,93)"/>
<path d="M0 0 C2.5625 0.1875 2.5625 0.1875 4.5625 2.1875 C4.1875 4.8125 4.1875 4.8125 3.5625 7.1875 C0.6875 7.8125 0.6875 7.8125 -2.4375 8.1875 C-3.0975 7.5275 -3.7575 6.8675 -4.4375 6.1875 C-3.71780303 0.28598485 -3.71780303 0.28598485 0 0 Z " fill="#D5D6D8" transform="translate(45.4375,96.8125)"/>
<path d="M0 0 C2.64 0 5.28 0 8 0 C8 2.31 8 4.62 8 7 C5.36 7 2.72 7 0 7 C0 4.69 0 2.38 0 0 Z " fill="#57585A" transform="translate(17,83)"/>
<path d="M0 0 C2.64 0 5.28 0 8 0 C8 2.31 8 4.62 8 7 C5.36 7 2.72 7 0 7 C0 4.69 0 2.38 0 0 Z " fill="#D20A30" transform="translate(17,54)"/>
<path d="M0 0 C2.64 0 5.28 0 8 0 C8 2.31 8 4.62 8 7 C5.36 7 2.72 7 0 7 C0 4.69 0 2.38 0 0 Z " fill="#CF0028" transform="translate(17,45)"/>
<path d="M0 0 C2.4375 0.1875 2.4375 0.1875 3.4375 1.1875 C3.625 3.625 3.625 3.625 3.4375 6.1875 C2.7775 6.8475 2.1175 7.5075 1.4375 8.1875 C-1.1875 7.8125 -1.1875 7.8125 -3.5625 7.1875 C-4.1875 4.8125 -4.1875 4.8125 -4.5625 2.1875 C-2.5625 0.1875 -2.5625 0.1875 0 0 Z " fill="#DBDCDD" transform="translate(96.5625,96.8125)"/>
<path d="M0 0 C1.134375 0.020625 2.26875 0.04125 3.4375 0.0625 C3.4375 2.3725 3.4375 4.6825 3.4375 7.0625 C1.10455225 7.10491723 -1.22952567 7.10342937 -3.5625 7.0625 C-4.5625 6.0625 -4.5625 6.0625 -4.6875 3.5625 C-4.4904197 -0.37910609 -4.10054684 0.07193942 0 0 Z " fill="#FDC21D" transform="translate(95.5625,26.9375)"/>
<path d="M0 0 C0.99 0 1.98 0 3 0 C3 5.61 3 11.22 3 17 C2.01 17 1.02 17 0 17 C0 11.39 0 5.78 0 0 Z " fill="#E3C9CF" transform="translate(117,60)"/>
<path d="M0 0 C2.64 0 5.28 0 8 0 C8 1.98 8 3.96 8 6 C5.66705225 6.04241723 3.33297433 6.04092937 1 6 C0 5 0 5 -0.0625 2.4375 C-0.041875 1.633125 -0.02125 0.82875 0 0 Z " fill="#958F93" transform="translate(38,28)"/>
<path d="M0 0 C2.97 0 5.94 0 9 0 C9 1.65 9 3.3 9 5 C6.03 5 3.06 5 0 5 C0 3.35 0 1.7 0 0 Z " fill="#EAE6E7" transform="translate(5,61)"/>
<path d="M0 0 C1.2065625 0.0309375 1.2065625 0.0309375 2.4375 0.0625 C2.4375 2.3725 2.4375 4.6825 2.4375 7.0625 C0.77138095 7.105221 -0.89632885 7.10313832 -2.5625 7.0625 C-3.5625 6.0625 -3.5625 6.0625 -3.6875 3.5625 C-3.51717518 0.15600356 -3.41884482 0.08338646 0 0 Z " fill="#E4A921" transform="translate(120.5625,84.9375)"/>
<path d="M0 0 C2.64 0 5.28 0 8 0 C8 1.65 8 3.3 8 5 C5.36 5 2.72 5 0 5 C0 3.35 0 1.7 0 0 Z " fill="#D1052C" transform="translate(17,66)"/>
<path d="M0 0 C0.99 0.33 1.98 0.66 3 1 C1.8553125 1.7734375 1.8553125 1.7734375 0.6875 2.5625 C-2.61575607 5.55847644 -3.48625726 7.85712514 -5 12 C-5.66 12 -6.32 12 -7 12 C-6.76269713 5.94877685 -6.76269713 5.94877685 -4.703125 3.38671875 C-3.125 2 -3.125 2 0 0 Z " fill="#C5C7C8" transform="translate(91,89)"/>
<path d="M0 0 C2.97 0 5.94 0 9 0 C9 0.99 9 1.98 9 3 C6.03 3 3.06 3 0 3 C0 2.01 0 1.02 0 0 Z " fill="#B6052E" transform="translate(5,79)"/>
<path d="M0 0 C2.86724686 0.57344937 3.8614515 0.8614515 6 3 C6 3.99 6 4.98 6 6 C3.13275314 5.42655063 2.1385485 5.1385485 0 3 C0 2.01 0 1.02 0 0 Z " fill="#D20027" transform="translate(85,19)"/>
<path d="M0 0 C2.31 0 4.62 0 7 0 C7 0.99 7 1.98 7 3 C4.69 3 2.38 3 0 3 C0 2.01 0 1.02 0 0 Z " fill="#D50024" transform="translate(102,28)"/>
<path d="M0 0 C1.98 0 3.96 0 6 0 C6 0.99 6 1.98 6 3 C4.02 3 2.04 3 0 3 C0 2.01 0 1.02 0 0 Z " fill="#D00028" transform="translate(82,28)"/>
<path d="M0 0 C0.66 0 1.32 0 2 0 C1.75 1.875 1.75 1.875 1 4 C-1.0625 5.25 -1.0625 5.25 -3 6 C-2.42655063 3.13275314 -2.1385485 2.1385485 0 0 Z " fill="#D00028" transform="translate(103,19)"/>
<path d="M0 0 C0.99 0 1.98 0 3 0 C3 1.98 3 3.96 3 6 C2.01 6 1.02 6 0 6 C0 4.02 0 2.04 0 0 Z " fill="#D10028" transform="translate(94,16)"/>
</svg>
