<?xml version="1.0" encoding="UTF-8"?>
<svg version="1.1" xmlns="http://www.w3.org/2000/svg" width="512" height="512">
<path d="M0 0 C1.14836334 -0.00570007 2.29672668 -0.01140015 3.47988892 -0.01727295 C5.90894661 -0.02669819 8.33801694 -0.03324706 10.76708984 -0.03710938 C14.42959864 -0.04675136 18.09153044 -0.077773 21.75390625 -0.109375 C34.53494299 -0.16804855 46.64947634 0.21169565 59.1015625 3.203125 C60.10944824 3.44353516 61.11733398 3.68394531 62.15576172 3.93164062 C64.7410539 4.59257699 67.29526375 5.31337454 69.8515625 6.078125 C71.18646729 6.47100708 71.18646729 6.47100708 72.54833984 6.87182617 C99.90033502 15.05853042 124.58494289 28.48284693 146.1015625 47.203125 C146.65038086 47.6775 147.19919922 48.151875 147.76464844 48.640625 C185.85730016 81.8097367 210.5903443 129.90832645 214.8203125 180.37890625 C218.17287428 231.23683863 205.46953783 285.52538761 171.2421875 324.71484375 C170.19934649 325.88122348 169.15396559 327.04536562 168.1015625 328.203125 C170.08600915 330.55087276 172.08879416 332.87967682 174.1015625 335.203125 C174.94799316 336.18845215 175.79442383 337.1737793 176.66650391 338.18896484 C179.15412305 341.05828472 181.71073944 343.85577525 184.30151367 346.63208008 C185.37752502 347.80551077 186.43314106 348.99797058 187.4675293 350.20825195 C192.52428155 356.17656041 192.52428155 356.17656041 199.1015625 360.203125 C204.43306471 360.4909725 209.32670467 358.63342005 214.25588989 356.80503845 C224.18293216 353.5676169 236.86962337 357.29921374 245.7890625 361.828125 C256.44250092 368.22905091 265.04223712 377.94602378 273.828125 386.65625 C274.41576 387.23856133 275.003395 387.82087265 275.60883713 388.42082977 C278.71406085 391.499558 281.81575483 394.58179736 284.91503906 397.66650391 C287.4527301 400.1908451 289.99749943 402.70770601 292.54882812 405.21826172 C295.66455864 408.28425109 298.76743435 411.36273089 301.8619194 414.45015717 C303.02883507 415.61043838 304.19993683 416.76652789 305.37559891 417.91794586 C318.4798202 430.76700052 327.28017468 443.31027185 327.4765625 462.203125 C327.35644368 476.18674434 323.27303223 487.09362857 313.79296875 497.61328125 C302.12343146 508.58210729 288.60164358 511.83139575 273.0625 511.51171875 C254.93942306 510.68856354 242.73363245 498.45197533 230.67578125 486.30859375 C229.31640277 484.95191654 227.95643157 483.59583301 226.59590149 482.24031067 C223.76141526 479.41168754 220.93420225 476.57604531 218.11206055 473.73510742 C214.51365892 470.11389695 210.89756204 466.5109761 207.27580547 462.9131422 C204.46909551 460.12095784 201.67206973 457.31922783 198.87778664 454.5146122 C197.54879155 453.18296964 196.21687658 451.85423395 194.88187218 450.52861595 C183.3994068 439.10925034 173.35481389 427.12201877 172.1015625 410.203125 C172.05 409.56503906 171.9984375 408.92695313 171.9453125 408.26953125 C171.60687024 400.5840716 173.21417489 392.4345509 175.81944275 385.21331787 C176.32893121 383.16394054 176.32893121 383.16394054 175.04493713 381.54522705 C174.49200485 381.00339783 173.93907257 380.4615686 173.36938477 379.90332031 C172.74866592 379.28297913 172.12794708 378.66263794 171.48841858 378.02349854 C170.80517014 377.36605652 170.12192169 376.7086145 169.41796875 376.03125 C168.72847641 375.3488324 168.03898407 374.66641479 167.32859802 373.96331787 C165.11851451 371.78127615 162.89170187 369.61722714 160.6640625 367.453125 C159.1648831 365.97901549 157.66682096 364.50376878 156.16992188 363.02734375 C152.49331472 359.40593622 148.80160801 355.80057561 145.1015625 352.203125 C143.82054019 353.16227697 142.53973979 354.12172533 141.2590332 355.08129883 C140.5457637 355.61555984 139.8324942 356.14982086 139.09761047 356.70027161 C137.58401124 357.83988236 136.0805742 358.99300587 134.58203125 360.15234375 C107.1946742 380.91447985 73.21660413 394.39921778 39.1015625 398.203125 C38.12703125 398.31527344 37.1525 398.42742187 36.1484375 398.54296875 C-16.96255166 403.61770986 -70.22823323 388.70401525 -111.60058594 354.80859375 C-123.17685089 345.23433425 -133.66206625 335.0961114 -142.8984375 323.203125 C-143.52637207 322.41373535 -143.52637207 322.41373535 -144.16699219 321.60839844 C-162.55565159 298.39424946 -174.64139084 270.66353431 -181.1484375 241.890625 C-181.29949951 241.22305176 -181.45056152 240.55547852 -181.60620117 239.86767578 C-182.07913379 237.65212116 -182.49803655 235.43298225 -182.8984375 233.203125 C-183.07648926 232.22085938 -183.25454102 231.23859375 -183.43798828 230.2265625 C-185.08923894 220.0859061 -185.296236 210.08274524 -185.2734375 199.828125 C-185.27322601 198.9483902 -185.27301453 198.0686554 -185.27279663 197.16226196 C-185.23851304 182.83838399 -184.20399057 169.18297218 -180.8984375 155.203125 C-180.71120117 154.3663623 -180.52396484 153.52959961 -180.33105469 152.66748047 C-172.27713133 117.064688 -153.99940741 85.42607173 -128.8984375 59.203125 C-128.42825195 58.70570801 -127.95806641 58.20829102 -127.47363281 57.69580078 C-115.98962527 45.59366284 -103.14892245 35.83094244 -88.8984375 27.203125 C-88.33157227 26.85652832 -87.76470703 26.50993164 -87.18066406 26.15283203 C-78.10849884 20.64380757 -68.74818979 16.14678178 -58.8984375 12.203125 C-58.24037109 11.93757812 -57.58230469 11.67203125 -56.90429688 11.3984375 C-38.82755898 4.23160521 -19.43593961 0.07566041 0 0 Z " fill="#D8E3EE" transform="translate(184.8984375,-0.203125)"/>
<path d="M0 0 C1.14836334 -0.00570007 2.29672668 -0.01140015 3.47988892 -0.01727295 C5.90894661 -0.02669819 8.33801694 -0.03324706 10.76708984 -0.03710938 C14.42959864 -0.04675136 18.09153044 -0.077773 21.75390625 -0.109375 C34.53494299 -0.16804855 46.64947634 0.21169565 59.1015625 3.203125 C60.10944824 3.44353516 61.11733398 3.68394531 62.15576172 3.93164062 C64.7410539 4.59257699 67.29526375 5.31337454 69.8515625 6.078125 C71.18646729 6.47100708 71.18646729 6.47100708 72.54833984 6.87182617 C99.90033502 15.05853042 124.58494289 28.48284693 146.1015625 47.203125 C146.65038086 47.6775 147.19919922 48.151875 147.76464844 48.640625 C185.85730016 81.8097367 210.5903443 129.90832645 214.8203125 180.37890625 C218.17287428 231.23683863 205.46953783 285.52538761 171.2421875 324.71484375 C170.19934649 325.88122348 169.15396559 327.04536562 168.1015625 328.203125 C170.08600915 330.55087276 172.08879416 332.87967682 174.1015625 335.203125 C174.94799316 336.18845215 175.79442383 337.1737793 176.66650391 338.18896484 C179.15412305 341.05828472 181.71073944 343.85577525 184.30151367 346.63208008 C185.37752502 347.80551077 186.43314106 348.99797058 187.4675293 350.20825195 C192.52428155 356.17656041 192.52428155 356.17656041 199.1015625 360.203125 C204.43306471 360.4909725 209.32670467 358.63342005 214.25588989 356.80503845 C224.18293216 353.5676169 236.86962337 357.29921374 245.7890625 361.828125 C256.44250092 368.22905091 265.04223712 377.94602378 273.828125 386.65625 C274.41576 387.23856133 275.003395 387.82087265 275.60883713 388.42082977 C278.71406085 391.499558 281.81575483 394.58179736 284.91503906 397.66650391 C287.4527301 400.1908451 289.99749943 402.70770601 292.54882812 405.21826172 C295.66455864 408.28425109 298.76743435 411.36273089 301.8619194 414.45015717 C303.02883507 415.61043838 304.19993683 416.76652789 305.37559891 417.91794586 C318.4798202 430.76700052 327.28017468 443.31027185 327.4765625 462.203125 C327.35644368 476.18674434 323.27303223 487.09362857 313.79296875 497.61328125 C302.12343146 508.58210729 288.60164358 511.83139575 273.0625 511.51171875 C254.93942306 510.68856354 242.73363245 498.45197533 230.67578125 486.30859375 C229.31640277 484.95191654 227.95643157 483.59583301 226.59590149 482.24031067 C223.76141526 479.41168754 220.93420225 476.57604531 218.11206055 473.73510742 C214.51365892 470.11389695 210.89756204 466.5109761 207.27580547 462.9131422 C204.46909551 460.12095784 201.67206973 457.31922783 198.87778664 454.5146122 C197.54879155 453.18296964 196.21687658 451.85423395 194.88187218 450.52861595 C183.3994068 439.10925034 173.35481389 427.12201877 172.1015625 410.203125 C172.05 409.56503906 171.9984375 408.92695313 171.9453125 408.26953125 C171.60687024 400.5840716 173.21417489 392.4345509 175.81944275 385.21331787 C176.32893121 383.16394054 176.32893121 383.16394054 175.04493713 381.54522705 C174.49200485 381.00339783 173.93907257 380.4615686 173.36938477 379.90332031 C172.74866592 379.28297913 172.12794708 378.66263794 171.48841858 378.02349854 C170.80517014 377.36605652 170.12192169 376.7086145 169.41796875 376.03125 C168.72847641 375.3488324 168.03898407 374.66641479 167.32859802 373.96331787 C165.11851451 371.78127615 162.89170187 369.61722714 160.6640625 367.453125 C159.1648831 365.97901549 157.66682096 364.50376878 156.16992188 363.02734375 C152.49331472 359.40593622 148.80160801 355.80057561 145.1015625 352.203125 C143.82054019 353.16227697 142.53973979 354.12172533 141.2590332 355.08129883 C140.5457637 355.61555984 139.8324942 356.14982086 139.09761047 356.70027161 C137.58401124 357.83988236 136.0805742 358.99300587 134.58203125 360.15234375 C107.1946742 380.91447985 73.21660413 394.39921778 39.1015625 398.203125 C38.12703125 398.31527344 37.1525 398.42742187 36.1484375 398.54296875 C-16.96255166 403.61770986 -70.22823323 388.70401525 -111.60058594 354.80859375 C-123.17685089 345.23433425 -133.66206625 335.0961114 -142.8984375 323.203125 C-143.52637207 322.41373535 -143.52637207 322.41373535 -144.16699219 321.60839844 C-162.55565159 298.39424946 -174.64139084 270.66353431 -181.1484375 241.890625 C-181.29949951 241.22305176 -181.45056152 240.55547852 -181.60620117 239.86767578 C-182.07913379 237.65212116 -182.49803655 235.43298225 -182.8984375 233.203125 C-183.07648926 232.22085938 -183.25454102 231.23859375 -183.43798828 230.2265625 C-185.08923894 220.0859061 -185.296236 210.08274524 -185.2734375 199.828125 C-185.27322601 198.9483902 -185.27301453 198.0686554 -185.27279663 197.16226196 C-185.23851304 182.83838399 -184.20399057 169.18297218 -180.8984375 155.203125 C-180.71120117 154.3663623 -180.52396484 153.52959961 -180.33105469 152.66748047 C-172.27713133 117.064688 -153.99940741 85.42607173 -128.8984375 59.203125 C-128.42825195 58.70570801 -127.95806641 58.20829102 -127.47363281 57.69580078 C-115.98962527 45.59366284 -103.14892245 35.83094244 -88.8984375 27.203125 C-88.33157227 26.85652832 -87.76470703 26.50993164 -87.18066406 26.15283203 C-78.10849884 20.64380757 -68.74818979 16.14678178 -58.8984375 12.203125 C-58.24037109 11.93757812 -57.58230469 11.67203125 -56.90429688 11.3984375 C-38.82755898 4.23160521 -19.43593961 0.07566041 0 0 Z M-19.8984375 32.203125 C-20.67622559 32.38004883 -21.45401367 32.55697266 -22.25537109 32.73925781 C-66.24560877 42.94986018 -104.8299839 69.91816571 -128.8984375 108.203125 C-144.26131153 133.13611616 -153.72824611 160.80206625 -154.8984375 190.203125 C-154.9396875 191.23953125 -154.9809375 192.2759375 -155.0234375 193.34375 C-155.60880828 224.22205863 -148.69050237 254.11848545 -133.8984375 281.203125 C-133.55973633 281.82928711 -133.22103516 282.45544922 -132.87207031 283.10058594 C-127.02994037 293.75845071 -119.76826086 302.97511448 -111.8984375 312.203125 C-111.36992188 312.8324292 -110.84140625 313.4617334 -110.296875 314.11010742 C-106.48272146 318.6263363 -102.42420336 322.40362224 -97.8984375 326.203125 C-96.568125 327.36521484 -96.568125 327.36521484 -95.2109375 328.55078125 C-64.65014218 354.84444424 -26.30811765 368.70241421 13.8515625 368.515625 C14.64526245 368.51413452 15.4389624 368.51264404 16.25671387 368.5111084 C27.81593765 368.47207468 38.82828485 367.93889949 50.1015625 365.203125 C51.42917809 364.91948013 52.75731584 364.63826934 54.0859375 364.359375 C74.2959177 359.92279848 94.11882803 350.97984265 111.1015625 339.203125 C112.0296875 338.56117188 112.9578125 337.91921875 113.9140625 337.2578125 C141.46292111 317.4021192 161.70769861 290.71895032 174.1015625 259.203125 C174.63330078 257.94822266 174.63330078 257.94822266 175.17578125 256.66796875 C190.6900599 217.97425403 188.04536771 171.23497833 172.1015625 133.203125 C163.7941296 114.4080076 152.82215829 97.48388415 138.9765625 82.328125 C138.51016357 81.81685059 138.04376465 81.30557617 137.56323242 80.77880859 C107.92297199 49.06583865 65.00773818 30.60676782 21.90869141 29.09082031 C7.68022694 28.67958125 -6.00820431 28.96468055 -19.8984375 32.203125 Z " fill="#FECB4A" transform="translate(184.8984375,-0.203125)"/>
<path d="M0 0 C8.68850046 7.07418736 17.03660638 14.58222485 24.05859375 23.34375 C24.79078125 24.22675781 25.52296875 25.10976562 26.27734375 26.01953125 C54.98385674 61.7664074 68.05798519 107.17110842 63.10888672 152.7590332 C58.54615102 189.7699238 42.61182064 221.68562254 18.05859375 249.34375 C17.54167969 249.97925781 17.02476562 250.61476563 16.4921875 251.26953125 C15.05859375 252.34375 15.05859375 252.34375 13.19209099 252.10512924 C10.67460394 251.2067159 9.40278829 250.09598826 7.48904419 248.23590088 C6.79910873 247.57176682 6.10917328 246.90763275 5.39833069 246.22337341 C4.65215988 245.48998245 3.90598907 244.75659149 3.13720703 244.00097656 C1.94645317 242.84702141 1.94645317 242.84702141 0.73164368 241.66975403 C-1.89528116 239.11734176 -4.50961771 236.55258749 -7.12109375 233.984375 C-8.0135593 233.10788048 -8.90602486 232.23138596 -9.82553482 231.32833099 C-13.57529622 227.6422441 -17.32189644 223.95303294 -21.05682182 220.25191116 C-26.39998071 214.95743764 -31.76687915 209.68999658 -37.17060459 204.45733094 C-41.43272802 200.32557349 -45.65314896 196.15284341 -49.86017227 191.96495819 C-51.65211465 190.19316258 -53.45680564 188.43416412 -55.27425766 186.68854523 C-69.4777353 173.01503175 -69.4777353 173.01503175 -70.57215881 166.70988464 C-70.03899405 163.37979152 -69.08133102 160.51062066 -67.94140625 157.34375 C-67.63077207 154.30731635 -67.63077207 154.30731635 -67.66674805 151.25317383 C-67.65721603 150.24535355 -67.64768402 149.23753326 -67.63786316 148.19917297 C-67.63877457 147.1602037 -67.63968597 146.12123444 -67.640625 145.05078125 C-67.63419731 143.38265633 -67.63419731 143.38265633 -67.62763977 141.68083191 C-67.62194617 139.35241369 -67.62135904 137.02397771 -67.62573242 134.69555664 C-67.62890813 131.15415083 -67.6053154 127.6135696 -67.58007812 124.07226562 C-67.57780603 121.79427187 -67.57710122 119.5162759 -67.578125 117.23828125 C-67.56431038 115.67071831 -67.56431038 115.67071831 -67.55021667 114.07148743 C-67.60281979 105.6401473 -68.83930619 97.52252542 -73.87890625 90.53125 C-74.40742188 89.79648438 -74.9359375 89.06171875 -75.48046875 88.3046875 C-76.20363281 87.33402344 -76.20363281 87.33402344 -76.94140625 86.34375 C-77.53953125 85.456875 -78.13765625 84.57 -78.75390625 83.65625 C-87.15002367 74.78035444 -98.68557769 70.81776851 -110.6796875 70.25 C-121.94867117 70.57389893 -132.80400437 75.07591989 -140.94140625 82.90625 C-143.35670158 85.51268381 -145.30633649 88.16979106 -146.94140625 91.34375 C-149.90295623 90.01002583 -151.98117419 88.55217075 -154.26971436 86.25595093 C-154.90627457 85.62214005 -155.54283478 84.98832916 -156.19868469 84.33531189 C-156.88560898 83.64119705 -157.57253326 82.94708221 -158.28027344 82.23193359 C-159.01237534 81.50012375 -159.74447723 80.7683139 -160.49876404 80.014328 C-162.91670734 77.59499171 -165.32748994 75.16864887 -167.73828125 72.7421875 C-169.41364654 71.06309198 -171.08945403 69.38443757 -172.76568604 67.70620728 C-177.17596127 63.28829638 -181.58019738 58.86441219 -185.98321533 54.43927002 C-190.47737545 49.92465013 -194.97720363 45.41568767 -199.4765625 40.90625 C-208.30374321 32.05762054 -217.12455623 23.20267225 -225.94140625 14.34375 C-216.48229281 -5.93109889 -183.33785132 -19.94667048 -163.6328125 -27.28125 C-152.62895254 -31.22492831 -141.45113391 -33.6947424 -129.94140625 -35.65625 C-128.31332031 -35.95015625 -128.31332031 -35.95015625 -126.65234375 -36.25 C-81.43622946 -41.19997462 -35.55297329 -28.2817105 0 0 Z " fill="#EEF5FD" transform="translate(305.94140625,65.65625)"/>
<path d="M0 0 C3.46629835 1.48653506 5.69022036 3.45722351 8.328125 6.1328125 C9.12734375 6.93847656 9.9265625 7.74414062 10.75 8.57421875 C11.575 9.41597656 12.4 10.25773437 13.25 11.125 C14.09046875 11.97449219 14.9309375 12.82398437 15.796875 13.69921875 C17.86915683 15.79504923 19.93662393 17.89540713 22 20 C20.41328952 23.34512213 18.64452825 25.5792583 16.0625 28.25 C-9.35218211 56.07153002 -24.50804043 94.51451589 -26 132 C-26.04125 133.03640625 -26.0825 134.0728125 -26.125 135.140625 C-26.71037078 166.01893363 -19.79206487 195.91536045 -5 223 C-4.66129883 223.62616211 -4.32259766 224.25232422 -3.97363281 224.89746094 C2.40166399 236.52798816 10.30906509 247.61149621 19.890625 256.8359375 C22 259 22 259 22 261 C22.59353271 261.26345215 23.18706543 261.5269043 23.79858398 261.79833984 C26.09224468 263.05035248 27.4549235 264.3186107 29.22265625 266.2265625 C32.98439596 270.09332286 37.05186541 273.24808084 41.4375 276.375 C42.22318359 276.93662842 43.00886719 277.49825684 43.81835938 278.0769043 C60.63496606 289.90974792 79.04430256 298.94324107 99 304 C100.83334904 304.54161352 102.66668315 305.08327755 104.5 305.625 C116.83107508 308.89502725 129.0819864 309.37142099 141.75 309.3125 C142.54369995 309.31100952 143.3373999 309.30951904 144.15515137 309.3079834 C155.71437515 309.26894968 166.72672235 308.73577449 178 306 C179.32761559 305.71635513 180.65575334 305.43514434 181.984375 305.15625 C210.36959987 298.92501074 238.26873271 284.13599453 258.74609375 263.5546875 C261 262 261 262 263.36425781 262.1550293 C266.57878867 263.18554905 268.05875867 264.57109883 270.42578125 266.96484375 C271.22177734 267.76470703 272.01777344 268.56457031 272.83789062 269.38867188 C273.65451172 270.22978516 274.47113281 271.07089844 275.3125 271.9375 C276.56643555 273.19336914 276.56643555 273.19336914 277.84570312 274.47460938 C284 280.71933673 284 280.71933673 284 283 C282.53125 284.4453125 282.53125 284.4453125 280.5 286.125 C277.61392855 288.56357954 274.95750351 291.05671162 272.375 293.8125 C246.03043956 320.30993023 203.43547821 335.93735865 167 340 C166.02546875 340.11214844 165.0509375 340.22429687 164.046875 340.33984375 C110.93588584 345.41458486 57.67020427 330.50089025 16.29785156 296.60546875 C4.72158661 287.03120925 -5.76362875 276.8929864 -15 265 C-15.62793457 264.21061035 -15.62793457 264.21061035 -16.26855469 263.40527344 C-34.65721409 240.19112446 -46.74295334 212.46040931 -53.25 183.6875 C-53.40106201 183.01992676 -53.55212402 182.35235352 -53.70776367 181.66455078 C-54.18069629 179.44899616 -54.59959905 177.22985725 -55 175 C-55.17805176 174.01773438 -55.35610352 173.03546875 -55.53955078 172.0234375 C-57.19080144 161.8827811 -57.3977985 151.87962024 -57.375 141.625 C-57.37478851 140.7452652 -57.37457703 139.8655304 -57.37435913 138.95913696 C-57.34007554 124.63525899 -56.30555307 110.97984718 -53 97 C-52.81276367 96.1632373 -52.62552734 95.32647461 -52.43261719 94.46435547 C-44.34791973 58.72552447 -25.86117156 25.86117156 0 0 Z " fill="#FEB826" transform="translate(57,58)"/>
<path d="M0 0 C2.88361355 1.29053014 4.77595404 2.57373103 6.84643555 4.95263672 C7.37186447 5.54599823 7.8972934 6.13935974 8.43864441 6.7507019 C8.99900894 7.38726715 9.55937347 8.0238324 10.13671875 8.6796875 C11.36475242 10.01586377 12.59598004 11.34911032 13.83007812 12.6796875 C15.76664313 14.77001042 17.68119259 16.86771961 19.54711914 19.02148438 C26.11147341 27.17368823 26.11147341 27.17368823 35.24090576 31.21810913 C39.83108285 30.79309273 43.93508393 29.34701733 48.18856812 27.63917542 C57.05241833 24.51150874 68.62577618 27.75534427 76.91796875 31.21875 C88.9634465 37.33493052 98.22597099 48.03434999 107.7265625 57.453125 C108.3141975 58.03543633 108.9018325 58.61774765 109.50727463 59.21770477 C112.61249835 62.296433 115.71419233 65.37867236 118.81347656 68.46337891 C121.3511676 70.9877201 123.89593693 73.50458101 126.44726562 76.01513672 C129.56299614 79.08112609 132.66587185 82.15960589 135.7603569 85.24703217 C136.92727257 86.40731338 138.09837433 87.56340289 139.27403641 88.71482086 C152.3782577 101.56387552 161.17861218 114.10714685 161.375 133 C161.25488118 146.98361934 157.17146973 157.89050357 147.69140625 168.41015625 C136.02186896 179.37898229 122.50008108 182.62827075 106.9609375 182.30859375 C88.83786056 181.48543854 76.63206995 169.24885033 64.57421875 157.10546875 C63.21484027 155.74879154 61.85486907 154.39270801 60.49433899 153.03718567 C57.65985276 150.20856254 54.83263975 147.37292031 52.01049805 144.53198242 C48.41209642 140.91077195 44.79599954 137.3078511 41.17424297 133.7100172 C38.36753301 130.91783284 35.57050723 128.11610283 32.77622414 125.3114872 C31.44722905 123.97984464 30.11531408 122.65110895 28.78030968 121.32549095 C17.2978443 109.90612534 7.25325139 97.91889377 6 81 C5.9484375 80.36191406 5.896875 79.72382813 5.84375 79.06640625 C5.50530774 71.3809466 7.11261239 63.2314259 9.71788025 56.01019287 C10.22736871 53.96081554 10.22736871 53.96081554 8.94337463 52.34210205 C8.39044235 51.80027283 7.83751007 51.2584436 7.26782227 50.70019531 C6.64710342 50.07985413 6.02638458 49.45951294 5.38685608 48.82037354 C4.70360764 48.16293152 4.02035919 47.5054895 3.31640625 46.828125 C2.62691391 46.1457074 1.93742157 45.46328979 1.22703552 44.76019287 C-0.98304799 42.57815115 -3.20986063 40.41410214 -5.4375 38.25 C-6.9366794 36.77589049 -8.43474154 35.30064378 -9.93164062 33.82421875 C-13.60824778 30.20281122 -17.29995449 26.59745061 -21 23 C-19.57210797 20.02128738 -18.18550577 17.93827336 -15.8125 15.625 C-15.19246094 15.02042969 -14.57242187 14.41585938 -13.93359375 13.79296875 C-12.1233176 12.11434905 -10.27088095 10.51809221 -8.375 8.9375 C-5.14940444 6.23615473 -2.59719627 3.30552252 0 0 Z " fill="#FD495F" transform="translate(351,329)"/>
<path d="M0 0 C0.9840683 -0.00619858 1.9681366 -0.01239716 2.98202515 -0.01878357 C5.06141169 -0.02587129 7.1408551 -0.02272609 9.22021484 -0.01000977 C12.36795505 0.00377278 15.51267057 -0.0301318 18.66015625 -0.06835938 C33.66663479 -0.12747992 44.34788913 1.2646313 55.578125 12.09765625 C62.43204282 19.8052649 66.16979746 28.01110182 66.0859375 38.37890625 C66.08174805 39.08523193 66.07755859 39.79155762 66.07324219 40.51928711 C65.91509361 47.84207083 64.31739955 53.18528522 60.4609375 59.31640625 C58.43937188 62.36671686 58.43937188 62.36671686 59.3359375 65.19140625 C60.30909223 66.79922711 61.28845247 68.40330557 62.2734375 70.00390625 C67.24514845 78.49724579 67.27403736 89.63099787 64.8984375 99.02734375 C60.85540422 109.37431708 54.67768182 117.40699445 44.7734375 122.56640625 C34.5409017 126.99773572 24.63515321 127.18965593 13.66015625 127.08789062 C10.88194146 127.06627792 8.10626577 127.08787441 5.328125 127.11328125 C3.54166103 127.11064048 1.75519862 127.10552069 -0.03125 127.09765625 C-0.85116425 127.10575317 -1.67107849 127.1138501 -2.51583862 127.12219238 C-8.22048353 127.02978317 -11.6359743 126.04234909 -16.2265625 122.56640625 C-20.40286567 116.77436641 -20.80417902 112.25198012 -20.74414062 105.22827148 C-20.75465454 103.70500748 -20.75465454 103.70500748 -20.76538086 102.15097046 C-20.78292402 98.80869862 -20.77135151 95.4672798 -20.7578125 92.125 C-20.76050825 89.79525083 -20.76439136 87.46550277 -20.76940918 85.13575745 C-20.77529909 80.2594224 -20.76675647 75.38338094 -20.74804688 70.50708008 C-20.72524538 64.26028579 -20.73839183 58.01417849 -20.76233673 51.76740932 C-20.77679733 46.95895723 -20.77218763 42.15066778 -20.76182556 37.34221077 C-20.75915968 35.03894024 -20.76242312 32.73565488 -20.77174377 30.43240166 C-20.78191465 27.2129191 -20.76640007 23.99454648 -20.74414062 20.77514648 C-20.75223755 19.82588791 -20.76033447 18.87662933 -20.76867676 17.89860535 C-20.69680194 12.28069007 -20.00082827 9.00905918 -16.2265625 4.56640625 C-11.09879955 -0.02863325 -6.55804026 -0.03469248 0 0 Z " fill="#3BB4FB" transform="translate(277.2265625,135.43359375)"/>
<path d="M0 0 C0.886875 0.680625 1.77375 1.36125 2.6875 2.0625 C3.6775 2.784375 4.6675 3.50625 5.6875 4.25 C12.74544232 10.29174643 17.78213347 20.02386908 19.6875 29.0625 C19.78200453 30.75016565 19.82548116 32.44105377 19.83276367 34.13134766 C19.83914352 35.13984772 19.84552338 36.14834778 19.85209656 37.18740845 C19.85320938 38.27282928 19.8543222 39.35825012 19.85546875 40.4765625 C19.86046135 42.16378922 19.86046135 42.16378922 19.86555481 43.88510132 C19.8706179 46.26730948 19.87296333 48.64952474 19.87280273 51.03173828 C19.87497914 54.65279061 19.89311381 58.27353323 19.91210938 61.89453125 C19.91504554 64.21354063 19.91702884 66.53255145 19.91796875 68.8515625 C19.92515427 69.92483795 19.93233978 70.9981134 19.93974304 72.10391235 C19.89758334 86.18276828 16.51610656 97.7137249 6.7265625 108.21484375 C-3.228446 117.23537827 -13.6534235 120.6883851 -26.921875 120.34375 C-37.91290622 119.43205156 -48.01926962 114.39762044 -55.3125 106.0625 C-56.158125 105.11375 -57.00375 104.165 -57.875 103.1875 C-65.48094961 93.43628256 -66.63032619 84.98076613 -66.68359375 72.89453125 C-66.69262222 71.62332932 -66.7016507 70.35212738 -66.71095276 69.04240417 C-66.72543271 66.35681999 -66.73513072 63.67166042 -66.73803711 60.98608398 C-66.74340212 57.57798726 -66.78102828 54.17108637 -66.82678127 50.76332569 C-66.86404341 47.47380146 -66.86508303 44.18423784 -66.87109375 40.89453125 C-66.89062607 39.68787308 -66.91015839 38.4812149 -66.93028259 37.23799133 C-66.86360007 24.53588203 -62.32843857 14.16595547 -53.43359375 5.16015625 C-38.36587144 -8.78707008 -17.62426165 -10.3085304 0 0 Z " fill="#3BB4FB" transform="translate(219.3125,141.9375)"/>
<path d="M0 0 C6.99336955 6.36193585 13.75491825 12.93763518 20.46768188 19.59259033 C21.05531689 20.17490166 21.64295189 20.75721298 22.24839401 21.3571701 C25.35361773 24.43589833 28.45531171 27.51813769 31.55459595 30.60284424 C34.09228698 33.12718543 36.63705631 35.64404634 39.18838501 38.15460205 C42.30411552 41.22059142 45.40699123 44.29907122 48.50147629 47.3864975 C49.66839196 48.54677871 50.83949371 49.70286822 52.01515579 50.85428619 C65.11937708 63.70334086 73.91973156 76.24661218 74.11611938 95.13946533 C73.99613932 109.10693235 69.98831486 119.4696244 60.74111938 130.13946533 C56.94201024 128.56292812 54.52046541 126.17794247 51.6217804 123.29428101 C51.11946374 122.79720103 50.61714709 122.30012106 50.09960872 121.78797805 C48.41892764 120.12229041 46.74546398 118.44953832 45.07192993 116.77667236 C43.86815394 115.58051795 42.66397621 114.38476772 41.45942688 113.18939209 C38.19036892 109.94227809 34.92790685 106.68861513 31.66726279 103.43305445 C29.63134072 101.40077415 27.59412623 99.3697986 25.55646706 97.3392601 C18.45238176 90.25966285 11.35402964 83.17436901 4.26040649 76.08428955 C-2.36026698 69.4672573 -8.99397394 62.86348955 -15.63370353 56.26558411 C-21.32918986 50.60472519 -27.01508158 44.93434856 -32.69362992 39.25649917 C-36.08752254 35.86340154 -39.48532051 32.47444487 -42.89296913 29.09515762 C-46.09441131 25.91976867 -49.28381228 22.73277173 -52.46418571 19.5362854 C-53.63578626 18.36286055 -54.81170513 17.1937298 -55.99211884 16.02917099 C-57.59799726 14.44356239 -59.18784469 12.84346633 -60.77445984 11.23861694 C-61.66985631 10.3452318 -62.56525278 9.45184666 -63.48778248 8.53138924 C-65.25888062 6.13946533 -65.25888062 6.13946533 -65.15780926 3.94576836 C-62.13092327 -2.13644225 -54.60937983 -6.0166151 -48.50888062 -8.29803467 C-31.90956502 -13.56066685 -13.68605361 -11.2725644 0 0 Z " fill="#FE7478" transform="translate(438.2588806152344,366.86053466796875)"/>
<path d="M0 0 C1.36782875 -0.00218285 1.36782875 -0.00218285 2.76329041 -0.00440979 C4.68377897 -0.00275548 6.60428144 0.00875318 8.5246582 0.02954102 C11.45907 0.0585367 14.39167785 0.05013191 17.32617188 0.03710938 C19.19662333 0.04334625 21.06706911 0.05173679 22.9375 0.0625 C23.81156998 0.05956436 24.68563995 0.05662872 25.5861969 0.05360413 C32.12129074 0.15455341 35.28316914 1.38501757 40.00170898 6.08552551 C42.98580293 9.74300467 43.10328096 13.33275315 43.03344727 17.91308594 C43.04060257 18.73670624 43.04775787 19.56032654 43.05513 20.40890503 C43.07198191 23.12083105 43.05262894 25.83109497 43.03125 28.54296875 C43.03207934 30.43857967 43.03454119 32.33419052 43.03855896 34.22979736 C43.04141499 38.20094478 43.0267405 42.17152764 42.99926758 46.14257812 C42.96527843 51.21091798 42.9711739 56.27824248 42.98993015 61.3466301 C43.00054823 65.26227131 42.99151729 69.17768019 42.97654533 73.09329987 C42.97139198 74.960638 42.97181044 76.8280007 42.97809029 78.69533539 C43.01712065 97.283207 43.01712065 97.283207 38.40234375 105.49609375 C37.94472656 106.38683594 37.48710937 107.27757812 37.015625 108.1953125 C30.48550194 118.17679189 21.45073915 123.80169472 9.83984375 126.24609375 C8.70546875 126.32859375 7.57109375 126.41109375 6.40234375 126.49609375 C5.7165625 126.54765625 5.03078125 126.59921875 4.32421875 126.65234375 C-7.3418398 127.14182872 -16.1021313 122.35975829 -24.60546875 114.68359375 C-31.96050827 107.04199424 -36.07118919 96.15583968 -35.87109375 85.55078125 C-35.29566159 81.22681956 -33.34739789 77.99777076 -30.0546875 75.171875 C-25.5387249 72.226682 -21.90869482 71.90597835 -16.59765625 72.49609375 C-11.82725387 74.23912539 -9.47727612 76.36921338 -6.59765625 80.49609375 C-5.4375 83.7578125 -5.4375 83.7578125 -4.53515625 87.18359375 C-3.38906421 92.2357669 -3.38906421 92.2357669 0.40234375 95.49609375 C5.33897966 96.05876017 5.33897966 96.05876017 9.59088135 93.85101318 C11.89239914 90.85901678 11.91724901 89.19255777 11.94824219 85.44238281 C11.96796082 84.22141907 11.98767944 83.00045532 12.00799561 81.74249268 C12.00922424 80.42883728 12.01045288 79.11518188 12.01171875 77.76171875 C12.02670368 76.39978063 12.0434315 75.03786066 12.06182861 73.67596436 C12.10548045 70.09868527 12.12549598 66.52165129 12.14056396 62.94415283 C12.16014321 59.29074625 12.20211216 55.63760407 12.2421875 51.984375 C12.31746582 44.8216857 12.36777119 37.65910746 12.40234375 30.49609375 C11.54854126 30.52751465 11.54854126 30.52751465 10.67749023 30.55957031 C8.06512559 30.64340369 5.45304491 30.69496193 2.83984375 30.74609375 C1.94458984 30.77960938 1.04933594 30.813125 0.12695312 30.84765625 C-6.03738262 30.93797619 -9.55015411 30.08336464 -14.59765625 26.49609375 C-17.8261689 23.05471214 -19.42684971 19.57786851 -20.16015625 14.93359375 C-19.25633628 9.41024951 -17.41375694 6.00770171 -13.10620117 2.42236328 C-8.94552317 -0.28455244 -4.83091522 -0.06223343 0 0 Z " fill="#1F9CFC" transform="translate(91.59765625,135.50390625)"/>
<path d="M0 0 C1.45792969 1.28583984 1.45792969 1.28583984 2.9453125 2.59765625 C5.64113559 4.93426261 8.40009287 6.95749563 11.3671875 8.93359375 C17.14544233 13.2051886 22.83142525 17.79665289 24.47967529 25.13586426 C25.55619819 32.8113665 25.41439904 40.56091398 25.15771484 48.28881836 C25.1320192 49.12826996 25.10632355 49.96772156 25.07984924 50.83261108 C25.02070073 52.41683703 24.93843694 54.00044508 24.82823181 55.5819397 C24.56097964 61.21498553 25.84431438 65.30001197 29 70 C31.9418684 72.54431862 33.55729031 72.95975366 37.4375 73.3125 C41.0452485 72.99603083 43.74218969 72.59102364 47 71 C48.38858872 68.57114212 48.38858872 68.57114212 49 66 C49.33 65.34 49.66 64.68 50 64 C50.22950319 61.795636 50.41075933 59.58607827 50.5625 57.375 C50.64628906 56.18648437 50.73007813 54.99796875 50.81640625 53.7734375 C50.87699219 52.85820312 50.93757813 51.94296875 51 51 C56.91440375 55.94206292 62.49072518 61.17407916 68 66.5625 C68.88300781 67.39974609 69.76601562 68.23699219 70.67578125 69.09960938 C71.50464844 69.91365234 72.33351563 70.72769531 73.1875 71.56640625 C73.94417969 72.29802979 74.70085937 73.02965332 75.48046875 73.78344727 C77 76 77 76 76.80883789 78.63891602 C73.5924122 88.02800531 65.56154708 95.63364287 56.88671875 100.15625 C46.26639617 104.90571103 34.48623453 105.92620547 23.37890625 102.046875 C16.71574401 99.11464597 10.82269719 95.51165393 6 90 C5.154375 89.05125 4.30875 88.1025 3.4375 87.125 C-4.19541663 77.33920945 -5.31386806 68.88947499 -5.3359375 56.76171875 C-5.3425943 55.48577347 -5.3492511 54.20982819 -5.35610962 52.8952179 C-5.3662144 50.20124306 -5.37179515 47.50767212 -5.37060547 44.8137207 C-5.37040261 41.38765832 -5.39768896 37.96242849 -5.43214989 34.53656292 C-5.45994043 31.23664755 -5.4585726 27.93673508 -5.4609375 24.63671875 C-5.47530853 23.41973801 -5.48967957 22.20275726 -5.50448608 20.94889832 C-5.46796944 14.07746459 -5.24089026 5.24089026 0 0 Z " fill="#1E9CFC" transform="translate(158,158)"/>
<path d="M0 0 C5.00301421 2.45430886 7.00464123 4.85909273 9 10 C9.43685131 13.46970193 9.44435324 16.90850085 9.43359375 20.40234375 C9.4388356 21.39827042 9.44407745 22.39419708 9.44947815 23.42030334 C9.45588425 25.52067129 9.4545797 27.62107517 9.44604492 29.72143555 C9.43753675 32.92366833 9.46631412 36.12411514 9.49804688 39.32617188 C9.49965919 41.3723953 9.49908078 43.41862187 9.49609375 45.46484375 C9.51294472 46.89170753 9.51294472 46.89170753 9.53013611 48.34739685 C9.46692138 54.41930246 8.58497439 58.04796081 5 63 C0.68266618 65.9741633 -2.81076076 66.6486549 -8 66 C-12.44468771 63.69218138 -14.95989071 61.55983353 -17 57 C-17.45279967 53.40791865 -17.44415552 49.83954758 -17.43359375 46.22265625 C-17.4388356 45.17855087 -17.44407745 44.1344455 -17.44947815 43.05870056 C-17.45589197 40.85400277 -17.45456966 38.64927072 -17.44604492 36.44458008 C-17.43753832 33.07766562 -17.46630136 29.71244995 -17.49804688 26.34570312 C-17.49965914 24.20052134 -17.49908088 22.05533656 -17.49609375 19.91015625 C-17.50732773 18.90686783 -17.51856171 17.90357941 -17.53013611 16.86988831 C-17.47105757 10.92230035 -16.93533607 7.54287435 -13 3 C-9.05061527 -0.29115394 -4.99650314 -0.87193878 0 0 Z " fill="#D6E3EF" transform="translate(200,166)"/>
<path d="M0 0 C6.92810724 5.66574049 13.14204142 12.03033639 19.4375 18.375 C20.56161467 19.50413955 21.68596174 20.63304778 22.81054688 21.76171875 C25.54305235 24.50515188 28.27239009 27.25169985 31 30 C29.38880357 33.32116353 27.51553868 36.23739 25.375 39.25 C24.74335938 40.14203125 24.11171875 41.0340625 23.4609375 41.953125 C22.97882813 42.62859375 22.49671875 43.3040625 22 44 C17.33125463 40.10023279 12.90872191 36.04785356 8.62890625 31.7265625 C8.06171371 31.15795502 7.49452118 30.58934753 6.91014099 30.00350952 C5.12520087 28.21303764 3.34379744 26.41909516 1.5625 24.625 C0.34203061 23.39950677 -0.87867053 22.17424428 -2.09960938 20.94921875 C-5.06908756 17.96880226 -8.03540257 14.98527106 -11 12 C-9.51160662 8.87526564 -7.98534464 6.73992348 -5.5 4.3125 C-4.8915625 3.71050781 -4.283125 3.10851562 -3.65625 2.48828125 C-2 1 -2 1 0 0 Z " fill="#FD2047" transform="translate(341,340)"/>
<path d="M0 0 C3.75212276 2.01502889 5.63644095 3.45466142 8 7 C8.17145815 9.61409145 8.23233432 12.11869674 8.1953125 14.73046875 C8.1924826 15.48088943 8.18965271 16.23131012 8.18673706 17.00447083 C8.17555062 19.39897675 8.15044928 21.79310731 8.125 24.1875 C8.11496819 25.81184355 8.10584269 27.43619297 8.09765625 29.06054688 C8.07561637 33.040509 8.0410974 37.02019088 8 41 C2.328297 36.23424688 -3.10775556 31.27007159 -8.4375 26.125 C-9.26443359 25.36058594 -10.09136719 24.59617188 -10.94335938 23.80859375 C-17.52960509 17.40182459 -17.52960509 17.40182459 -17.640625 12.63671875 C-16.72394519 7.43288396 -14.78439014 4.48699179 -10.75 1.125 C-7.10646236 -0.36553812 -3.84275621 -0.69184652 0 0 Z " fill="#EDF5FD" transform="translate(200,166)"/>
<path d="M0 0 C3.39716777 -0.13516583 6.78894608 -0.23419231 10.1875 -0.3125 C11.14720703 -0.35439453 12.10691406 -0.39628906 13.09570312 -0.43945312 C20.23161114 -0.56291174 20.23161114 -0.56291174 24.140625 2.30078125 C26.58596627 5.85063591 26.67993522 7.76929195 26 12 C24.20437595 14.75329021 22.94745078 16.52627461 20 18 C18.47851674 18.08372659 16.95344222 18.10730027 15.4296875 18.09765625 C14.53378906 18.09443359 13.63789063 18.09121094 12.71484375 18.08789062 C11.77769531 18.07951172 10.84054687 18.07113281 9.875 18.0625 C8.93011719 18.05798828 7.98523438 18.05347656 7.01171875 18.04882812 C4.6744523 18.03702375 2.33721831 18.01908799 0 18 C0 12.06 0 6.12 0 0 Z " fill="#EBF4FD" transform="translate(287,166)"/>
<path d="M0 0 C3.39716777 -0.13516583 6.78894608 -0.23419231 10.1875 -0.3125 C11.14720703 -0.35439453 12.10691406 -0.39628906 13.09570312 -0.43945312 C20.23161114 -0.56291174 20.23161114 -0.56291174 24.140625 2.30078125 C26.58596627 5.85063591 26.67993522 7.76929195 26 12 C24.20437595 14.75329021 22.94745078 16.52627461 20 18 C18.47851674 18.08372659 16.95344222 18.10730027 15.4296875 18.09765625 C14.53378906 18.09443359 13.63789063 18.09121094 12.71484375 18.08789062 C11.77769531 18.07951172 10.84054687 18.07113281 9.875 18.0625 C8.93011719 18.05798828 7.98523438 18.05347656 7.01171875 18.04882812 C4.6744523 18.03702375 2.33721831 18.01908799 0 18 C0 12.06 0 6.12 0 0 Z " fill="#ECF5FD" transform="translate(287,214)"/>
</svg>
