<?xml version="1.0" encoding="UTF-8"?>
<svg version="1.1" xmlns="http://www.w3.org/2000/svg" width="512" height="512">
<path d="M0 0 C7.66343987 2.16330466 14.60618064 11.96109886 20.03942871 17.44592285 C21.45180804 18.86408935 22.86419032 20.28225292 24.27674103 21.70024872 C27.22629895 24.66283731 30.17124183 27.63001306 33.11700439 30.59637451 C35.55194977 33.04798316 37.98792687 35.49854616 40.42651367 37.9465332 C42.24538485 39.77285714 44.06200523 41.60142646 45.87597656 43.43261719 C50.13927402 47.71279084 54.46669475 51.81393374 59.04742432 55.75018311 C63.42854464 59.64028155 67.53795981 63.82029714 71.68786621 67.95373535 C72.17449863 68.4375404 72.66113106 68.92134544 73.16250992 69.41981125 C75.72864872 71.97109147 78.2920037 74.52512821 80.85290527 77.08166504 C83.48895795 79.71219547 86.1341948 82.3332881 88.78159904 84.95238686 C90.82840523 86.98056232 92.86846572 89.01542172 94.9067421 91.05216599 C95.87945415 92.0218613 96.85465507 92.98906692 97.83242416 93.95366287 C99.19609781 95.30023856 100.54939212 96.65730077 101.90222168 98.01477051 C102.67307098 98.78197418 103.44392029 99.54917786 104.23812866 100.33963013 C106.92461599 103.54708756 108.10275588 106.23314529 108.19567871 110.41467285 C106.6123601 115.16462868 103.5790158 118.0530897 100.13317871 121.60217285 C99.42419434 122.37303223 98.71520996 123.1438916 97.98474121 123.93811035 C90.96754909 131.3492501 84.27383758 136.04212118 73.94567871 136.85217285 C69.0541333 136.53141578 64.75684004 135.16510062 60.13317871 133.60217285 C60.18538574 134.79713379 60.18538574 134.79713379 60.23864746 136.01623535 C60.26571777 137.07584473 60.29278809 138.1354541 60.32067871 139.22717285 C60.37288574 140.79338379 60.37288574 140.79338379 60.42614746 142.39123535 C59.88069653 148.36937754 56.87068719 152.24192965 52.68395996 156.34436035 C51.83640137 157.18225098 50.98884277 158.0201416 50.11560059 158.88342285 C49.23452637 159.73936035 48.35345215 160.59529785 47.44567871 161.47717285 C46.55300293 162.35631348 45.66032715 163.2354541 44.74060059 164.14123535 C42.54477003 166.30183868 40.34223436 168.45510682 38.13317871 170.60217285 C40.3190401 175.41274339 43.99603442 178.53610008 47.78942871 182.09240723 C51.59723262 185.76488477 53.77396175 188.65845984 54.43395996 194.0670166 C54.43782715 194.88299316 54.44169434 195.69896973 54.44567871 196.53967285 C54.46243652 197.35307129 54.47919434 198.16646973 54.49645996 199.0045166 C53.5928791 205.46560557 49.62160048 209.53179459 45.15270996 213.87561035 C44.57985764 214.44421783 44.00700531 215.01282532 43.41679382 215.59866333 C41.60005692 217.39871615 39.77313206 219.18800717 37.94567871 220.97717285 C36.70605637 222.20173512 35.46711662 223.42698879 34.22888184 224.6529541 C31.20481924 227.64408384 28.17157956 230.62561191 25.13317871 233.60217285 C29.80784208 239.22521042 34.81083538 244.39958839 40.00817871 249.53967285 C41.18380371 250.70853027 41.18380371 250.70853027 42.38317871 251.90100098 C44.29756452 253.8037137 46.21425905 255.70403456 48.13317871 257.60217285 C48.73573486 257.31922363 49.33829102 257.03627441 49.95910645 256.74475098 C50.75776123 256.3780127 51.55641602 256.01127441 52.37927246 255.63342285 C53.16745361 255.26797363 53.95563477 254.90252441 54.7677002 254.52600098 C58.96575947 252.8864658 62.62668622 252.71531574 66.97880536 254.25519979 C72.76932577 257.00733112 76.87059911 260.77367812 81.35063171 265.30496216 C82.13798134 266.08536625 82.92533096 266.86577035 83.73653966 267.66982305 C86.36294412 270.27798363 88.97488338 272.90015487 91.58703613 275.52258301 C93.47089082 277.39937793 95.35550416 279.27538229 97.24104309 281.15048218 C101.82361012 285.71144696 106.39527391 290.28319034 110.96297427 294.8590389 C114.67743857 298.57981284 118.39561732 302.29683608 122.11644936 306.01124191 C122.64679118 306.54068208 123.177133 307.07012225 123.72354579 307.61560606 C124.80108325 308.69129224 125.87862634 309.76697277 126.95617501 310.84264772 C137.0524417 320.92234872 147.13604277 331.01464535 157.21559665 341.11105494 C166.4273332 350.33748334 175.65364329 359.54917516 184.88713714 368.75382526 C194.37893571 378.21619479 203.86144556 387.68777789 213.33377153 397.16964185 C214.40628547 398.24317829 215.47881336 399.3167008 216.55135536 400.3902092 C217.07900107 400.9183313 217.60664678 401.4464534 218.15028175 401.9905792 C221.85923121 405.70168836 225.57411287 409.40679383 229.29143333 413.10951614 C233.82612292 417.626645 238.3518242 422.15255447 242.86637732 426.68981178 C245.16763342 429.00217684 247.47395166 431.30904074 249.78873825 433.60787201 C252.30315027 436.1063224 254.80157685 438.61976546 257.29667664 441.13748169 C258.02371754 441.85268687 258.75075845 442.56789205 259.4998309 443.30477011 C268.05133075 452.01391579 271.42719548 460.91476883 271.45007324 472.98278809 C271.28445708 482.64270828 267.90121933 490.62403784 261.13317871 497.60217285 C251.1930181 505.73503153 241.65322925 507.60062509 229.10241699 506.80041504 C219.62921155 505.8467524 213.59688289 500.07853855 207.13317871 493.60217285 C206.54810547 493.01871094 205.96303223 492.43524902 205.36022949 491.83410645 C200.17312498 486.65495558 200.17312498 486.65495558 197.66174316 484.09509277 C194.61549844 481.00383973 191.52810166 478.03233547 188.23864746 475.1998291 C183.63774029 471.22945787 179.35535771 466.97115684 175.07067871 462.66467285 C174.30690918 461.90477051 173.54313965 461.14486816 172.75622559 460.36193848 C172.00276855 459.60719238 171.24931152 458.85244629 170.47302246 458.0748291 C169.80649658 457.40717529 169.1399707 456.73952148 168.45324707 456.05163574 C166.66908864 454.16797148 165.00052429 452.26769766 163.32661438 450.29064941 C157.77326411 443.93583987 151.70589751 438.07762394 145.71813965 432.13708496 C144.36213803 430.7879232 143.00639132 429.43850519 141.65087891 428.08885193 C138.74444565 425.19569087 135.836595 422.30396466 132.92772675 419.41325188 C128.32680771 414.84028465 123.73140164 410.26180458 119.137146 405.68214417 C117.56111443 404.11125551 115.98507601 402.54037372 114.40903091 400.96949863 C113.62017643 400.18322971 112.83132195 399.39696079 112.01856279 398.58686554 C101.33058708 387.9348885 90.63785761 377.28771759 79.93493652 366.65075684 C72.70162539 359.46193499 65.4754522 352.26602054 58.25729966 345.06197745 C54.44138712 341.25413418 50.62184645 337.45009302 46.7934494 333.65479851 C43.19632815 330.08873103 39.60860234 326.51347726 36.02784729 322.93097878 C34.71354488 321.61937122 33.39581036 320.31119236 32.07439423 319.00675201 C30.26880604 317.22335875 28.47603638 315.42797165 26.68585205 313.62913513 C26.16241455 313.11803111 25.63897705 312.6069271 25.0996778 312.08033508 C20.55476743 307.46619557 18.42545424 303.19089898 17.69567871 296.72717285 C18.13317871 292.60217285 18.13317871 292.60217285 22.13317871 283.60217285 C14.54317871 276.01217285 6.95317871 268.42217285 -0.86682129 260.60217285 C-5.15383761 264.27675827 -9.08036799 267.70693019 -12.96838379 271.71154785 C-13.87072754 272.63064941 -14.77307129 273.54975098 -15.70275879 274.4967041 C-17.10463459 275.9319579 -18.50645297 277.36728583 -19.90197754 278.80871582 C-21.27137856 280.22055302 -22.65101818 281.62243651 -24.03088379 283.02404785 C-24.83993164 283.8551709 -25.64897949 284.68629395 -26.48254395 285.54260254 C-30.30384211 288.84349045 -33.81443312 289.89102409 -38.80432129 289.91467285 C-39.61771973 289.93143066 -40.43111816 289.94818848 -41.26916504 289.9654541 C-48.10712021 289.00916864 -52.18926483 284.66807739 -56.74182129 279.91467285 C-57.33479004 279.30816895 -57.92775879 278.70166504 -58.53869629 278.07678223 C-59.98838051 276.592025 -61.42858597 275.09802294 -62.86682129 273.60217285 C-66.29850612 275.07509825 -68.46643738 276.99194029 -71.05432129 279.66467285 C-71.83549316 280.46131348 -72.61666504 281.2579541 -73.42150879 282.07873535 C-74.22846191 282.91146973 -75.03541504 283.7442041 -75.86682129 284.60217285 C-77.46620473 286.2526548 -79.07019776 287.89868549 -80.67932129 289.53967285 C-81.3870166 290.27057129 -82.09471191 291.00146973 -82.82385254 291.7545166 C-86.99089059 295.52317626 -90.05602971 295.83838868 -95.61682129 295.72717285 C-96.78729004 295.70912598 -97.95775879 295.6910791 -99.16369629 295.67248535 C-100.50174316 295.63768066 -100.50174316 295.63768066 -101.86682129 295.60217285 C-101.65025879 296.24283691 -101.43369629 296.88350098 -101.21057129 297.5435791 C-98.39483507 306.29061153 -98.02257823 313.12475625 -101.86682129 321.60217285 C-104.8918043 326.70022115 -108.63179377 330.70162915 -112.80432129 334.85217285 C-113.71601074 335.78803223 -113.71601074 335.78803223 -114.64611816 336.74279785 C-118.64580202 340.74679636 -121.77709649 343.5335123 -127.67932129 343.66467285 C-136.10699257 340.85544909 -142.90757836 331.7217782 -149.05432129 325.5826416 C-150.00688752 324.63329617 -150.95952556 323.68402279 -151.91223145 322.7348175 C-153.89055742 320.76242859 -155.86685796 318.78803596 -157.84191895 316.81237793 C-160.37672996 314.27746428 -162.91841365 311.74956019 -165.46180725 309.22326183 C-167.42281282 307.27333621 -169.37929571 305.3189218 -171.33450317 303.36318398 C-172.72529022 301.97415181 -174.12061601 300.58966896 -175.51599121 299.20524597 C-176.35106201 298.36709854 -177.18613281 297.52895111 -178.04650879 296.66540527 C-179.1561499 295.55790169 -179.1561499 295.55790169 -180.28820801 294.42802429 C-181.86682129 292.60217285 -181.86682129 292.60217285 -181.86682129 290.60217285 C-182.52682129 290.60217285 -183.18682129 290.60217285 -183.86682129 290.60217285 C-185.23989868 289.20785522 -185.23989868 289.20785522 -186.86340332 287.23449707 C-191.28251492 282.04166704 -196.08015845 277.28176132 -200.92150879 272.48498535 C-201.87347418 271.53743623 -202.82513902 270.58958509 -203.77651978 269.64144897 C-206.76211486 266.66716283 -209.75168393 263.69689152 -212.74182129 260.72717285 C-216.23060608 257.26202952 -219.71772151 253.79523834 -223.20068741 250.32424545 C-224.5907663 248.94064285 -225.98388645 247.5600979 -227.37704468 246.17959595 C-228.21526764 245.34467621 -229.0534906 244.50975647 -229.91711426 243.64953613 C-231.02794876 242.54655685 -231.02794876 242.54655685 -232.16122437 241.42129517 C-234.94121839 238.45626334 -235.39441738 235.89862751 -235.33557129 231.82629395 C-234.39424872 227.35991447 -231.01168385 224.53268175 -227.86682129 221.41467285 C-227.21842285 220.72953613 -226.57002441 220.04439941 -225.90197754 219.33850098 C-218.222895 211.43892993 -211.04965843 207.14588504 -199.86682129 206.60217285 C-195.07606777 207.07911265 -191.11431052 208.3646562 -186.86682129 210.60217285 C-187.19682129 209.94217285 -187.52682129 209.28217285 -187.86682129 208.60217285 C-188.01514813 206.85647998 -188.08810411 205.10392048 -188.11682129 203.35217285 C-188.14260254 202.4188916 -188.16838379 201.48561035 -188.19494629 200.52404785 C-187.46958545 194.06488225 -183.60763191 189.9068125 -179.14883423 185.50323486 C-178.56993435 184.91965501 -177.99103447 184.33607516 -177.39459217 183.73481107 C-175.46027078 181.78855973 -173.5154468 179.85316543 -171.57043457 177.91760254 C-170.17848485 176.5215863 -168.78717385 175.12493296 -167.39645386 173.72769165 C-163.62242822 169.93999767 -159.83898425 166.16184491 -156.05336618 162.38574123 C-152.09271928 158.43269182 -148.13939968 154.4723256 -144.18490601 150.51312256 C-137.54406494 143.86682486 -130.89692608 137.22687501 -124.24621582 130.5904541 C-116.55558516 122.91615641 -108.87583075 115.23110185 -101.20162404 107.5403831 C-94.612579 100.93772864 -88.0177112 94.3409329 -81.41793239 87.74900746 C-77.47603636 83.81179005 -73.53619904 79.87257007 -69.60159683 75.92806244 C-65.90330787 72.22111386 -62.19776927 68.52156904 -58.48648453 64.8276329 C-57.12496885 63.47008711 -55.76600544 62.10997609 -54.40978241 60.74714279 C-52.55962494 58.88880013 -50.70049484 57.03992555 -48.83877563 55.19317627 C-48.30287154 54.65058001 -47.76696745 54.10798376 -47.21482384 53.54894519 C-43.4229129 49.81604011 -40.36966133 47.80641568 -35.04260254 47.3717041 C-34.09771973 47.38588379 -33.15283691 47.40006348 -32.17932129 47.41467285 C-31.2267041 47.42111816 -30.27408691 47.42756348 -29.29260254 47.4342041 C-26.86682129 47.60217285 -26.86682129 47.60217285 -24.86682129 48.60217285 C-25.34119629 47.63279785 -25.81557129 46.66342285 -26.30432129 45.66467285 C-29.37108557 38.40666405 -29.64913477 31.00030594 -26.86682129 23.60217285 C-23.36264778 16.88105317 -18.37204601 11.72106601 -12.86682129 6.60217285 C-12.27771973 5.99760254 -11.68861816 5.39303223 -11.08166504 4.7701416 C-7.68564383 1.46695013 -4.88778809 -0.53284776 0 0 Z " fill="#A46942" transform="translate(240.8668212890625,5.3978271484375)"/>
<path d="M0 0 C1.11339231 0.94983263 2.22614167 1.90041896 3.33862305 2.85131836 C3.95835495 3.38059433 4.57808685 3.9098703 5.21659851 4.45518494 C7.48703776 6.42188104 9.66614899 8.4612562 11.8125 10.5625 C12.93591797 11.64724609 12.93591797 11.64724609 14.08203125 12.75390625 C17.30820191 16.53200834 18.28921202 20.0237354 18.3125 24.9375 C18.32925781 25.75089844 18.34601563 26.56429687 18.36328125 27.40234375 C17.45970039 33.86343272 13.48842177 37.92962174 9.01953125 42.2734375 C8.44667892 42.84204498 7.8738266 43.41065247 7.28361511 43.99649048 C5.46687821 45.7965433 3.63995334 47.58583432 1.8125 49.375 C0.57287765 50.59956227 -0.6660621 51.82481594 -1.90429688 53.05078125 C-4.92835947 56.04191099 -7.96159915 59.02343906 -11 62 C-6.32533663 67.62303757 -1.32234333 72.79741554 3.875 77.9375 C5.050625 79.10635742 5.050625 79.10635742 6.25 80.29882812 C8.16438581 82.20154085 10.08108034 84.10186171 12 86 C12.60255615 85.71705078 13.2051123 85.43410156 13.82592773 85.14257812 C14.62458252 84.77583984 15.4232373 84.40910156 16.24609375 84.03125 C17.42836548 83.48307617 17.42836548 83.48307617 18.63452148 82.92382812 C22.83258076 81.28429295 26.49350751 81.11314289 30.84562665 82.65302694 C36.63614706 85.40515827 40.7374204 89.17150527 45.217453 93.70278931 C46.00480263 94.4831934 46.79215225 95.2635975 47.60336095 96.0676502 C50.22976541 98.67581077 52.84170467 101.29798202 55.45385742 103.92041016 C57.33771211 105.79720508 59.22232545 107.67320944 61.10786438 109.54830933 C65.69043141 114.10927411 70.26209519 118.68101749 74.82979556 123.25686605 C78.54425986 126.97763999 82.26243861 130.69466323 85.98327065 134.40906906 C86.51361247 134.93850923 87.04395429 135.4679494 87.59036708 136.01343321 C88.66790454 137.08911939 89.74544763 138.16479992 90.8229963 139.24047486 C100.91926299 149.32017587 111.00286406 159.4124725 121.08241794 169.50888209 C130.29415449 178.73531049 139.52046458 187.94700231 148.75395843 197.15165241 C158.245757 206.61402194 167.72826685 216.08560504 177.20059282 225.567469 C178.27310676 226.64100544 179.34563465 227.71452794 180.41817665 228.78803635 C180.94582236 229.31615845 181.47346807 229.84428054 182.01710304 230.38840634 C185.7260525 234.09951551 189.44093416 237.80462098 193.15825462 241.50734329 C197.69294421 246.02447215 202.21864549 250.55038162 206.73319861 255.08763893 C209.03445471 257.40000399 211.34077295 259.70686789 213.65555954 262.00569916 C216.16997156 264.50414955 218.66839814 267.01759261 221.16349792 269.53530884 C221.89053883 270.25051402 222.61757974 270.9657192 223.36665219 271.70259726 C231.91815204 280.41174294 235.29401677 289.31259598 235.31689453 301.38061523 C235.15127837 311.04053543 231.76804062 319.02186499 225 326 C215.05983939 334.13285868 205.52005054 335.99845224 192.96923828 335.19824219 C183.49603284 334.24457955 177.46370418 328.4763657 171 322 C170.41492676 321.41653809 169.82985352 320.83307617 169.22705078 320.23193359 C164.03994627 315.05278273 164.03994627 315.05278273 161.52856445 312.49291992 C158.48231973 309.40166688 155.39492295 306.43016262 152.10546875 303.59765625 C147.50456157 299.62728502 143.222179 295.36898399 138.9375 291.0625 C137.7918457 289.92264648 137.7918457 289.92264648 136.62304688 288.75976562 C135.86958984 288.00501953 135.11613281 287.25027344 134.33984375 286.47265625 C133.34005493 285.47117554 133.34005493 285.47117554 132.32006836 284.44946289 C130.53590993 282.56579863 128.86734558 280.66552481 127.19343567 278.68847656 C121.6400854 272.33366702 115.5727188 266.47545109 109.58496094 260.53491211 C108.22895932 259.18575035 106.87321261 257.83633234 105.5177002 256.48667908 C102.61126694 253.59351801 99.70341629 250.70179181 96.79454803 247.81107903 C92.193629 243.2381118 87.59822293 238.65963173 83.00396729 234.07997131 C81.42793572 232.50908265 79.8518973 230.93820086 78.2758522 229.36732578 C77.48699772 228.58105686 76.69814324 227.79478794 75.88538408 226.98469269 C65.19740837 216.33271565 54.5046789 205.68554474 43.80175781 195.04858398 C36.56844668 187.85976214 29.34227349 180.66384769 22.12412095 173.45980459 C18.30820841 169.65196133 14.48866774 165.84792017 10.66027069 162.05262566 C7.06314944 158.48655818 3.47542363 154.9113044 -0.10533142 151.32880592 C-1.41963383 150.01719837 -2.73736835 148.70901951 -4.05878448 147.40457916 C-5.86437267 145.62118589 -7.65714233 143.8257988 -9.44732666 142.02696228 C-9.97076416 141.51585826 -10.49420166 141.00475425 -11.03350091 140.47816223 C-15.57841128 135.86402272 -17.70772447 131.58872613 -18.4375 125.125 C-18 121 -18 121 -14 112 C-21.59 104.41 -29.18 96.82 -37 89 C-41.28701632 92.67458542 -45.2135467 96.10475734 -49.1015625 100.109375 C-50.00390625 101.02847656 -50.90625 101.94757813 -51.8359375 102.89453125 C-53.2378133 104.32978505 -54.63963168 105.76511298 -56.03515625 107.20654297 C-57.40455727 108.61838017 -58.78419689 110.02026366 -60.1640625 111.421875 C-60.97311035 112.25299805 -61.7821582 113.08412109 -62.61572266 113.94042969 C-66.43702082 117.2413176 -69.94761183 118.28885124 -74.9375 118.3125 C-75.75089844 118.32925781 -76.56429687 118.34601563 -77.40234375 118.36328125 C-84.47501986 117.37417015 -88.66169566 112.71768207 -93.375 107.8125 C-94.01566406 107.15830078 -94.65632812 106.50410156 -95.31640625 105.83007812 C-96.88469439 104.22667905 -98.44411798 102.61541167 -100 101 C-95.19002801 95.20957365 -90.02199348 89.88610951 -84.68994141 84.57641602 C-83.77222961 83.6585582 -82.85451782 82.74070038 -81.90899658 81.79502869 C-79.41166478 79.29741188 -76.91127842 76.802874 -74.41030169 74.30890775 C-71.78999074 71.69488002 -69.17254206 69.07798937 -66.55477905 66.46141052 C-61.60583285 61.51556305 -56.65434478 56.5722686 -51.70192182 51.62990278 C-46.06024193 45.99942946 -40.42142683 40.3660908 -34.78284192 34.73251832 C-23.19172962 23.15183737 -11.59705307 11.57473185 0 0 Z " fill="#805333" transform="translate(277,177)"/>
<path d="M0 0 C1.0946759 -0.00571014 2.18935181 -0.01142029 3.31719971 -0.01730347 C5.10408958 -0.01898026 5.10408958 -0.01898026 6.92707825 -0.02069092 C8.1894632 -0.02565582 9.45184814 -0.03062073 10.75248718 -0.03573608 C14.20936336 -0.0488215 17.66622015 -0.05529773 21.12311721 -0.05974674 C23.28661275 -0.06268432 25.45010307 -0.06679045 27.61359596 -0.07125092 C34.39351824 -0.08491703 41.1734285 -0.09458745 47.9533636 -0.09845281 C55.75936971 -0.1029285 63.56520029 -0.12045732 71.37115306 -0.1494534 C77.41807285 -0.17112947 83.46494348 -0.18116027 89.51190168 -0.18249393 C93.11720722 -0.18353792 96.72234756 -0.18935843 100.32761192 -0.20731354 C104.35566586 -0.22698464 108.38335642 -0.22248177 112.41145325 -0.21600342 C113.59259201 -0.2252182 114.77373077 -0.23443298 115.99066162 -0.243927 C126.58965285 -0.19069041 134.79748266 1.41168472 142.57868958 8.89044189 C149.19485482 16.66781166 149.65665131 25.7343157 149.55525208 35.51544189 C149.55074036 36.34688721 149.54622864 37.17833252 149.5415802 38.03497314 C149.52988372 40.07016087 149.51195142 42.10531112 149.49275208 44.14044189 C150.43634583 44.08823486 150.43634583 44.08823486 151.39900208 44.03497314 C158.89797484 43.79780684 164.41825228 44.61251984 170.30525208 49.45294189 C175.88891322 56.31286845 175.95638609 62.14975941 175.86775208 70.70294189 C175.87935364 71.82635986 175.8909552 72.94977783 175.90290833 74.10723877 C175.89904114 75.19198486 175.89517395 76.27673096 175.89118958 77.39434814 C175.88780579 78.37733887 175.884422 79.36032959 175.88093567 80.37310791 C175.42668991 83.61139451 174.40405309 85.50853898 172.49275208 88.14044189 C169.19273702 89.79044942 165.51705356 89.28839855 161.8891449 89.28761292 C160.98779324 89.2912896 160.08644158 89.29496629 159.15777624 89.29875439 C156.11920132 89.30982081 153.08066056 89.31364005 150.04206848 89.31744385 C147.87095022 89.32370616 145.69983304 89.33035275 143.52871704 89.33735657 C137.61760212 89.35478555 131.7064953 89.36532306 125.79536104 89.3735621 C122.10574864 89.3787072 118.41613878 89.38478309 114.72652817 89.39107323 C103.19244392 89.4101288 91.6583661 89.42436033 80.12426913 89.4326852 C66.79130347 89.44246629 53.45853725 89.46880708 40.12563002 89.50918609 C29.83176803 89.53929629 19.53795367 89.55414914 9.24404848 89.55746621 C3.09023791 89.55982213 -3.06339577 89.56885304 -9.21715927 89.59392738 C-15.00375451 89.6171246 -20.79005536 89.62147503 -26.57668495 89.611166 C-28.70359206 89.61066852 -30.83051325 89.61705088 -32.95737648 89.63072205 C-35.85516631 89.64831039 -38.75188455 89.6413994 -41.64967346 89.62818909 C-42.49655743 89.63915833 -43.3434414 89.65012758 -44.21598852 89.66142923 C-47.85436881 89.62122563 -50.04757178 89.4762169 -53.0284977 87.29876995 C-55.06679816 84.32374348 -55.02449183 82.2050664 -55.03849792 78.61700439 C-55.04365417 77.34856689 -55.04881042 76.08012939 -55.05412292 74.77325439 C-55.04574402 74.11486572 -55.03736511 73.45647705 -55.0287323 72.77813721 C-55.00739489 70.77920973 -55.03060642 68.77996992 -55.05412292 66.78106689 C-55.04896667 65.51005127 -55.04381042 64.23903564 -55.03849792 62.92950439 C-55.03398621 61.77144287 -55.02947449 60.61338135 -55.02482605 59.42022705 C-54.23442098 54.41159414 -51.75313585 51.32075677 -48.13224792 47.89044189 C-43.34822691 44.70109455 -39.46682655 44.04331121 -33.79631042 44.09356689 C-32.80582703 44.10033447 -31.81534363 44.10710205 -30.79484558 44.11407471 C-30.03993835 44.12277588 -29.28503113 44.13147705 -28.50724792 44.14044189 C-28.52819519 43.52636475 -28.54914246 42.9122876 -28.57072449 42.27960205 C-28.65492826 39.44172172 -28.70623215 36.60410537 -28.75724792 33.76544189 C-28.79076355 32.79993408 -28.82427917 31.83442627 -28.85881042 30.83966064 C-28.9724949 22.37016758 -26.98604232 15.89404484 -22.31974792 8.82794189 C-15.77826251 2.57718916 -8.9763941 0.02815327 0 0 Z " fill="#805332" transform="translate(54.50724792480469,422.85955810546875)"/>
<path d="M0 0 C0.90621094 -0.02835938 1.81242188 -0.05671875 2.74609375 -0.0859375 C10.63377369 1.20497267 16.12023501 8.70363193 21.4375 14.125 C22.31664062 15.01316406 23.19578125 15.90132812 24.1015625 16.81640625 C26.25982519 18.99812832 28.41326168 21.18439346 30.5625 23.375 C29.29354671 26.15034745 27.99014478 28.19684757 25.83324242 30.35035324 C25.27540042 30.91217733 24.71755843 31.47400142 24.14281213 32.05285048 C23.52997704 32.6598599 22.91714194 33.26686931 22.28573608 33.89227295 C21.63474241 34.54497547 20.98374873 35.197678 20.31302798 35.87015939 C18.12666171 38.05982445 15.93321528 40.24225662 13.73974609 42.42480469 C12.17253905 43.9914477 10.60577204 45.55853102 9.03941345 47.12602234 C4.78173832 51.38427231 0.51791603 55.636319 -3.74701357 59.88730145 C-8.2015569 64.3293593 -12.65045343 68.77706517 -17.09994507 73.22418213 C-24.57025145 80.68897457 -32.04404184 88.15026458 -39.52050781 95.60888672 C-47.22109336 103.29111262 -54.91957433 110.9754375 -62.61523438 118.66259766 C-63.08964122 119.13647906 -63.56404807 119.61036046 -64.05283089 120.09860191 C-66.43279134 122.47595227 -68.81271048 124.85334399 -71.19260907 127.23075628 C-90.93459693 146.95182767 -110.68370925 166.6657516 -130.4375 186.375 C-133.90100834 184.73896153 -136.18925087 182.88081086 -138.9140625 180.1640625 C-139.749375 179.33132812 -140.5846875 178.49859375 -141.4453125 177.640625 C-142.74082031 176.33351562 -142.74082031 176.33351562 -144.0625 175 C-144.93390625 174.13632813 -145.8053125 173.27265625 -146.703125 172.3828125 C-147.53585938 171.5475 -148.36859375 170.7121875 -149.2265625 169.8515625 C-149.98662598 169.08924316 -150.74668945 168.32692383 -151.52978516 167.54150391 C-154.84194941 163.78003147 -155.72906971 160.98140851 -155.75 156 C-155.77513672 154.62714844 -155.77513672 154.62714844 -155.80078125 153.2265625 C-154.98393158 146.81473179 -151.16025142 142.6618041 -146.71951294 138.27606201 C-146.14061306 137.69248216 -145.56171318 137.10890231 -144.96527088 136.50763822 C-143.03094949 134.56138688 -141.08612551 132.62599258 -139.14111328 130.69042969 C-137.74916356 129.29441345 -136.35785256 127.89776011 -134.96713257 126.5005188 C-131.19310693 122.71282482 -127.40966296 118.93467206 -123.6240449 115.15856838 C-119.663398 111.20551897 -115.7100784 107.24515275 -111.75558472 103.28594971 C-105.11474365 96.63965201 -98.46760479 89.99970215 -91.81689453 83.36328125 C-84.12626387 75.68898356 -76.44650946 68.003929 -68.77230275 60.31321025 C-62.18325771 53.71055579 -55.58838991 47.11376005 -48.9886111 40.52183461 C-45.04671507 36.5846172 -41.10687775 32.64539722 -37.17227554 28.70088959 C-33.47398658 24.993941 -29.76844798 21.29439619 -26.05716324 17.60046005 C-24.69564756 16.24291426 -23.33668415 14.88280324 -21.98046112 13.51996994 C-20.13030365 11.66162728 -18.27117355 9.8127527 -16.40945435 7.96600342 C-15.87355025 7.42340716 -15.33764616 6.8808109 -14.78550255 6.32177234 C-10.18500752 1.79286552 -6.41160014 0.09094468 0 0 Z " fill="#CA8151" transform="translate(208.4375,52.625)"/>
<path d="M0 0 C7.66343987 2.16330466 14.60618064 11.96109886 20.03942871 17.44592285 C21.45180804 18.86408935 22.86419032 20.28225292 24.27674103 21.70024872 C27.22629895 24.66283731 30.17124183 27.63001306 33.11700439 30.59637451 C35.55194977 33.04798316 37.98792687 35.49854616 40.42651367 37.9465332 C42.24538485 39.77285714 44.06200523 41.60142646 45.87597656 43.43261719 C50.13927402 47.71279084 54.46669475 51.81393374 59.04742432 55.75018311 C63.42854464 59.64028155 67.53795981 63.82029714 71.68786621 67.95373535 C72.41781485 68.67944292 72.41781485 68.67944292 73.16250992 69.41981125 C75.72864872 71.97109147 78.2920037 74.52512821 80.85290527 77.08166504 C83.48895795 79.71219547 86.1341948 82.3332881 88.78159904 84.95238686 C90.82840523 86.98056232 92.86846572 89.01542172 94.9067421 91.05216599 C95.87945415 92.0218613 96.85465507 92.98906692 97.83242416 93.95366287 C99.19609781 95.30023856 100.54939212 96.65730077 101.90222168 98.01477051 C102.67307098 98.78197418 103.44392029 99.54917786 104.23812866 100.33963013 C106.92461599 103.54708756 108.10275588 106.23314529 108.19567871 110.41467285 C106.6123601 115.16462868 103.5790158 118.0530897 100.13317871 121.60217285 C99.42419434 122.37303223 98.71520996 123.1438916 97.98474121 123.93811035 C90.96754909 131.3492501 84.27383758 136.04212118 73.94567871 136.85217285 C65.81419385 136.31896073 60.77448268 134.39755547 55.13317871 128.60217285 C53.9293552 127.40282623 52.72308625 126.20593144 51.51498413 125.01089478 C50.83931396 124.34100525 50.1636438 123.67111572 49.46749878 122.98092651 C48.37944443 121.90229843 48.37944443 121.90229843 47.26940918 120.80187988 C39.36615413 112.96404608 31.47314902 105.11597018 23.58584404 97.26208687 C18.81746533 92.51435139 14.04537017 87.77046424 9.26452637 83.03527832 C4.63310165 78.44805989 0.0122368 73.85036719 -4.60232162 69.24618149 C-6.36027559 67.49560915 -8.12174228 65.74855693 -9.8867836 64.00513077 C-12.35454653 61.56641684 -14.8094932 59.11545632 -17.26184082 56.66125488 C-17.99125885 55.94621796 -18.72067688 55.23118103 -19.47219849 54.49447632 C-25.85483843 48.05945675 -28.8359218 41.77932107 -28.86682129 32.60217285 C-27.97778926 21.43129215 -20.72279358 13.90684885 -12.86682129 6.60217285 C-12.27771973 5.99760254 -11.68861816 5.39303223 -11.08166504 4.7701416 C-7.68564383 1.46695013 -4.88778809 -0.53284776 0 0 Z " fill="#7F5232" transform="translate(240.8668212890625,5.3978271484375)"/>
<path d="M0 0 C2.84573338 2.54340694 5.54745939 5.22305867 8.25268555 7.91455078 C9.05828918 8.70861832 9.86389282 9.50268585 10.69390869 10.32081604 C13.34723527 12.93993508 15.9926893 15.56680994 18.63671875 18.1953125 C19.54317453 19.09486538 20.44963032 19.99441826 21.38355446 20.92123032 C25.68471014 25.19028003 29.98201948 29.46311023 34.27325982 33.74212182 C39.20931983 38.66392757 44.15984224 43.57055498 49.12333268 48.46469319 C53.43673677 52.71991235 57.73058408 56.99434639 62.01789284 61.27587509 C63.83766956 63.08776705 65.66331012 64.89378986 67.4949398 66.69369888 C70.0586314 69.21588631 72.59921255 71.75937662 75.13549805 74.30908203 C76.26934685 75.40989357 76.26934685 75.40989357 77.42610168 76.53294373 C83.31615848 82.52922588 85.50099174 88.25942152 86.375 96.5625 C85.18614147 107.46036981 79.64277035 114.70966785 72.0625 122.25 C71.15081055 123.18585938 71.15081055 123.18585938 70.22070312 124.140625 C66.22101927 128.14462351 63.0897248 130.93133945 57.1875 131.0625 C48.75982872 128.25327624 41.95924293 119.11960535 35.8125 112.98046875 C34.85993377 112.03112332 33.90729572 111.08184994 32.95458984 110.13264465 C30.97626387 108.16025573 28.99996333 106.18586311 27.02490234 104.21020508 C24.49009133 101.67529143 21.94840764 99.14738734 19.40501404 96.62108898 C17.44400847 94.67116336 15.48752558 92.71674895 13.53231812 90.76101112 C12.14153107 89.37197896 10.74620528 87.98749611 9.35083008 86.60307312 C8.51575928 85.76492569 7.68068848 84.92677826 6.8203125 84.06323242 C6.08055176 83.3248967 5.34079102 82.58656097 4.57861328 81.82585144 C3 80 3 80 3 78 C2.34 78 1.68 78 1 78 C-0.37307739 76.60568237 -0.37307739 76.60568237 -1.99658203 74.63232422 C-6.41569363 69.43949419 -11.21333716 64.67958847 -16.0546875 59.8828125 C-17.00665289 58.93526338 -17.95831774 57.98741224 -18.90969849 57.03927612 C-21.89529357 54.06498998 -24.88486264 51.09471867 -27.875 48.125 C-31.3637848 44.65985667 -34.85090022 41.19306549 -38.33386612 37.7220726 C-39.72394501 36.33846999 -41.11706516 34.95792505 -42.51022339 33.5774231 C-43.34844635 32.74250336 -44.18666931 31.90758362 -45.05029297 31.04736328 C-46.16112747 29.944384 -46.16112747 29.944384 -47.29440308 28.81912231 C-50.0743971 25.85409049 -50.52759609 23.29645465 -50.46875 19.22412109 C-49.52742743 14.75774161 -46.14486256 11.9305089 -43 8.8125 C-42.35160156 8.12736328 -41.70320313 7.44222656 -41.03515625 6.73632812 C-29.62606613 -5.00034973 -14.33748656 -11.01133489 0 0 Z " fill="#7F5232" transform="translate(56,218)"/>
<path d="M0 0 C1.0946759 -0.00571014 2.18935181 -0.01142029 3.31719971 -0.01730347 C5.10408958 -0.01898026 5.10408958 -0.01898026 6.92707825 -0.02069092 C8.1894632 -0.02565582 9.45184814 -0.03062073 10.75248718 -0.03573608 C14.20936336 -0.0488215 17.66622015 -0.05529773 21.12311721 -0.05974674 C23.28661275 -0.06268432 25.45010307 -0.06679045 27.61359596 -0.07125092 C34.39351824 -0.08491703 41.1734285 -0.09458745 47.9533636 -0.09845281 C55.75936971 -0.1029285 63.56520029 -0.12045732 71.37115306 -0.1494534 C77.41807285 -0.17112947 83.46494348 -0.18116027 89.51190168 -0.18249393 C93.11720722 -0.18353792 96.72234756 -0.18935843 100.32761192 -0.20731354 C104.35566586 -0.22698464 108.38335642 -0.22248177 112.41145325 -0.21600342 C113.59259201 -0.2252182 114.77373077 -0.23443298 115.99066162 -0.243927 C126.58965285 -0.19069041 134.79748266 1.41168472 142.57868958 8.89044189 C149.16466725 16.63232585 149.6646355 25.70900254 149.61775208 35.45294189 C149.62161926 36.2760083 149.62548645 37.09907471 149.62947083 37.94708252 C149.61946812 44.01372585 149.61946812 44.01372585 148.49275208 45.14044189 C146.21451462 45.2375326 143.93319785 45.26230793 141.65289307 45.26069641 C140.56742828 45.26197805 140.56742828 45.26197805 139.46003491 45.26328558 C137.01705861 45.26494252 134.57414986 45.25941554 132.13117981 45.25396729 C130.38721213 45.25368543 128.64324434 45.25384311 126.89927673 45.25440979 C122.14947713 45.25469784 117.39970255 45.24879986 112.64990878 45.24183583 C107.69176785 45.23560358 102.73362642 45.2349986 97.77548218 45.23381042 C88.37965379 45.23069673 78.98383698 45.22248282 69.58801371 45.21246094 C58.89412058 45.20130099 48.20022691 45.19578965 37.50632942 45.1907655 C15.50179717 45.18030024 -6.50272465 45.16270006 -28.50724792 45.14044189 C-28.62508074 41.51572332 -28.69503601 37.89150786 -28.75724792 34.26544189 C-28.79076355 33.25223877 -28.82427917 32.23903564 -28.85881042 31.19512939 C-28.96950881 22.56065547 -27.08020002 16.0366265 -22.31974792 8.82794189 C-15.77826251 2.57718916 -8.9763941 0.02815327 0 0 Z " fill="#A46942" transform="translate(54.50724792480469,422.85955810546875)"/>
<path d="M0 0 C1.11339231 0.94983263 2.22614167 1.90041896 3.33862305 2.85131836 C3.95835495 3.38059433 4.57808685 3.9098703 5.21659851 4.45518494 C7.48703776 6.42188104 9.66614899 8.4612562 11.8125 10.5625 C12.93591797 11.64724609 12.93591797 11.64724609 14.08203125 12.75390625 C17.30820191 16.53200834 18.28921202 20.0237354 18.3125 24.9375 C18.32925781 25.75089844 18.34601563 26.56429687 18.36328125 27.40234375 C17.45970039 33.86343272 13.48842177 37.92962174 9.01953125 42.2734375 C8.44667892 42.84204498 7.8738266 43.41065247 7.28361511 43.99649048 C5.46687821 45.7965433 3.63995334 47.58583432 1.8125 49.375 C0.57287765 50.59956227 -0.6660621 51.82481594 -1.90429688 53.05078125 C-4.92835947 56.04191099 -7.96159915 59.02343906 -11 62 C-6.18132753 67.80891746 -0.98743592 73.13065552 4.375 78.4375 C5.20644531 79.26443359 6.03789062 80.09136719 6.89453125 80.94335938 C8.9274104 82.96455531 10.96259963 84.98336335 13 87 C8.03805145 92.99500997 2.6523376 98.46427037 -2.875 103.9375 C-3.75414062 104.81212891 -4.63328125 105.68675781 -5.5390625 106.58789062 C-7.6904346 108.72757048 -9.84411792 110.86486597 -12 113 C-17.80891746 108.18132753 -23.13065552 102.98743592 -28.4375 97.625 C-29.26443359 96.79355469 -30.09136719 95.96210938 -30.94335938 95.10546875 C-32.96455531 93.0725896 -34.98336335 91.03740037 -37 89 C-43.82200048 94.60043015 -49.90051466 100.87010396 -56.03515625 107.20654297 C-57.40455727 108.61838017 -58.78419689 110.02026366 -60.1640625 111.421875 C-60.97311035 112.25299805 -61.7821582 113.08412109 -62.61572266 113.94042969 C-66.43702082 117.2413176 -69.94761183 118.28885124 -74.9375 118.3125 C-75.75089844 118.32925781 -76.56429687 118.34601563 -77.40234375 118.36328125 C-84.47501986 117.37417015 -88.66169566 112.71768207 -93.375 107.8125 C-94.01566406 107.15830078 -94.65632812 106.50410156 -95.31640625 105.83007812 C-96.88469439 104.22667905 -98.44411798 102.61541167 -100 101 C-95.19002801 95.20957365 -90.02199348 89.88610951 -84.68994141 84.57641602 C-83.77222961 83.6585582 -82.85451782 82.74070038 -81.90899658 81.79502869 C-79.41166478 79.29741188 -76.91127842 76.802874 -74.41030169 74.30890775 C-71.78999074 71.69488002 -69.17254206 69.07798937 -66.55477905 66.46141052 C-61.60583285 61.51556305 -56.65434478 56.5722686 -51.70192182 51.62990278 C-46.06024193 45.99942946 -40.42142683 40.3660908 -34.78284192 34.73251832 C-23.19172962 23.15183737 -11.59705307 11.57473185 0 0 Z " fill="#7F5232" transform="translate(277,177)"/>
<path d="M0 0 C5.41993157 4.5475943 10.57372076 9.2968905 15.625 14.25 C16.36234375 14.94996094 17.0996875 15.64992188 17.859375 16.37109375 C25.92003583 24.30174392 30.21188901 32.69713912 30.3125 44.0625 C30.33262304 54.67740522 27.52965984 63.23660349 20 71 C10.05983939 79.13285868 0.52005054 80.99845224 -12.03076172 80.19824219 C-21.5117999 79.24379103 -27.52476336 73.46904024 -34 67 C-34.6276123 66.37931641 -35.25522461 65.75863281 -35.90185547 65.11914062 C-40.29501722 60.77276994 -44.65855325 56.39799866 -49 52 C-47.47402977 48.39094754 -45.33700347 46.10030294 -42.56616211 43.35498047 C-41.64858627 42.44078339 -40.73101044 41.5265863 -39.78562927 40.58468628 C-38.7828988 39.59548822 -37.7801362 38.60632273 -36.77734375 37.6171875 C-35.75075843 36.59687526 -34.72468834 35.57604438 -33.69911194 34.55471802 C-31.00266562 31.87155517 -28.30070402 29.1940218 -25.59710693 26.51806641 C-21.26496505 22.22910096 -16.93957724 17.93334977 -12.61737251 13.63437271 C-11.1057499 12.13298594 -9.59076815 10.63505022 -8.07542419 9.13742065 C-7.16100052 8.22952789 -6.24657684 7.32163513 -5.30444336 6.38623047 C-4.49551132 5.58555145 -3.68657928 4.78487244 -2.85313416 3.95993042 C-0.94500298 2.13129222 -0.94500298 2.13129222 0 0 Z " fill="#603E26" transform="translate(482,432)"/>
<path d="M0 0 C3.19694268 1.95926089 5.68613588 4.406803 8.27270508 7.09899902 C8.81628662 7.64824036 9.35986816 8.19748169 9.91992188 8.7633667 C11.63059201 10.49618203 13.32671044 12.24245506 15.02270508 13.98962402 C16.1897342 15.1767464 17.35769533 16.3629533 18.52661133 17.54821777 C21.36951272 20.43489573 24.19946387 23.33372035 27.02270508 26.23962402 C25.48314374 29.89843579 23.2818145 32.22254192 20.48120117 35.00817871 C20.0224913 35.46718063 19.56378143 35.92618256 19.09117126 36.39909363 C17.58085598 37.90802077 16.0635912 39.40974857 14.54614258 40.91149902 C13.49481338 41.95909627 12.44392623 43.00713731 11.39346313 44.05560303 C8.63269492 46.80874922 5.86597259 49.55583529 3.09796143 52.30169678 C0.2723758 55.10679318 -2.54752937 57.91758723 -5.36791992 60.72790527 C-10.89883867 66.23739935 -16.43606081 71.74050279 -21.97729492 77.23962402 C-25.82108837 75.45037925 -28.53227772 73.00717679 -31.51245117 70.04040527 C-32.03238144 69.52713181 -32.55231171 69.01385834 -33.08799744 68.48503113 C-34.18401255 67.39911848 -35.27734946 66.31049687 -36.36816406 65.21936035 C-38.02734678 63.56453944 -39.7018337 61.92636762 -41.37768555 60.28845215 C-42.44442095 59.2275879 -43.51020761 58.16576863 -44.57495117 57.10290527 C-45.0718898 56.62033768 -45.56882843 56.13777008 -46.08082581 55.64057922 C-50.61661556 51.04507137 -52.69909562 46.7434177 -53.41479492 40.30212402 C-53.15614479 34.94289339 -51.21384839 30.37409957 -47.30834961 26.64685059 C-46.67832031 26.12574707 -46.04829102 25.60464355 -45.39916992 25.06774902 C-40.59259239 20.96850307 -36.16795639 16.54089265 -31.72729492 12.05212402 C-30.54393555 10.86199707 -30.54393555 10.86199707 -29.33666992 9.64782715 C-27.87553113 8.17804987 -26.41543169 6.70723798 -24.95678711 5.23498535 C-24.30355469 4.57651611 -23.65032227 3.91804688 -22.97729492 3.23962402 C-21.9317041 2.16200806 -21.9317041 2.16200806 -20.86499023 1.06262207 C-14.68667816 -4.90393978 -6.9368875 -3.63328227 0 0 Z " fill="#F1D35A" transform="translate(311.977294921875,261.7603759765625)"/>
<path d="M0 0 C5.40589123 2.5399677 9.13083287 6.72140161 13.32885742 10.90332031 C14.81315947 12.37565416 16.31510259 13.8283063 17.81835938 15.28125 C18.75099609 16.20679688 19.68363281 17.13234375 20.64453125 18.0859375 C21.50409424 18.9320459 22.36365723 19.7781543 23.24926758 20.64990234 C25 23 25 23 24.89190674 24.84310913 C23.64970858 27.84710691 21.78641926 29.5722211 19.48022461 31.86035156 C19.0119072 32.32910706 18.54358978 32.79786255 18.06108093 33.28082275 C16.51517453 34.82464325 14.95892317 36.3575726 13.40234375 37.890625 C12.32694816 38.96042394 11.25221408 40.03088824 10.17811584 41.10198975 C7.35210651 43.91655581 4.51720358 46.72199579 1.68035889 49.52563477 C-1.21395852 52.38924028 -4.09978076 55.26137861 -6.98632812 58.1328125 C-12.64926883 63.76359817 -18.32163273 69.38477183 -24 75 C-27.81249879 73.2241334 -30.23349496 70.99634812 -33.203125 67.9921875 C-33.6857782 67.50670441 -34.1684314 67.02122131 -34.66571045 66.52102661 C-36.19858562 64.97700134 -37.72434004 63.42615176 -39.25 61.875 C-40.29120361 60.82375991 -41.33286541 59.77297343 -42.375 58.72265625 C-44.92199464 56.15366996 -47.46265177 53.57851839 -50 51 C-44.93499762 44.8758184 -39.4217079 39.29284139 -33.7890625 33.69140625 C-32.81092733 32.71514014 -31.83301565 31.73865006 -30.85531616 30.76194763 C-28.30285601 28.21327423 -25.74740552 25.66762042 -23.19128418 23.12261963 C-20.57490086 20.51653382 -17.96140697 17.90755379 -15.34765625 15.29882812 C-10.23456754 10.19640882 -5.11831088 5.09718143 0 0 Z " fill="#BCC1C5" transform="translate(457,408)"/>
<path d="M0 0 C3.86328627 1.5847358 6.28876923 4.05956887 9.203125 7.0078125 C9.6857782 7.49329559 10.1684314 7.97877869 10.66571045 8.47897339 C12.19858562 10.02299866 13.72434004 11.57384824 15.25 13.125 C16.29120361 14.17624009 17.33286541 15.22702657 18.375 16.27734375 C20.92199464 18.84633004 23.46265177 21.42148161 26 24 C21.03805145 29.99500997 15.6523376 35.46427037 10.125 40.9375 C9.24585938 41.81212891 8.36671875 42.68675781 7.4609375 43.58789062 C5.3095654 45.72757048 3.15588208 47.86486597 1 50 C-4.80891746 45.18132753 -10.13065552 39.98743592 -15.4375 34.625 C-16.67790039 33.37783203 -16.67790039 33.37783203 -17.94335938 32.10546875 C-19.96455531 30.0725896 -21.98336335 28.03740037 -24 26 C-22.4152642 22.13671373 -19.94043113 19.71123077 -16.9921875 16.796875 C-16.50670441 16.3142218 -16.02122131 15.8315686 -15.52102661 15.33428955 C-13.97700134 13.80141438 -12.42615176 12.27565996 -10.875 10.75 C-9.82375991 9.70879639 -8.77297343 8.66713459 -7.72265625 7.625 C-5.15366996 5.07800536 -2.57851839 2.53734823 0 0 Z " fill="#603E26" transform="translate(264,240)"/>
<path d="M0 0 C3 2 3 2 5 5 C5.66841642 8.39778345 5.91873265 9.8182759 5 13 C0.43231755 19.63377384 -6.02377549 25.21002382 -11.70776367 30.89306641 C-13.20066182 32.38818136 -14.68533392 33.89116956 -16.16992188 35.39453125 C-17.12711532 36.35465427 -18.08478056 37.31430722 -19.04296875 38.2734375 C-19.89914795 39.13372559 -20.75532715 39.99401367 -21.63745117 40.88037109 C-25.0962098 43.98349628 -26.81849491 45.04219661 -31.5 44.875 C-35.39257014 43.90185747 -36.74897767 43.28995572 -39 40 C-39.99076954 36.36717837 -40.53990849 34.12789833 -38.88696289 30.67480469 C-36.51427704 27.31147875 -33.79409843 24.52670626 -30.87109375 21.640625 C-30.28078873 21.0507782 -29.6904837 20.4609314 -29.08229065 19.85321045 C-27.83986248 18.61379137 -26.59501677 17.37679149 -25.34790039 16.14208984 C-23.43509465 14.2476177 -21.53048928 12.34518767 -19.62695312 10.44140625 C-18.41713887 9.23650485 -17.20686822 8.0320615 -15.99609375 6.828125 C-15.42523544 6.25837952 -14.85437714 5.68863403 -14.26622009 5.10162354 C-9.68623323 0.57669263 -6.55400248 -1.0777136 0 0 Z " fill="#F3D45B" transform="translate(260,353)"/>
<path d="M0 0 C0.86785126 -0.01283524 1.73570251 -0.02567047 2.62985229 -0.03889465 C3.5694278 -0.04628159 4.5090033 -0.05366852 5.47705078 -0.0612793 C6.44136017 -0.06935104 7.40566956 -0.07742279 8.39920044 -0.08573914 C10.44189656 -0.09958285 12.48461584 -0.11030371 14.52734375 -0.11816406 C17.6529511 -0.13539106 20.77750469 -0.17927626 23.90283203 -0.22338867 C25.88589716 -0.23351422 27.86897129 -0.24203075 29.85205078 -0.2487793 C31.25534134 -0.27504143 31.25534134 -0.27504143 32.6869812 -0.30183411 C39.18222613 -0.28009624 39.18222613 -0.28009624 42.35644531 2.07861328 C44.81108439 5.65326981 45.301375 7.8089004 44.79736328 12.17700195 C41.44213705 17.73861669 41.44213705 17.73861669 37.67822266 18.74182129 C35.05460635 18.97229204 32.4934457 19.00860817 29.85986328 18.97387695 C28.42332397 18.98248749 28.42332397 18.98248749 26.95776367 18.99127197 C24.93715036 18.99534679 22.91645758 18.98433141 20.89599609 18.95922852 C17.80663331 18.92709836 14.72250125 18.95893318 11.63330078 18.99731445 C9.66714342 18.99334946 7.70098932 18.9856618 5.73486328 18.97387695 C4.81390869 18.98602234 3.8929541 18.99816772 2.9440918 19.01068115 C-3.27242043 18.87466417 -3.27242043 18.87466417 -5.91113281 16.89562988 C-8.12191522 14.37167284 -9.16132821 12.43001655 -9.70263672 9.11450195 C-9.14243786 5.82333365 -8.18637188 3.84741467 -6.20263672 1.17700195 C-3.90450918 0.02793818 -2.55703925 0.03289819 0 0 Z " fill="#F3D55A" transform="translate(238.20263671875,405.822998046875)"/>
<path d="M0 0 C4.63235294 2.26470588 4.63235294 2.26470588 6 5 C6.11912689 6.39223538 6.17963778 7.78974803 6.20874023 9.18676758 C6.23767616 10.48370293 6.23767616 10.48370293 6.26719666 11.80683899 C6.32490836 15.76286683 6.3742104 19.71871244 6.4050293 23.67504883 C6.42662259 25.76148008 6.46074106 27.84782043 6.50756836 29.93383789 C6.57449006 32.94198046 6.60201455 35.94824981 6.62109375 38.95703125 C6.64892441 39.887397 6.67675507 40.81776276 6.70542908 41.77632141 C6.68542487 48.07844507 6.68542487 48.07844507 4.72756958 50.71078491 C2.25474128 52.86873232 0.2118471 53.95586519 -3 54.625 C-6.94939345 53.8022097 -9.59720285 52.20531557 -12 49 C-12.86436855 45.67282614 -12.79476957 42.44923921 -12.7265625 39.02734375 C-12.72755951 38.06727921 -12.72855652 37.10721466 -12.72958374 36.11805725 C-12.72491238 34.09318745 -12.70551394 32.06830498 -12.67236328 30.04370117 C-12.62510056 26.94409485 -12.63125344 23.84792285 -12.64453125 20.74804688 C-12.63337907 18.77862533 -12.61916014 16.80921825 -12.6015625 14.83984375 C-12.60338531 13.91372787 -12.60520813 12.987612 -12.60708618 12.03343201 C-12.46568496 5.62148791 -12.46568496 5.62148791 -10.08740234 2.44750977 C-6.52097912 -0.02562746 -4.35833358 -0.34183008 0 0 Z " fill="#F3D55A" transform="translate(206,335)"/>
</svg>
