<?xml version="1.0" encoding="UTF-8"?>
<svg version="1.1" xmlns="http://www.w3.org/2000/svg" width="512" height="512">
<path d="M0 0 C20.92707399 -0.84128941 40.47540406 7.33679287 56.23046875 20.6953125 C69.55405168 33.00302107 78.18979575 50.04098937 79.89453125 68.15625 C80.06437014 72.81336319 80.08239897 77.46901868 80.09765625 82.12890625 C80.10189732 83.13564298 80.10189732 83.13564298 80.10622406 84.16271782 C80.12115838 87.71907815 80.13042249 91.27539857 80.13476562 94.83178711 C80.14022266 98.46354284 80.16420808 102.09491845 80.19273758 105.72655582 C80.21157513 108.55540452 80.21658075 111.38416578 80.2181015 114.21307182 C80.22251405 116.19019324 80.24105735 118.16726745 80.2600708 120.14430237 C80.23231119 131.59239418 78.77533866 143.02611282 73.39453125 153.28125 C73.05268799 153.94374756 72.71084473 154.60624512 72.35864258 155.28881836 C64.28840774 170.15315643 51.71012638 177.8381396 36.89453125 185.15625 C37.89697876 185.32846069 37.89697876 185.32846069 38.91967773 185.50415039 C66.5225124 190.35128109 86.10423993 198.70628231 105.89453125 219.15625 C105.93191406 218.32480469 105.96929687 217.49335938 106.0078125 216.63671875 C106.10642578 215.00669922 106.10642578 215.00669922 106.20703125 213.34375 C106.26503906 212.26480469 106.32304687 211.18585938 106.3828125 210.07421875 C106.89453125 207.15625 106.89453125 207.15625 107.92118835 205.49726582 C111.0369356 203.37991138 114.34139523 203.74776097 117.97973633 203.7820282 C119.22997322 203.77606659 119.22997322 203.77606659 120.50546741 203.76998454 C123.30850407 203.76033217 126.11103971 203.77219733 128.9140625 203.78393555 C130.91946603 203.78150855 132.92486836 203.77779013 134.93026733 203.77287292 C140.38472692 203.76344768 145.83900758 203.77290311 151.29345322 203.78620505 C156.99356879 203.79749932 162.69367529 203.79341361 168.39379883 203.79145813 C177.96731499 203.79057451 187.54076043 203.80166971 197.11425781 203.82006836 C208.19272002 203.84123699 219.27107859 203.84474625 230.34955692 203.8385064 C240.99358048 203.8328175 251.63756742 203.83845281 262.28158569 203.84967995 C266.8174202 203.85433222 271.35323236 203.85519707 275.8890686 203.8530941 C281.22748705 203.85121451 286.56579958 203.85928976 291.90419388 203.8751545 C293.86702664 203.87940767 295.82987013 203.880241 297.79270554 203.87746429 C300.4650298 203.87425667 303.13703475 203.88328834 305.80932617 203.89555359 C306.59229474 203.89177427 307.37526331 203.88799494 308.1819582 203.88410109 C311.96120046 203.91493944 313.66981782 204.00644105 316.89453125 206.15625 C317.26367474 208.44822121 317.26367474 208.44822121 317.2552948 211.37002563 C317.26148079 213.0275309 317.26148079 213.0275309 317.26779175 214.71852112 C317.25161301 216.54515541 317.25161301 216.54515541 317.23510742 218.40869141 C317.2355455 219.6867012 317.23598358 220.964711 317.23643494 222.28144836 C317.23729774 225.79167427 317.21962628 229.30159433 317.19871306 232.81174898 C317.17999351 236.47794843 317.17819956 240.14415443 317.17463684 243.81039429 C317.16530244 250.75546669 317.14066991 257.70039789 317.11058837 264.64540803 C317.07708764 272.55096727 317.06056927 280.45653315 317.04550207 288.36214566 C317.01412147 304.62693218 316.96073165 320.89156752 316.89453125 337.15625 C320.52453125 337.15625 324.15453125 337.15625 327.89453125 337.15625 C327.97573876 340.05265118 328.03512546 342.94675912 328.08203125 345.84375 C328.11973633 347.06868164 328.11973633 347.06868164 328.15820312 348.31835938 C328.21600526 353.07740215 328.12446982 356.37981423 324.89453125 360.15625 C320.54256753 363.54077585 316.47568844 363.58060146 311.17140198 363.53720093 C309.85439825 363.54422089 309.85439825 363.54422089 308.51078838 363.55138266 C305.5689689 363.56334789 302.62761395 363.55386935 299.68579102 363.54443359 C297.57658618 363.54849864 295.46738348 363.55384014 293.35818481 363.56036377 C287.6288689 363.57405191 281.89971487 363.56873225 276.17039609 363.55922651 C270.17673888 363.55163672 264.18309562 363.55867373 258.18943787 363.56338501 C248.12260446 363.56884496 238.05583706 363.56164508 227.98901367 363.54736328 C216.34932397 363.53104078 204.70979196 363.53632147 193.07010609 363.5528425 C183.0793223 363.5664558 173.08858598 363.56837764 163.0977959 363.56052649 C157.12957388 363.55584857 151.16142596 363.55522838 145.19320869 363.56513596 C139.58140431 363.57380085 133.9698032 363.56779223 128.35802078 363.55045319 C126.29807943 363.54648563 124.23812097 363.54762696 122.17818642 363.55424118 C119.36677455 363.56243611 116.55601448 363.55215965 113.74464417 363.53720093 C112.92897793 363.54389309 112.11331169 363.55058526 111.2729283 363.55748022 C106.42932043 363.50747616 103.09368402 362.83566727 98.89453125 360.15625 C98.56453125 359.49625 98.23453125 358.83625 97.89453125 358.15625 C96.83323942 358.15478344 95.77194759 358.15331688 94.67849541 358.15180588 C68.86460393 358.1152241 43.05084233 358.05579183 17.23705864 357.97234726 C4.75374 357.93252418 -7.7295153 357.90014827 -20.21289062 357.88525391 C-31.09237162 357.87225437 -41.97171344 357.84533308 -52.85111606 357.80163693 C-58.61262931 357.77898403 -64.37397065 357.76334162 -70.13553238 357.76436615 C-75.55775587 357.76511049 -80.9795988 357.74725039 -86.40172386 357.71508217 C-88.3923068 357.70655892 -90.3829323 357.70484962 -92.37352562 357.71044731 C-95.09127034 357.71707218 -97.80779889 357.69920306 -100.52542114 357.67523193 C-101.70734502 357.68687256 -101.70734502 357.68687256 -102.91314614 357.69874835 C-108.08436297 357.61798815 -110.98014741 356.52768581 -115.10546875 353.15625 C-119.43880793 348.23732445 -120.25806538 345.34248528 -120.2824707 338.93115234 C-120.2923275 337.81346718 -120.2923275 337.81346718 -120.30238342 336.67320251 C-120.32215611 334.19619644 -120.33379777 331.71925161 -120.34375 329.2421875 C-120.34782553 328.39241962 -120.35190105 327.54265175 -120.35610008 326.66713333 C-120.3769937 322.15537 -120.39127203 317.64363723 -120.40063477 313.13183594 C-120.4116091 308.51023213 -120.44589336 303.8891219 -120.48580647 299.26769066 C-120.51221365 295.68471505 -120.52034849 292.10185169 -120.52391624 288.51878738 C-120.5287331 286.81825107 -120.54020356 285.11771805 -120.55895424 283.41727829 C-120.84542255 255.67755026 -110.54292622 232.35156903 -91.54296875 212.15625 C-74.19722278 195.26207781 -52.51817565 188.78521957 -29.10546875 185.15625 C-31.91172745 183.28541087 -34.61853723 181.9545831 -37.66796875 180.53125 C-53.14107799 172.80402777 -63.13276544 160.59808863 -69.10546875 144.453125 C-72.07619622 135.14103698 -72.27347643 125.98656528 -72.30859375 116.28515625 C-72.31429382 115.04942368 -72.3199939 113.8136911 -72.3258667 112.54051208 C-72.33528718 109.92911629 -72.3418389 107.31770876 -72.34570312 104.70629883 C-72.35536047 100.76296507 -72.38639346 96.82016375 -72.41796875 92.87695312 C-72.52938498 66.5137658 -69.60559535 42.58975232 -50.61328125 22.53515625 C-36.46595755 9.11503143 -19.42660058 1.44167722 0 0 Z " fill="#E96A94" transform="translate(121.10546875,133.84375)"/>
<path d="M0 0 C1.33476883 -0.01073296 1.33476883 -0.01073296 2.69650269 -0.02168274 C3.66020279 -0.02437164 4.62390289 -0.02706055 5.61680603 -0.02983093 C7.15443604 -0.03968773 7.15443604 -0.03968773 8.72312927 -0.04974365 C12.11208679 -0.06943576 15.50100001 -0.08113168 18.88999939 -0.09111023 C20.63138089 -0.09722352 20.63138089 -0.09722352 22.40794182 -0.10346031 C28.55552364 -0.12430601 34.70308325 -0.13861291 40.85069275 -0.147995 C47.17982929 -0.15904185 53.50861258 -0.19342664 59.83762455 -0.23316669 C64.72176742 -0.25939617 69.60582701 -0.26769259 74.4900341 -0.27127647 C76.82186195 -0.27612788 79.15368643 -0.28770026 81.48544502 -0.30631447 C110.91848999 -0.52662747 110.91848999 -0.52662747 122.21812439 10.51826477 C131.21467977 21.27258408 131.57233385 32.39163147 131.58531189 45.75654602 C131.58864029 46.95974487 131.59196869 48.16294373 131.59539795 49.40260315 C131.6004448 51.94082763 131.60280697 54.47905871 131.60264587 57.01728821 C131.60482809 60.87059139 131.62299644 64.72360605 131.64195251 68.57685852 C131.64488787 71.05342005 131.64687172 73.52998293 131.64781189 76.00654602 C131.65499741 77.1444458 131.66218292 78.28234558 131.66958618 79.45472717 C131.63332726 92.35293371 130.46465622 103.26809352 121.59703064 113.18232727 C115.25069013 119.23319039 107.98886195 121.88007694 99.41734314 123.14717102 C101.56225903 126.06451334 103.70848304 128.98089113 105.85484314 131.89717102 C106.48922302 132.7601178 107.12360291 133.62306458 107.77720642 134.51216125 C110.611864 138.36299649 113.45013879 142.20908961 116.35093689 146.01045227 C116.76996277 146.56055969 117.18898865 147.11066711 117.62071228 147.67744446 C118.72346344 149.11959205 119.83193512 150.55736026 120.94078064 151.99482727 C122.41734314 154.14717102 122.41734314 154.14717102 122.41734314 156.14717102 C117.47021131 154.61607795 112.86445734 152.62001369 108.17515564 150.45185852 C107.40678375 150.0995517 106.63841187 149.74724487 105.84675598 149.38426208 C103.41060913 148.2664612 100.97645886 147.14438695 98.54234314 146.02217102 C96.88361933 145.26016846 95.22476647 144.49844673 93.56578064 143.73701477 C89.51480089 141.87698017 85.46560533 140.01311239 81.41734314 138.14717102 C81.3975238 138.9575885 81.37770447 139.76800598 81.35728455 140.60298157 C81.2781091 143.67660736 81.1913981 146.74991279 81.09996033 149.82319641 C81.04389069 151.78064457 80.99612392 153.73832503 80.94859314 155.69599915 C80.45720702 171.78889467 79.02322585 184.99007436 67.65953064 197.10420227 C55.91216239 207.8078148 42.50992571 208.34364321 27.44468689 207.83076477 C-3.80958557 207.10942198 -28.598735 208.59192488 -56.2481842 224.71260071 C-62.77839834 228.46635631 -69.67786683 231.42719436 -76.56639099 234.45326233 C-79.25522781 235.63855019 -81.93157188 236.85012552 -84.60623169 238.06700134 C-86.42111579 238.89261892 -88.23867272 239.71235304 -90.05628967 240.53193665 C-92.48202623 241.64303281 -94.88875664 242.77073295 -97.28871155 243.9342804 C-98.45563538 244.49437805 -99.6225592 245.05447571 -100.82484436 245.63154602 C-102.38114563 246.39289856 -102.38114563 246.39289856 -103.96888733 247.16963196 C-106.58265686 248.14717102 -106.58265686 248.14717102 -109.58265686 247.14717102 C-99.99684416 234.08597042 -90.32484515 221.09212945 -80.58265686 208.14717102 C-81.38074768 208.03542542 -82.1788385 207.92367981 -83.00111389 207.80854797 C-94.01474362 206.14470857 -103.96168625 202.12736879 -111.13343811 193.22138977 C-119.57727394 181.42516255 -120.19799282 170.14220617 -120.14906311 156.15498352 C-120.15430973 154.31854439 -120.16058997 152.48210795 -120.16784668 150.64567566 C-120.17820769 146.81124624 -120.17375245 142.9771889 -120.15907288 139.14277649 C-120.1419041 134.26196905 -120.16537942 129.38234108 -120.20056248 124.50166512 C-120.2226686 120.71287945 -120.22106306 116.92437018 -120.21279716 113.13554001 C-120.21198462 111.33764732 -120.21871269 109.53973289 -120.23356819 107.7419014 C-120.33639715 93.04641652 -118.78754534 81.31828475 -107.96937561 70.30342102 C-97.70303111 61.02842566 -87.66133581 58.66341098 -74.01234436 58.85420227 C-72.268983 58.86056953 -72.268983 58.86056953 -70.49040222 58.86706543 C-66.81257533 58.88373176 -63.1353155 58.92136208 -59.45765686 58.95967102 C-56.94985233 58.9747334 -54.44203912 58.98841907 -51.93421936 59.00068665 C-45.81684146 59.03359576 -39.69978969 59.08367386 -33.58265686 59.14717102 C-33.59836731 58.36180969 -33.61407776 57.57644836 -33.63026428 56.76728821 C-33.69334989 53.14399166 -33.73187897 49.52081129 -33.77015686 45.89717102 C-33.79529358 44.66224915 -33.8204303 43.42732727 -33.84632874 42.15498352 C-33.93845021 30.48626381 -32.92612853 19.86647475 -24.58265686 11.14717102 C-17.44623926 3.95273376 -10.33077221 0.05742055 0 0 Z " fill="#EA6A95" transform="translate(380.58265686035156,14.852828979492188)"/>
<path d="M0 0 C0.83349126 -0.00397441 1.66698252 -0.00794881 2.52573109 -0.01204365 C5.32876774 -0.02169603 8.13130338 -0.00983087 10.93432617 0.00190735 C12.9397297 -0.00051965 14.94513203 -0.00423807 16.95053101 -0.00915527 C22.40499059 -0.01858052 27.85927125 -0.00912509 33.31371689 0.00417686 C39.01383246 0.01547112 44.71393896 0.01138542 50.4140625 0.00942993 C59.98757866 0.00854631 69.5610241 0.01964151 79.13452148 0.03804016 C90.21298369 0.0592088 101.29134226 0.06271806 112.36982059 0.0564782 C123.01384415 0.0507893 133.65783109 0.05642461 144.30184937 0.06765175 C148.83768387 0.07230402 153.37349603 0.07316887 157.90933228 0.0710659 C163.24775072 0.06918631 168.58606325 0.07726156 173.92445755 0.0931263 C175.88729031 0.09737947 177.8501338 0.0982128 179.81296921 0.0954361 C182.48529347 0.09222847 185.15729842 0.10126014 187.82958984 0.11352539 C188.61255841 0.10974607 189.39552698 0.10596674 190.20222187 0.10207289 C193.98146413 0.13291125 195.69008149 0.22441285 198.91479492 2.3742218 C199.28393841 4.66619301 199.28393841 4.66619301 199.27555847 7.58799744 C199.28174446 9.2455027 199.28174446 9.2455027 199.28805542 10.93649292 C199.27726959 12.15424911 199.26648376 13.37200531 199.25537109 14.62666321 C199.25580917 15.904673 199.25624725 17.1826828 199.25669861 18.49942017 C199.25756141 22.00964607 199.23988995 25.51956613 199.21897674 29.02972078 C199.20025718 32.69592023 199.19846324 36.36212623 199.19490051 40.02836609 C199.18556611 46.9734385 199.16093358 53.91836969 199.13085204 60.86337984 C199.09735131 68.76893907 199.08083294 76.67450495 199.06576574 84.58011746 C199.03438514 100.84490398 198.98099532 117.10953933 198.91479492 133.3742218 C202.54479492 133.3742218 206.17479492 133.3742218 209.91479492 133.3742218 C209.99600243 136.27062298 210.05538913 139.16473092 210.10229492 142.0617218 C210.12743164 142.8783429 210.15256836 143.69496399 210.1784668 144.53633118 C210.23626894 149.29537395 210.14473349 152.59778603 206.91479492 156.3742218 C202.5628312 159.75874765 198.49595211 159.79857326 193.19166565 159.75517273 C192.31366316 159.7598527 191.43566068 159.76453267 190.53105205 159.76935446 C187.58923258 159.7813197 184.64787762 159.77184116 181.70605469 159.7624054 C179.59684985 159.76647044 177.48764715 159.77181194 175.37844849 159.77833557 C169.64913257 159.79202372 163.91997854 159.78670405 158.19065976 159.77719831 C152.19700255 159.76960852 146.20335929 159.77664553 140.20970154 159.78135681 C130.14286814 159.78681676 120.07610073 159.77961688 110.00927734 159.76533508 C98.36958765 159.74901258 86.73005563 159.75429327 75.09036976 159.7708143 C65.09958597 159.7844276 55.10884965 159.78634944 45.11805958 159.77849829 C39.14983755 159.77382037 33.18168964 159.77320018 27.21347237 159.78310776 C21.60166798 159.79177266 15.99006687 159.78576403 10.37828445 159.76842499 C8.3183431 159.76445744 6.25838465 159.76559877 4.19845009 159.77221298 C1.38703822 159.78040791 -1.42372184 159.77013146 -4.23509216 159.75517273 C-5.0507584 159.76186489 -5.86642464 159.76855706 -6.70680803 159.77545202 C-11.55909243 159.72535839 -14.86749386 159.03273878 -19.08520508 156.3742218 C-21.04799881 153.61322997 -21.32823524 151.38633292 -21.28051758 148.0460968 C-21.27407227 147.24687805 -21.26762695 146.4476593 -21.26098633 145.6242218 C-21.23584961 144.3867218 -21.23584961 144.3867218 -21.21020508 143.1242218 C-21.20118164 142.28375305 -21.1921582 141.4432843 -21.18286133 140.5773468 C-21.15936325 138.50951576 -21.12349415 136.44183186 -21.08520508 134.3742218 C-17.45520508 134.3742218 -13.82520508 134.3742218 -10.08520508 134.3742218 C-10.10439499 132.73970566 -10.1235849 131.10518951 -10.14335632 129.42114258 C-10.32192598 114.0438407 -10.48485596 98.6664571 -10.63179302 83.28882122 C-10.70774453 75.38236128 -10.78936786 67.47603541 -10.88427734 59.56977844 C-10.96697187 52.67987281 -11.03909216 45.78995219 -11.09843761 38.89980441 C-11.13024146 35.25042007 -11.16739182 31.60126459 -11.21719933 27.95207787 C-11.27256063 23.88148815 -11.30431503 19.81104661 -11.33398438 15.7401886 C-11.35412094 14.52602768 -11.37425751 13.31186676 -11.39500427 12.06091309 C-11.39929443 10.95453491 -11.40358459 9.84815674 -11.40800476 8.70825195 C-11.41814448 7.74497828 -11.42828421 6.78170462 -11.43873119 5.78924084 C-11.08520508 3.3742218 -11.08520508 3.3742218 -10.07035542 1.56423378 C-6.89981725 -0.33636706 -3.58980878 -0.03381013 0 0 Z " fill="#A4C011" transform="translate(239.085205078125,337.6257781982422)"/>
<path d="M0 0 C20.92707399 -0.84128941 40.47540406 7.33679287 56.23046875 20.6953125 C69.55405168 33.00302107 78.18979575 50.04098937 79.89453125 68.15625 C80.06437014 72.81336319 80.08239897 77.46901868 80.09765625 82.12890625 C80.10189732 83.13564298 80.10189732 83.13564298 80.10622406 84.16271782 C80.12115838 87.71907815 80.13042249 91.27539857 80.13476562 94.83178711 C80.14022266 98.46354284 80.16420808 102.09491845 80.19273758 105.72655582 C80.21157513 108.55540452 80.21658075 111.38416578 80.2181015 114.21307182 C80.22251405 116.19019324 80.24105735 118.16726745 80.2600708 120.14430237 C80.23231119 131.59239418 78.77533866 143.02611282 73.39453125 153.28125 C73.05268799 153.94374756 72.71084473 154.60624512 72.35864258 155.28881836 C66.41032966 166.24484826 57.90698635 174.28949564 46.89453125 180.15625 C46.11078125 180.57648438 45.32703125 180.99671875 44.51953125 181.4296875 C39.33065354 183.97007555 34.6136564 184.64696014 28.89453125 185.15625 C28.17792877 180.26391336 27.46598817 175.37092912 26.75830078 170.47729492 C26.51705908 168.81369861 26.27455938 167.15028421 26.03076172 165.48706055 C25.67993121 163.09210531 25.33367591 160.69652571 24.98828125 158.30078125 C24.87891235 157.5610054 24.76954346 156.82122955 24.65686035 156.05903625 C23.61635009 148.77938992 23.61635009 148.77938992 23.89453125 145.15625 C25.36328125 143.63671875 25.36328125 143.63671875 27.39453125 142.34375 C43.91417591 130.82653295 51.49913361 113.30489031 55.4140625 94.0546875 C56.02843251 89.06979909 55.99205105 84.17139109 55.89453125 79.15625 C54.72172607 78.83462891 53.5489209 78.51300781 52.34057617 78.18164062 C47.88805103 76.95689638 43.44041494 75.71510841 38.99389648 74.46875 C37.08791532 73.93692261 35.18072455 73.40940677 33.2722168 72.88671875 C19.98920427 69.2446589 7.47454876 64.75179221 -5.10546875 59.15625 C-8.66868339 57.37386619 -8.66868339 57.37386619 -12.375 57.80859375 C-13.63376953 58.44474609 -13.63376953 58.44474609 -14.91796875 59.09375 C-21.3161842 61.99984033 -27.86142631 64.00866379 -34.60546875 65.96875 C-35.66870361 66.28255615 -36.73193848 66.5963623 -37.82739258 66.91967773 C-42.12133992 68.15635924 -45.6057864 69.15625 -50.10546875 69.15625 C-49.74370505 97.77612517 -45.84380551 119.46738506 -25.0390625 140.48828125 C-22.21442332 142.92488919 -19.1651289 145.02661637 -16.10546875 147.15625 C-17.41219409 159.8852921 -19.12611014 172.51474632 -21.10546875 185.15625 C-35.39637323 183.6842255 -47.1130535 176.84901634 -56.91796875 166.34375 C-69.14755399 151.25065212 -72.24024546 135.16685656 -72.30859375 116.28515625 C-72.31429382 115.04942368 -72.3199939 113.8136911 -72.3258667 112.54051208 C-72.33528718 109.92911629 -72.3418389 107.31770876 -72.34570312 104.70629883 C-72.35536047 100.76296507 -72.38639346 96.82016375 -72.41796875 92.87695312 C-72.52938498 66.5137658 -69.60559535 42.58975232 -50.61328125 22.53515625 C-36.46595755 9.11503143 -19.42660058 1.44167722 0 0 Z " fill="#6244BD" transform="translate(121.10546875,133.84375)"/>
<path d="M0 0 C1.33476883 -0.01073296 1.33476883 -0.01073296 2.69650269 -0.02168274 C3.66020279 -0.02437164 4.62390289 -0.02706055 5.61680603 -0.02983093 C7.15443604 -0.03968773 7.15443604 -0.03968773 8.72312927 -0.04974365 C12.11208679 -0.06943576 15.50100001 -0.08113168 18.88999939 -0.09111023 C20.63138089 -0.09722352 20.63138089 -0.09722352 22.40794182 -0.10346031 C28.55552364 -0.12430601 34.70308325 -0.13861291 40.85069275 -0.147995 C47.17982929 -0.15904185 53.50861258 -0.19342664 59.83762455 -0.23316669 C64.72176742 -0.25939617 69.60582701 -0.26769259 74.4900341 -0.27127647 C76.82186195 -0.27612788 79.15368643 -0.28770026 81.48544502 -0.30631447 C110.91848999 -0.52662747 110.91848999 -0.52662747 122.21812439 10.51826477 C131.21467977 21.27258408 131.57233385 32.39163147 131.58531189 45.75654602 C131.58864029 46.95974487 131.59196869 48.16294373 131.59539795 49.40260315 C131.6004448 51.94082763 131.60280697 54.47905871 131.60264587 57.01728821 C131.60482809 60.87059139 131.62299644 64.72360605 131.64195251 68.57685852 C131.64488787 71.05342005 131.64687172 73.52998293 131.64781189 76.00654602 C131.65499741 77.1444458 131.66218292 78.28234558 131.66958618 79.45472717 C131.63332726 92.35293371 130.46465622 103.26809352 121.59703064 113.18232727 C115.25069013 119.23319039 107.98886195 121.88007694 99.41734314 123.14717102 C101.56225903 126.06451334 103.70848304 128.98089113 105.85484314 131.89717102 C106.48922302 132.7601178 107.12360291 133.62306458 107.77720642 134.51216125 C110.611864 138.36299649 113.45013879 142.20908961 116.35093689 146.01045227 C116.76996277 146.56055969 117.18898865 147.11066711 117.62071228 147.67744446 C118.72346344 149.11959205 119.83193512 150.55736026 120.94078064 151.99482727 C122.41734314 154.14717102 122.41734314 154.14717102 122.41734314 156.14717102 C117.31066206 154.57752357 112.57119717 152.47817971 107.73765564 150.23310852 C106.92489166 149.85860565 106.11212769 149.48410278 105.2747345 149.09825134 C102.6959002 147.90916786 100.11910409 146.71573978 97.54234314 145.52217102 C95.78726789 144.71198684 94.03206092 143.90208793 92.27671814 143.09248352 C87.98872802 141.11401169 83.70255965 139.13164268 79.41734314 137.14717102 C79.40276062 135.93770813 79.3881781 134.72824524 79.37315369 133.48213196 C79.31463969 128.94181055 79.23741584 124.40195794 79.15489197 119.86201477 C79.12189007 117.90701476 79.09378344 115.95192512 79.07090759 113.9967804 C79.07813566 93.86245808 79.07813566 93.86245808 70.72203064 75.98701477 C69.41734314 74.14717102 69.41734314 74.14717102 68.41734314 71.14717102 C66.56453512 70.05900144 66.56453512 70.05900144 64.41734314 69.14717102 C63.15967284 68.34659518 61.9097827 67.53368569 60.66734314 66.70967102 C52.77116431 61.72493243 45.06856781 60.01798818 35.78135681 59.94184875 C35.02960175 59.93194916 34.27784668 59.92204956 33.50331116 59.91184998 C31.03067623 59.8803867 28.55802213 59.85553788 26.08531189 59.83076477 C24.3660941 59.81018212 22.64688123 59.78918531 20.92767334 59.76779175 C16.41173796 59.71270642 11.89575793 59.66323765 7.37974548 59.61494446 C2.76788886 59.56463034 -1.84390327 59.50899609 -6.45570374 59.45381165 C-15.49796629 59.34639577 -24.54028494 59.24491426 -33.58265686 59.14717102 C-33.67100572 54.7306341 -33.72349674 50.31432954 -33.77015686 45.89717102 C-33.79529358 44.66224915 -33.8204303 43.42732727 -33.84632874 42.15498352 C-33.93845021 30.48626381 -32.92612853 19.86647475 -24.58265686 11.14717102 C-17.44623926 3.95273376 -10.33077221 0.05742055 0 0 Z " fill="#EC3968" transform="translate(380.58265686035156,14.852828979492188)"/>
<path d="M0 0 C17.11836546 7.77669767 35.02192651 12.85640042 53.13989258 17.77905273 C54.15204834 18.05563721 55.1642041 18.33222168 56.20703125 18.6171875 C57.1091333 18.86065918 58.01123535 19.10413086 58.94067383 19.35498047 C61 20 61 20 62 21 C64.30315081 38.74558817 56.99623786 57.88835065 46.5625 71.9375 C36.1566217 84.31978081 36.1566217 84.31978081 29 87 C29.15146484 87.99854004 29.30292969 88.99708008 29.45898438 90.02587891 C30.02251269 93.74885085 30.58022496 97.47267513 31.13623047 101.19677734 C31.37716965 102.80508682 31.61966222 104.41316442 31.86376953 106.02099609 C32.21540472 108.33891783 32.56135055 110.65763013 32.90625 112.9765625 C33.0156189 113.68930328 33.12498779 114.40204407 33.2376709 115.13638306 C33.82492428 119.12704749 34.11032814 122.96750648 34 127 C35.07378906 126.95746094 36.14757812 126.91492188 37.25390625 126.87109375 C51.86290504 126.89355432 74.55859748 130.69611586 85.9453125 140.7109375 C86.46738281 141.34902344 86.46738281 141.34902344 87 142 C54.35295913 160.96717541 3.5735195 164.13786658 -32.61132812 154.65478516 C-33.39958984 154.43870605 -34.18785156 154.22262695 -35 154 C-35.86302734 153.76974121 -36.72605469 153.53948242 -37.61523438 153.30224609 C-47.80901556 150.53477928 -58.46159174 147.59441654 -68 143 C-68.33 142.34 -68.66 141.68 -69 141 C-57.66964585 134.97321588 -46.81228539 131.21250893 -34.25 128.75 C-33.36256104 128.57452637 -32.47512207 128.39905273 -31.56079102 128.21826172 C-26.2813535 127.23859267 -21.36830023 126.82521813 -16 127 C-15.96261719 126.30519531 -15.92523438 125.61039062 -15.88671875 124.89453125 C-15.35016638 116.59375053 -14.26102886 108.45811218 -12.9284668 100.24926758 C-11.8354891 94.05784773 -11.8354891 94.05784773 -13 88 C-14.54563752 86.40221814 -14.54563752 86.40221814 -16.5625 85.1875 C-31.50086021 74.63495729 -40.81427369 58.43537809 -44.6184082 40.66967773 C-45.41121003 35.12310835 -45.20226439 29.52728153 -45.125 23.9375 C-45.11597656 22.69033203 -45.10695313 21.44316406 -45.09765625 20.15820312 C-45.07426209 17.10526496 -45.04148174 14.05273694 -45 11 C-43.82195801 10.6757605 -43.82195801 10.6757605 -42.62011719 10.3449707 C-39.64374846 9.52172443 -36.66945042 8.69143861 -33.69628906 7.85668945 C-31.80159522 7.32692621 -29.90472839 6.804954 -28.0078125 6.28320312 C-20.88936498 4.27879816 -14.25342648 1.9825636 -7.59472656 -1.25317383 C-4.30093337 -2.20120858 -2.99124077 -1.5495321 0 0 Z " fill="#E5FBFE" transform="translate(116,192)"/>
<path d="M0 0 C17.11163876 14.78535061 28.85546441 33.07645753 34.86328125 54.95703125 C35.05446533 55.63797852 35.24564941 56.31892578 35.44262695 57.02050781 C39.12076286 71.70633779 39.34103278 87.20701232 39.30395508 102.2578125 C39.30072569 105.00428622 39.32462936 107.74974681 39.34960938 110.49609375 C39.35187681 112.26171741 39.35258846 114.02734393 39.3515625 115.79296875 C39.36077225 116.60438324 39.36998199 117.41579773 39.37947083 118.25180054 C39.34182636 122.83979999 38.97089209 125.85818789 35.98828125 129.58203125 C33.92578125 130.45703125 33.92578125 130.45703125 31.98828125 130.58203125 C31.32828125 130.25203125 30.66828125 129.92203125 29.98828125 129.58203125 C29.90578125 130.32453125 29.82328125 131.06703125 29.73828125 131.83203125 C28.78482408 135.32804086 27.96792364 136.49628157 24.98828125 138.58203125 C20.23865014 139.99066709 17.03765161 140.0971767 12.55078125 137.89453125 C9.63448817 135.26275457 8.21451179 133.35538553 7.71412659 129.43301392 C7.70348679 128.66057343 7.69284698 127.88813293 7.68188477 127.09228516 C7.66589737 126.21101959 7.64990997 125.32975403 7.63343811 124.42178345 C7.62807541 123.47693085 7.62271271 122.53207825 7.6171875 121.55859375 C7.60815903 120.57966156 7.59913055 119.60072937 7.58982849 118.59213257 C7.57533204 116.52271581 7.56644076 114.45325329 7.56274414 112.38378906 C7.55084938 109.22512242 7.50165863 106.06841065 7.45117188 102.91015625 C7.44170706 100.89714493 7.4344723 98.88412164 7.4296875 96.87109375 C7.41015518 95.93028961 7.39062286 94.98948547 7.37049866 94.02017212 C7.4009124 89.57865705 7.54235454 86.53473032 10.39819336 83.00146484 C13.70058715 79.91665737 15.10438596 79.44279782 19.48828125 79.45703125 C20.679375 79.45316406 20.679375 79.45316406 21.89453125 79.44921875 C23.98828125 79.58203125 23.98828125 79.58203125 25.98828125 80.58203125 C22.46466995 52.70222953 13.40681679 27.99894296 -8.58203125 9.4140625 C-32.53127681 -8.6441307 -61.24280754 -15.26031688 -90.83984375 -12.11767578 C-116.33392409 -8.3273627 -141.02122684 4.62097855 -156.59545898 25.44848633 C-167.56814916 40.98607202 -175.88450501 61.38073345 -175.01171875 80.58203125 C-174.02171875 80.08703125 -174.02171875 80.08703125 -173.01171875 79.58203125 C-169.95251301 79.16131533 -167.06494415 79.09689008 -164.01171875 79.58203125 C-161.25602428 81.7636227 -159.57583128 83.45380619 -158.01171875 86.58203125 C-157.90217239 88.03589141 -157.85270883 89.4945222 -157.8347168 90.95239258 C-157.82188156 91.85705765 -157.80904633 92.76172272 -157.79582214 93.69380188 C-157.78843521 94.67398788 -157.78104828 95.65417389 -157.7734375 96.6640625 C-157.76536575 97.6703923 -157.75729401 98.67672211 -157.74897766 99.71354675 C-157.73513158 101.84620436 -157.72441178 103.97888419 -157.71655273 106.11157227 C-157.69934282 109.37103345 -157.65546122 112.62947972 -157.61132812 115.88867188 C-157.60120108 117.95962795 -157.59268501 120.03059266 -157.5859375 122.1015625 C-157.56842941 123.07567581 -157.55092133 124.04978912 -157.53288269 125.05342102 C-157.54686004 129.42077833 -157.57426546 131.87800048 -159.92114258 135.6550293 C-162.93991176 138.43759909 -164.80207275 139.42425134 -168.88671875 139.95703125 C-172.85659389 139.48064623 -174.90708411 138.05162699 -178.01171875 135.58203125 C-178.67171875 134.59203125 -179.33171875 133.60203125 -180.01171875 132.58203125 C-182.32137723 131.52850282 -184.65469615 130.52484029 -187.01171875 129.58203125 C-188.66777153 127.92597847 -188.15600214 125.96854932 -188.17285156 123.68945312 C-188.18245911 122.64325806 -188.19206665 121.59706299 -188.20196533 120.51916504 C-188.20621521 119.37459839 -188.21046509 118.23003174 -188.21484375 117.05078125 C-188.22054382 115.87173218 -188.2262439 114.69268311 -188.2321167 113.47790527 C-188.24159452 110.96591087 -188.24811164 108.45390388 -188.25195312 105.94189453 C-188.26153733 102.15373748 -188.29248244 98.36615166 -188.32421875 94.578125 C-188.39642772 78.32499387 -187.74534575 62.92647579 -182.32421875 47.45703125 C-182.06858154 46.71678711 -181.81294434 45.97654297 -181.54956055 45.21386719 C-176.69007076 31.68551111 -169.37807691 20.41988503 -160.01171875 9.58203125 C-159.35558594 8.82277344 -158.69945312 8.06351563 -158.0234375 7.28125 C-118.15844169 -35.31539435 -43.90874415 -36.2721398 0 0 Z " fill="#4E29A5" transform="translate(200.01171875,119.41796875)"/>
<path d="M0 0 C1.34962218 0.51834754 2.69723506 1.04195182 4.04296875 1.5703125 C5.45525143 2.11322356 6.86800997 2.6548984 8.28125 3.1953125 C8.95752441 3.45441406 9.63379883 3.71351563 10.33056641 3.98046875 C13.92752903 5.33383634 17.57241303 6.51950888 21.23046875 7.6953125 C19.79257657 11.18733637 18.08451793 12.81433727 15.04296875 15.0078125 C-3.72969818 29.22952987 -13.61638656 50.14876327 -17.30487061 73.01391602 C-17.74112053 76.47022107 -17.90906287 79.77299132 -17.93066406 83.25390625 C-17.94027161 84.51211182 -17.94987915 85.77031738 -17.95977783 87.06665039 C-17.96462534 88.42203589 -17.96890428 89.77742353 -17.97265625 91.1328125 C-17.97548363 91.82373993 -17.978311 92.51466736 -17.98122406 93.22653198 C-17.9961451 96.87856418 -18.00542092 100.53055756 -18.00976562 104.18261719 C-18.01525916 107.93836505 -18.0393257 111.69375204 -18.06773758 115.4493866 C-18.08642018 118.35429918 -18.0915724 121.25912545 -18.0931015 124.16409302 C-18.09611273 125.54828884 -18.10408914 126.9324837 -18.11728668 128.31661987 C-18.40237859 138.48844864 -18.40237859 138.48844864 -14.76953125 147.6953125 C-12.86195452 149.58778407 -10.94841398 151.09746516 -8.76953125 152.6953125 C-8.76366501 152.0880986 -8.75779877 151.4808847 -8.75175476 150.85527039 C-8.68790397 144.54488675 -8.60350622 138.23501705 -8.50708008 131.92504883 C-8.47379105 129.56899789 -8.44577164 127.21286644 -8.4230957 124.85668945 C-8.38962322 121.47312043 -8.33731033 118.09029196 -8.28125 114.70703125 C-8.27486008 113.65069992 -8.26847015 112.59436859 -8.2618866 111.50602722 C-8.24209244 110.52523697 -8.22229828 109.54444672 -8.2019043 108.53393555 C-8.19080124 107.67011765 -8.17969818 106.80629974 -8.16825867 105.91630554 C-7.68441801 103.22121439 -6.93990169 102.32189612 -4.76953125 100.6953125 C-2.26953125 100.3203125 -2.26953125 100.3203125 0.23046875 100.6953125 C2.46015418 102.34483731 3.15651825 103.22448215 3.5912323 105.99223328 C3.58457047 106.89158096 3.57790863 107.79092865 3.57104492 108.7175293 C3.57070503 110.24877693 3.57070503 110.24877693 3.57035828 111.81095886 C3.55487442 112.91103775 3.53939056 114.01111664 3.5234375 115.14453125 C3.51919266 116.2722847 3.51494781 117.40003815 3.51057434 118.56196594 C3.49376186 122.16915617 3.45610403 125.77579072 3.41796875 129.3828125 C3.40292528 131.82616382 3.38923629 134.26952387 3.37695312 136.71289062 C3.34384991 142.70722132 3.29362468 148.70122721 3.23046875 154.6953125 C-3.21063727 154.79693958 -9.65153565 154.86687302 -16.09326172 154.91503906 C-18.28344449 154.93512357 -20.47357384 154.96239667 -22.66357422 154.99707031 C-25.81621501 155.04572659 -28.96814529 155.06831328 -32.12109375 155.0859375 C-33.09631989 155.10658264 -34.07154602 155.12722778 -35.07632446 155.14849854 C-40.83934088 155.15039005 -44.23023843 154.61321306 -48.76953125 150.6953125 C-53.10287043 145.77638695 -53.92212788 142.88154778 -53.9465332 136.47021484 C-53.95639 135.35252968 -53.95639 135.35252968 -53.96644592 134.21226501 C-53.98621861 131.73525894 -53.99786027 129.25831411 -54.0078125 126.78125 C-54.01188803 125.93148212 -54.01596355 125.08171425 -54.02016258 124.20619583 C-54.0410562 119.6944325 -54.05533453 115.18269973 -54.06469727 110.67089844 C-54.0756716 106.04929463 -54.10995586 101.4281844 -54.14986897 96.80675316 C-54.17627615 93.22377755 -54.18441099 89.64091419 -54.18797874 86.05784988 C-54.1927956 84.35731357 -54.20426606 82.65678055 -54.22301674 80.95634079 C-54.51002843 53.16399481 -44.20174568 29.54018052 -24.89453125 9.5078125 C-11.14767144 -3.85836504 -11.14767144 -3.85836504 0 0 Z " fill="#EC3969" transform="translate(54.76953125,336.3046875)"/>
<path d="M0 0 C0.08120751 2.89640118 0.14059421 5.79050912 0.1875 8.6875 C0.21263672 9.50412109 0.23777344 10.32074219 0.26367188 11.16210938 C0.32147401 15.92115215 0.22993857 19.22356423 -3 23 C-7.35196372 26.38452585 -11.41884281 26.42435146 -16.72312927 26.38095093 C-18.040133 26.38797089 -18.040133 26.38797089 -19.38374287 26.39513266 C-22.32556235 26.40709789 -25.2669173 26.39761935 -28.20874023 26.38818359 C-30.31794507 26.39224864 -32.42714777 26.39759014 -34.53634644 26.40411377 C-40.26566235 26.41780191 -45.99481638 26.41248225 -51.72413516 26.40297651 C-57.71779237 26.39538672 -63.71143563 26.40242373 -69.70509338 26.40713501 C-79.77192679 26.41259496 -89.83869419 26.40539508 -99.90551758 26.39111328 C-111.54520728 26.37479078 -123.18473929 26.38007147 -134.82442516 26.3965925 C-144.81520895 26.4102058 -154.80594527 26.41212764 -164.79673535 26.40427649 C-170.76495737 26.39959857 -176.73310529 26.39897838 -182.70132256 26.40888596 C-188.31312694 26.41755085 -193.92472805 26.41154223 -199.53651047 26.39420319 C-201.59645182 26.39023563 -203.65641028 26.39137696 -205.71634483 26.39799118 C-208.5277567 26.40618611 -211.33851677 26.39590965 -214.14988708 26.38095093 C-214.96555332 26.38764309 -215.78121956 26.39433526 -216.62160295 26.40123022 C-221.44760123 26.35140796 -224.87159036 25.77091279 -229 23 C-230.78387349 20.14623178 -231.24301572 18.0111007 -231.1953125 14.671875 C-231.18886719 13.87265625 -231.18242187 13.0734375 -231.17578125 12.25 C-231.15902344 11.425 -231.14226562 10.6 -231.125 9.75 C-231.11597656 8.90953125 -231.10695312 8.0690625 -231.09765625 7.203125 C-231.07415817 5.13529396 -231.03828908 3.06761005 -231 1 C-202.50554129 0.86931099 -174.01108127 0.73890937 -145.51661968 0.60884857 C-132.28573736 0.54845054 -119.05485549 0.48795896 -105.82397461 0.42724609 C-94.29005845 0.37432037 -82.75614151 0.32157125 -71.22222358 0.26903296 C-65.11685967 0.2412162 -59.01149619 0.21331186 -52.90613365 0.18519592 C-47.1549241 0.1587137 -41.40371351 0.13246833 -35.65250206 0.10640144 C-33.54628459 0.09681402 -31.44006751 0.08714145 -29.33385086 0.07737541 C-8.88432444 -0.01735207 -8.88432444 -0.01735207 0 0 Z " fill="#8DAE15" transform="translate(449,471)"/>
<path d="M0 0 C2.01268462 3.43451833 2.53694771 6.5995138 3.0703125 10.5234375 C3.33134766 12.42609375 3.33134766 12.42609375 3.59765625 14.3671875 C3.68418457 15.02557617 3.77071289 15.68396484 3.85986328 16.36230469 C4.12336326 18.36257521 4.3986599 20.36095104 4.67578125 22.359375 C5.43022988 27.95250547 6.11037412 33.34734498 6 39 C7.61068359 38.93619141 7.61068359 38.93619141 9.25390625 38.87109375 C23.86290504 38.89355432 46.55859748 42.69611586 57.9453125 52.7109375 C58.46738281 53.34902344 58.46738281 53.34902344 59 54 C26.35295913 72.96717541 -24.4264805 76.13786658 -60.61132812 66.65478516 C-61.39958984 66.43870605 -62.18785156 66.22262695 -63 66 C-63.86302734 65.76974121 -64.72605469 65.53948242 -65.61523438 65.30224609 C-75.80901556 62.53477928 -86.46159174 59.59441654 -96 55 C-96.33 54.34 -96.66 53.68 -97 53 C-85.66964585 46.97321588 -74.81228539 43.21250893 -62.25 40.75 C-61.36256104 40.57452637 -60.47512207 40.39905273 -59.56079102 40.21826172 C-54.2813535 39.23859267 -49.36830023 38.82521813 -44 39 C-43.96132812 38.02740234 -43.96132812 38.02740234 -43.921875 37.03515625 C-43.22038212 24.90251797 -41.01346674 12.97026267 -39 1 C-38.2980249 1.28222412 -37.5960498 1.56444824 -36.87280273 1.85522461 C-25.97989819 6.05689236 -15.96970243 7.04588613 -5 2.5 C-3.31927483 1.69539753 -1.64623443 0.87300311 0 0 Z " fill="#CBEAFE" transform="translate(144,280)"/>
<path d="M0 0 C0.03738281 1.1859375 0.07476562 2.371875 0.11328125 3.59375 C1.09459241 29.59984746 6.59987638 51.30102818 25.6640625 70 C28.64331554 72.55079859 31.78286925 74.7565771 35 77 C33.69327466 89.7290421 31.97935861 102.35849632 30 115 C15.70909552 113.5279755 3.99241525 106.69276634 -5.8125 96.1875 C-18.03085614 81.10826047 -21.18150769 65.06184567 -21.09765625 46.1875 C-21.0962413 44.97803711 -21.09482635 43.76857422 -21.09336853 42.52246094 C-21.08779709 38.68161485 -21.07524984 34.8408283 -21.0625 31 C-21.05748131 28.3867196 -21.05291905 25.77343827 -21.04882812 23.16015625 C-21.03783702 16.77341739 -21.02112743 10.38671295 -21 4 C-18.06333774 3.32944715 -15.12577641 2.66340947 -12.1875 2 C-11.35412109 1.80921875 -10.52074219 1.6184375 -9.66210938 1.421875 C-8.85966797 1.24140625 -8.05722656 1.0609375 -7.23046875 0.875 C-6.49207764 0.70742187 -5.75368652 0.53984375 -4.99291992 0.3671875 C-3 0 -3 0 0 0 Z " fill="#4E2AA5" transform="translate(70,204)"/>
<path d="M0 0 C5.75448865 0.98722604 11.28870653 2.3323002 16.86328125 4.078125 C18.01739502 4.4380957 19.17150879 4.79806641 20.3605957 5.16894531 C21.23159912 5.44319336 22.10260254 5.71744141 23 6 C23.07691467 12.29467823 23.12895703 18.58923256 23.16479492 24.88427734 C23.17975635 27.01974007 23.20013284 29.15517275 23.22631836 31.29052734 C23.57683201 60.63745481 23.57683201 60.63745481 16.5 74.125 C16.15815674 74.78749756 15.81631348 75.44999512 15.46411133 76.13256836 C9.51579841 87.08859826 1.0124551 95.13324564 -10 101 C-10.78375 101.42023438 -11.5675 101.84046875 -12.375 102.2734375 C-17.56387771 104.81382555 -22.28087485 105.49071014 -28 106 C-28.71660248 101.10766336 -29.42854308 96.21467912 -30.13623047 91.32104492 C-30.37747217 89.65744861 -30.61997187 87.99403421 -30.86376953 86.33081055 C-31.21460004 83.93585531 -31.56085534 81.54027571 -31.90625 79.14453125 C-32.0156189 78.4047554 -32.12498779 77.66497955 -32.2376709 76.90278625 C-33.27818116 69.62313992 -33.27818116 69.62313992 -33 66 C-31.53125 64.48046875 -31.53125 64.48046875 -29.5 63.1875 C-12.97871646 51.66914035 -5.11874992 33.98294446 -1.55859375 14.61328125 C-0.80742346 9.75431257 -0.29584836 4.90700216 0 0 Z " fill="#4E2AA5" transform="translate(178,213)"/>
<path d="M0 0 C4.43674311 4.00738087 7.16046778 8.34207236 10.125 13.5 C16.18390449 23.71135677 22.7186338 33.66607805 33 40 C30.33213827 43.32744378 26.82420625 44.47026817 22.9375 45.875 C22.24301758 46.13039551 21.54853516 46.38579102 20.83300781 46.64892578 C15.36780211 48.6111995 9.8392956 50.30417088 4.25 51.875 C3.4880835 52.0901123 2.72616699 52.30522461 1.94116211 52.52685547 C-1.52478053 53.46733906 -4.38230746 54 -8 54 C-8 60.6 -8 67.2 -8 74 C-8.33 74 -8.66 74 -9 74 C-9 67.73 -9 61.46 -9 55 C-14.78950046 56.3128778 -14.78950046 56.3128778 -20.57739258 57.6328125 C-21.66250122 57.87644531 -21.66250122 57.87644531 -22.76953125 58.125 C-23.87711792 58.37636719 -23.87711792 58.37636719 -25.00708008 58.6328125 C-27 59 -27 59 -30 59 C-27.85826109 36.79354919 -20.22642817 16.80048913 -2.66015625 2.125 C-1.78230469 1.42375 -0.90445313 0.7225 0 0 Z " fill="#6751C3" transform="translate(79,149)"/>
<path d="M0 0 C6.65911045 3.72910185 10.1792344 7.56129174 12.875 14.75 C13.75409154 21.78273235 12.61929989 26.66648117 9.125 32.75 C5.01905893 37.88242634 -0.01667491 41.19318632 -6.5546875 42.13671875 C-12.82667401 42.38864065 -17.76862225 41.50708431 -22.875 37.75 C-28.06467542 32.56032458 -30.97388834 27.18294713 -31.3125 19.8125 C-31.09411443 13.81599619 -29.34016425 9.37872965 -25.2265625 4.9921875 C-18.16368302 -1.39216208 -9.12696797 -3.66279636 0 0 Z " fill="#CBEAF9" transform="translate(340.875,389.25)"/>
<path d="M0 0 C0.78246094 -0.01417969 1.56492188 -0.02835938 2.37109375 -0.04296875 C4.5625 0.1875 4.5625 0.1875 7.5625 2.1875 C7.94776917 4.1229248 7.94776917 4.1229248 7.96313477 6.51367188 C7.97647354 7.40799927 7.98981232 8.30232666 8.0035553 9.22375488 C8.00367111 10.19147827 8.00378693 11.15920166 8.00390625 12.15625 C8.01711411 13.14749878 8.03032196 14.13874756 8.04393005 15.16003418 C8.08494213 18.33588455 8.10653177 21.5114441 8.125 24.6875 C8.14874421 27.86346763 8.17680125 31.03915943 8.21678162 34.21496582 C8.24123647 36.19362786 8.25601525 38.1724368 8.26039124 40.15124512 C8.27057785 41.04557251 8.28076447 41.9398999 8.29125977 42.86132812 C8.29553482 43.65027466 8.29980988 44.43922119 8.30421448 45.2520752 C8.39474275 47.42464795 8.39474275 47.42464795 10.5625 49.1875 C10.41618501 52.55274467 9.90071594 54.66608375 8.0625 57.5 C4.39469086 59.97577117 0.95687822 60.51498399 -3.4375 60.1875 C-7.56680563 58.16038632 -9.73411099 56.42335447 -11.4375 52.1875 C-11.71165466 50.03848267 -11.71165466 50.03848267 -11.74389648 47.69775391 C-11.75988388 46.81648834 -11.77587128 45.93522278 -11.79234314 45.0272522 C-11.79770584 44.0823996 -11.80306854 43.137547 -11.80859375 42.1640625 C-11.81762222 41.18513031 -11.8266507 40.20619812 -11.83595276 39.19760132 C-11.85044921 37.12818456 -11.85934049 35.05872204 -11.86303711 32.98925781 C-11.87493187 29.83059117 -11.92412262 26.6738794 -11.97460938 23.515625 C-11.98407419 21.50261368 -11.99130895 19.48959039 -11.99609375 17.4765625 C-12.01562607 16.53575836 -12.03515839 15.59495422 -12.05528259 14.62564087 C-12.02486885 10.1841258 -11.88342671 7.14019907 -9.02758789 3.60693359 C-5.76687447 0.56106028 -4.33222924 0.03556838 0 0 Z " fill="#EA6994" transform="translate(219.4375,198.8125)"/>
<path d="M0 0 C2.75569447 2.18159145 4.43588747 3.87177494 6 7 C6.10954636 8.45386016 6.15900992 9.91249095 6.17700195 11.37036133 C6.18983719 12.2750264 6.20267242 13.17969147 6.21589661 14.11177063 C6.22328354 15.09195663 6.23067047 16.07214264 6.23828125 17.08203125 C6.246353 18.08836105 6.25442474 19.09469086 6.26274109 20.1315155 C6.27658717 22.26417311 6.28730697 24.39685294 6.29516602 26.52954102 C6.31237593 29.7890022 6.35625753 33.04744847 6.40039062 36.30664062 C6.41051767 38.3775967 6.41903374 40.44856141 6.42578125 42.51953125 C6.44328934 43.49364456 6.46079742 44.46775787 6.47883606 45.47138977 C6.46485871 49.83874708 6.43745329 52.29596923 4.09057617 56.07299805 C1.07180699 58.85556784 -0.790354 59.84222009 -4.875 60.375 C-8.90106566 59.89187212 -10.91157177 58.59708738 -14 56 C-15.5 53.4375 -15.5 53.4375 -16 51 C-15.34 50.01 -14.68 49.02 -14 48 C-13.70076307 45.90224144 -13.70076307 45.90224144 -13.74462891 43.57617188 C-13.73766998 42.68514771 -13.73071106 41.79412354 -13.72354126 40.87609863 C-13.72453827 39.91667358 -13.72553528 38.95724854 -13.7265625 37.96875 C-13.70627908 35.94140067 -13.68542841 33.91405696 -13.6640625 31.88671875 C-13.64142156 28.68696352 -13.62497707 25.48742943 -13.61914062 22.28759766 C-13.60964714 19.20174101 -13.57591312 16.11688393 -13.5390625 13.03125 C-13.54410797 12.07182495 -13.54915344 11.1123999 -13.55435181 10.12390137 C-13.54108856 9.2328772 -13.52782532 8.34185303 -13.51416016 7.42382812 C-13.51131012 6.64011841 -13.50846008 5.85640869 -13.50552368 5.0489502 C-13 3 -13 3 -11.1043396 1.25280762 C-7.52798257 -0.87635791 -4.02275897 -0.78877627 0 0 Z " fill="#EA6894" transform="translate(36,199)"/>
<path d="M0 0 C4.57076612 1.48642801 7.24642787 4.23375253 9.65234375 8.28125 C12.42971968 13.83600185 13.62821202 18.89711302 11.68359375 25.05859375 C9.15597307 31.18399709 5.96346037 35.07383892 0.40234375 38.78125 C-3.07893507 38.6612059 -5.57870834 36.67864829 -8.13671875 34.42578125 C-11.75246051 30.35565483 -13.78585468 25.21168857 -14.03515625 19.78125 C-13.49554885 11.55632509 -10.90341751 6.34515699 -4.73046875 0.8984375 C-2.59765625 -0.21875 -2.59765625 -0.21875 0 0 Z " fill="#E4FBFC" transform="translate(341.59765625,390.21875)"/>
<path d="M0 0 C2.9375 0.8125 2.9375 0.8125 4.9375 2.8125 C5.17800903 4.98916626 5.17800903 4.98916626 5.16455078 7.72119141 C5.16432419 9.25255234 5.16432419 9.25255234 5.16409302 10.81484985 C5.15377045 11.92009003 5.14344788 13.0253302 5.1328125 14.1640625 C5.1299826 15.2932309 5.12715271 16.42239929 5.12423706 17.58578491 C5.11301462 21.20312971 5.08790622 24.82022966 5.0625 28.4375 C5.05247287 30.8854131 5.04334656 33.33333007 5.03515625 35.78125 C5.01306853 41.79176145 4.97852454 47.80208917 4.9375 53.8125 C1.3075 53.8125 -2.3225 53.8125 -6.0625 53.8125 C-6.13655325 46.60427104 -6.19105664 39.39626259 -6.22729492 32.18774414 C-6.24239881 29.73457992 -6.26288321 27.28144276 -6.28881836 24.82836914 C-6.32513057 21.30608445 -6.34221036 17.78415619 -6.35546875 14.26171875 C-6.37095261 13.16163986 -6.38643646 12.06156097 -6.40238953 10.92814636 C-6.40261612 9.90731461 -6.40284271 8.88648285 -6.40307617 7.8347168 C-6.40973801 6.93536911 -6.41639984 6.03602142 -6.42326355 5.10942078 C-6.0625 2.8125 -6.0625 2.8125 -4.73262024 0.9868927 C-3.0625 -0.1875 -3.0625 -0.1875 0 0 Z " fill="#EB3A6A" transform="translate(200.0625,437.1875)"/>
<path d="M0 0 C4.14177256 1.71073214 6.73186849 4.13577595 9 8 C9.93010705 13.5909768 9.26437299 18.27228739 6 23 C2.13342924 26.62491009 -2.26884435 26.56137705 -7.3359375 26.41796875 C-11.61755235 25.74621979 -13.17286483 24.26207904 -16 21 C-18.28466838 17.05375462 -18.47409741 13.50392543 -18 9 C-13.55219486 0.73979046 -9.01551113 -1.07013384 0 0 Z " fill="#E6F9FD" transform="translate(366,133)"/>
<path d="M0 0 C4.12611421 1.74213711 6.73295974 4.13763511 9 8 C9.93010705 13.5909768 9.26437299 18.27228739 6 23 C2.13342924 26.62491009 -2.26884435 26.56137705 -7.3359375 26.41796875 C-11.61755235 25.74621979 -13.17286483 24.26207904 -16 21 C-18.47037796 17.13332146 -18.16515022 13.55153275 -17.54296875 9.15234375 C-16.74851133 6.00309168 -15.34243969 4.20858599 -13 2 C-8.74229255 -0.54031285 -4.84115408 -0.55525782 0 0 Z " fill="#E6F9FC" transform="translate(317,133)"/>
<path d="M0 0 C4.59457298 1.79787638 6.77864953 4.6395713 9 9 C9.68250706 12.86754 9.38538179 16.1075369 7.8125 19.75 C3.05007825 25.66197183 3.05007825 25.66197183 -1.55859375 26.421875 C-6.11647135 26.64451217 -9.85540633 26.69782414 -13.5625 23.8125 C-16.89710615 19.96487752 -17.82619386 17.59322292 -18.375 12.5625 C-17.85196513 7.59366877 -15.85112429 4.66561716 -12.16796875 1.3515625 C-8.35753494 -1.02395119 -4.3396247 -0.50805362 0 0 Z " fill="#E6F9FD" transform="translate(415,133)"/>
<path d="M0 0 C1.4370809 -0.05422947 2.87475462 -0.09289723 4.3125 -0.125 C5.11300781 -0.14820313 5.91351563 -0.17140625 6.73828125 -0.1953125 C9 0 9 0 12 2 C12.38526917 3.9354248 12.38526917 3.9354248 12.40063477 6.32617188 C12.41397354 7.22049927 12.42731232 8.11482666 12.4410553 9.03625488 C12.44117111 10.00397827 12.44128693 10.97170166 12.44140625 11.96875 C12.45461411 12.95999878 12.46782196 13.95124756 12.48143005 14.97253418 C12.52244213 18.14838455 12.54403177 21.3239441 12.5625 24.5 C12.58624421 27.67596763 12.61430125 30.85165943 12.65428162 34.02746582 C12.67873647 36.00612786 12.69351525 37.9849368 12.69789124 39.96374512 C12.70807785 40.85807251 12.71826447 41.7523999 12.72875977 42.67382812 C12.73303482 43.46277466 12.73730988 44.25172119 12.74171448 45.0645752 C12.83224275 47.23714795 12.83224275 47.23714795 15 49 C14.85368501 52.36524467 14.33821594 54.47858375 12.5 57.3125 C8.87306259 59.76068275 5.29624913 59.81639961 1 60 C1 59.01 1 58.02 1 57 C1.66 57 2.32 57 3 57 C5.19967951 51.64994595 5.30657826 46.86937475 5.30078125 41.18359375 C5.30720894 39.78247093 5.30720894 39.78247093 5.31376648 38.3530426 C5.31949054 36.38551644 5.32002427 34.41796913 5.31567383 32.45043945 C5.31250664 29.44380691 5.33602203 26.43815222 5.36132812 23.43164062 C5.36360062 21.51562624 5.36430485 19.59960921 5.36328125 17.68359375 C5.372491 16.78764999 5.38170074 15.89170624 5.39118958 14.96861267 C5.35516942 10.10437702 5.0709159 6.99083372 2 3 C1.34 2.01 0.68 1.02 0 0 Z " fill="#EC3968" transform="translate(215,199)"/>
<path d="M0 0 C0.79921875 0.02707031 1.5984375 0.05414063 2.421875 0.08203125 C3.02515625 0.11683594 3.6284375 0.15164062 4.25 0.1875 C2.98046875 1.68489583 1.7109375 3.18229167 0.44140625 4.6796875 C-1.62103928 7.28986447 -1.88126158 9.02600019 -1.91113281 12.2824707 C-1.92554413 13.54937492 -1.92554413 13.54937492 -1.94024658 14.84187317 C-1.9466214 16.21372017 -1.9466214 16.21372017 -1.953125 17.61328125 C-1.95882507 18.55302292 -1.96452515 19.49276459 -1.97039795 20.46098328 C-1.97985474 22.45241162 -1.98638462 24.44385566 -1.99023438 26.43530273 C-1.99992776 29.47733013 -2.03093972 32.51867849 -2.0625 35.56054688 C-2.06903125 37.49478765 -2.07428124 39.42903327 -2.078125 41.36328125 C-2.0904718 42.27177322 -2.1028186 43.1802652 -2.11553955 44.11628723 C-2.09831655 49.01764707 -1.85788726 52.17117522 1.25 56.1875 C1.91 57.1775 2.57 58.1675 3.25 59.1875 C2.25 60.1875 2.25 60.1875 -0.4375 60.5 C-4.61312754 60.10607287 -6.55801166 58.87167201 -9.75 56.1875 C-11.25 53.625 -11.25 53.625 -11.75 51.1875 C-11.09 50.1975 -10.43 49.2075 -9.75 48.1875 C-9.45076307 46.08974144 -9.45076307 46.08974144 -9.49462891 43.76367188 C-9.48766998 42.87264771 -9.48071106 41.98162354 -9.47354126 41.06359863 C-9.47453827 40.10417358 -9.47553528 39.14474854 -9.4765625 38.15625 C-9.45627908 36.12890067 -9.43542841 34.10155696 -9.4140625 32.07421875 C-9.39142156 28.87446352 -9.37497707 25.67492943 -9.36914062 22.47509766 C-9.35964714 19.38924101 -9.32591312 16.30438393 -9.2890625 13.21875 C-9.29410797 12.25932495 -9.29915344 11.2998999 -9.30435181 10.31140137 C-9.29108856 9.4203772 -9.27782532 8.52935303 -9.26416016 7.61132812 C-9.26131012 6.82761841 -9.25846008 6.04390869 -9.25552368 5.2364502 C-8.75 3.1875 -8.75 3.1875 -6.86532593 1.42932129 C-4.3538614 -0.04505676 -2.88526952 -0.1272913 0 0 Z " fill="#EB3969" transform="translate(31.75,198.8125)"/>
</svg>
