<?xml version="1.0" encoding="UTF-8"?>
<svg version="1.1" xmlns="http://www.w3.org/2000/svg" width="512" height="512">
<path d="M0 0 C0.85183483 -0.00436032 1.70366966 -0.00872064 2.58131766 -0.0132131 C5.44913719 -0.02420238 8.31647926 -0.01373019 11.18429565 -0.00342751 C13.25569976 -0.00688261 15.32710204 -0.01164618 17.39850044 -0.01760924 C23.10119045 -0.03016906 28.80373044 -0.02392621 34.50642109 -0.01465058 C40.65237269 -0.0078808 46.79829796 -0.01833102 52.94424438 -0.02659035 C64.29177244 -0.03917925 75.63923914 -0.0380603 86.98676568 -0.02985594 C97.4691384 -0.02231416 107.95149353 -0.02033689 118.43386841 -0.02392387 C119.12874517 -0.02415303 119.82362193 -0.02438218 120.53955556 -0.02461828 C123.36017035 -0.02555227 126.18078512 -0.02650747 129.00139988 -0.02749758 C155.46980868 -0.03667797 181.93818689 -0.02834881 208.40659097 -0.01220688 C231.93065344 0.00203031 255.4546672 0.00075644 278.97872925 -0.01358986 C305.39821813 -0.02964804 331.81767999 -0.03602694 358.23717308 -0.02675307 C361.05269749 -0.02579089 363.86822191 -0.02485237 366.68374634 -0.02392387 C367.72365422 -0.02356803 367.72365422 -0.02356803 368.78457035 -0.02320499 C379.26126435 -0.0197902 389.73793883 -0.0237878 400.21463013 -0.03136253 C412.12514057 -0.03993091 424.03559346 -0.03752643 435.94610167 -0.0215203 C442.02663916 -0.01361904 448.10707761 -0.01057755 454.18761444 -0.02046776 C459.74888377 -0.02937676 465.30996181 -0.02454461 470.87121367 -0.0085351 C472.8879616 -0.00517116 474.90472553 -0.0069173 476.92146325 -0.01416247 C479.65374651 -0.02322877 482.38536664 -0.01398567 485.11761475 0 C485.90843185 -0.0070235 486.69924896 -0.014047 487.51403022 -0.02128333 C492.00493548 0.02495076 495.04800557 0.47731243 498.55880737 3.37752342 C500.14231697 10.32337234 496.10122094 15.38555659 492.55880737 21.12752342 C491.63539551 22.67210228 491.63539551 22.67210228 490.69332886 24.24788475 C487.92762572 28.86731157 485.12022879 33.46085374 482.30929565 38.05281639 C480.43166628 41.12075515 478.56712872 44.19637856 476.70846558 47.27583885 C475.63470921 49.04296743 474.54363934 50.79854472 473.4513855 52.55428123 C472.79718628 53.63419334 472.14298706 54.71410545 471.46896362 55.82674217 C470.88252075 56.77895653 470.29607788 57.73117088 469.69186401 58.71224022 C468.33532286 61.90322488 468.4279219 63.13471253 469.55880737 66.37752342 C470.81810929 68.92204366 470.81810929 68.92204366 472.44552612 71.49080467 C473.04808228 72.48032127 473.65063843 73.46983788 474.27145386 74.48933983 C474.92315552 75.54556541 475.57485718 76.601791 476.24630737 77.69002342 C477.60647286 79.93303385 478.9658264 82.1765368 480.32443237 84.42049217 C482.42502313 87.87701965 484.53020681 91.33070847 486.6388855 94.78230858 C488.60606601 98.01376704 490.55288022 101.2567398 492.49630737 104.50252342 C493.10498657 105.49034813 493.71366577 106.47817284 494.34078979 107.49593163 C499.85166781 116.75321532 499.85166781 116.75321532 498.55880737 122.37752342 C494.39756927 125.81362388 490.28190367 125.80091254 485.11761475 125.75504684 C483.8398625 125.76158733 483.8398625 125.76158733 482.53629708 125.76825994 C479.66847756 125.77924922 476.80113549 125.76877703 473.93331909 125.75847435 C471.86191498 125.76192946 469.79051271 125.76669302 467.7191143 125.77265608 C462.0164243 125.7852159 456.3138843 125.77897306 450.61119366 125.76969743 C444.46524205 125.76292765 438.31931678 125.77337786 432.17337036 125.78163719 C420.82584231 125.7942261 409.47837561 125.79310714 398.13084906 125.78490279 C387.64847634 125.777361 377.16612122 125.77538373 366.68374634 125.77897072 C365.98886958 125.77919987 365.29399281 125.77942903 364.57805918 125.77966513 C361.7574444 125.78059912 358.93682963 125.78155432 356.11621486 125.78254442 C329.64780607 125.79172481 303.17942785 125.78339566 276.71102378 125.76725373 C253.1869613 125.75301653 229.66294755 125.7542904 206.1388855 125.7686367 C179.71939661 125.78469488 153.29993475 125.79107379 126.88044167 125.78179991 C124.06491725 125.78083774 121.24939283 125.77989922 118.43386841 125.77897072 C117.39396052 125.77861487 117.39396052 125.77861487 116.33304439 125.77825183 C105.8563504 125.77483705 95.37967591 125.77883464 84.90298462 125.78640938 C72.99247418 125.79497775 61.08202128 125.79257327 49.17151308 125.77656715 C43.09097559 125.76866588 37.01053714 125.76562439 30.93000031 125.7755146 C25.36873098 125.78442361 19.80765293 125.77959145 14.24640107 125.76358195 C12.22965315 125.76021801 10.21288921 125.76196414 8.19615149 125.76920931 C5.46386823 125.77827561 2.73224811 125.76903252 0 125.75504684 C-0.79081711 125.76207034 -1.58163421 125.76909384 -2.39641547 125.77633017 C-6.88732073 125.73009608 -9.93039082 125.27773441 -13.44119263 122.37752342 C-15.02470222 115.43167451 -10.98360619 110.36949025 -7.44119263 104.62752342 C-6.82558472 103.59780418 -6.20997681 102.56808495 -5.57571411 101.50716209 C-2.81001098 96.88773527 -0.00261404 92.2941931 2.80831909 87.70223045 C4.68594847 84.6342917 6.55048603 81.55866828 8.40914917 78.47920799 C9.48290554 76.71207942 10.5739754 74.95650213 11.66622925 73.20076561 C12.32042847 72.1208535 12.97462769 71.04094139 13.64865112 69.92830467 C14.23509399 68.97609032 14.82153687 68.02387596 15.42575073 67.04280663 C16.78827263 63.8377535 16.70102925 62.63493572 15.55880737 59.37752342 C14.58339925 57.46564734 13.52716716 55.59404876 12.41818237 53.75642967 C11.76527222 52.66620506 11.11236206 51.57598045 10.43966675 50.45271873 C10.09186157 49.8796096 9.7440564 49.30650047 9.38571167 48.7160244 C8.29821178 46.92254946 7.22120732 45.1231431 6.146698 43.32185936 C2.67298199 37.50687037 -0.84127439 31.71867402 -4.39431763 25.95174217 C-4.99469849 24.96552879 -5.59507935 23.97931541 -6.21365356 22.96321678 C-7.33899929 21.11600218 -8.47709686 19.27647713 -9.62966919 17.44612694 C-12.50026286 12.71569266 -14.65734113 9.081839 -13.44119263 3.37752342 C-9.28739621 -0.0652413 -5.16108249 -0.04583722 0 0 Z " fill="#EA473B" transform="translate(13.441192626953125,192.6224765777588)"/>
<path d="M0 0 C6.67063962 6.03842834 12.85880799 12.53841919 18.60742188 19.45507812 C19.03249023 19.96103516 19.45755859 20.46699219 19.89550781 20.98828125 C27.97423376 30.64726588 35.00767747 40.73798699 41.60742188 51.45507812 C42.57808594 53.01162109 42.57808594 53.01162109 43.56835938 54.59960938 C47.03560594 60.33390177 50.10425873 66.25019999 53.04492188 72.26757812 C53.39965576 72.97333984 53.75438965 73.67910156 54.11987305 74.40625 C56.26391027 78.91463505 57.10229002 82.36047407 56.60742188 87.45507812 C54.84727057 90.64011382 54.10851271 91.28804785 50.60742188 92.45507812 C48.26255154 92.5530214 45.91492148 92.587873 43.56801033 92.59209251 C42.84342284 92.59474434 42.11883536 92.59739617 41.37229067 92.60012835 C38.92543714 92.60783515 36.47863367 92.60838105 34.0317688 92.60897827 C32.26732755 92.61299196 30.50288723 92.61743003 28.73844802 92.62225783 C23.87500621 92.63423917 19.01157433 92.63987537 14.14812064 92.64443898 C8.90875835 92.65038898 3.66940798 92.66200015 -1.56994629 92.67272949 C-14.22881644 92.69726448 -26.88769054 92.71188079 -39.54657716 92.72478956 C-43.1199324 92.72850022 -46.69328724 92.73247354 -50.26664209 92.73654222 C-72.44199837 92.76177376 -94.61735524 92.78383354 -116.7927227 92.79627037 C-121.93033729 92.79920021 -127.06795186 92.80216185 -132.20556641 92.80517578 C-134.121029 92.80629486 -134.121029 92.80629486 -136.07518782 92.80743654 C-156.77747891 92.8200996 -177.4796843 92.85333513 -198.1819353 92.89497761 C-219.42063807 92.93735025 -240.6592969 92.96095986 -261.89804184 92.96619093 C-273.82934262 92.96960999 -285.76050938 92.98142365 -297.69176865 93.01429367 C-307.84931493 93.04223096 -318.00669974 93.05332128 -328.16428147 93.04209821 C-333.34973312 93.03689566 -338.53484625 93.03990167 -343.72024918 93.06456375 C-348.46383334 93.08693698 -353.2068335 93.08640987 -357.95042707 93.06735988 C-359.66980382 93.06454307 -361.38921918 93.07025093 -363.10853349 93.08517282 C-365.44023525 93.1041782 -367.76983275 93.09256141 -370.1014843 93.07311058 C-371.39812189 93.07446711 -372.69475948 93.07582364 -374.03068912 93.07722127 C-378.27991498 92.29086969 -379.76243444 90.81919602 -382.39257812 87.45507812 C-383.55146265 81.08510214 -380.85031802 76.20823724 -378.08007812 70.64257812 C-377.40827515 69.26694702 -377.40827515 69.26694702 -376.72290039 67.86352539 C-369.91264159 54.17808072 -361.88385279 41.43384299 -352.39257812 29.45507812 C-351.7609375 28.63136719 -351.12929688 27.80765625 -350.47851562 26.95898438 C-339.13938807 12.37677301 -325.99287448 -1.24572612 -311.39257812 -12.54492188 C-310.57128418 -13.18083252 -310.57128418 -13.18083252 -309.73339844 -13.82958984 C-281.4309661 -35.57685467 -249.26768519 -50.80761776 -214.39257812 -58.54492188 C-213.65217285 -58.71072754 -212.91176758 -58.8765332 -212.14892578 -59.04736328 C-207.58543823 -60.04445479 -203.0122584 -60.84313946 -198.39257812 -61.54492188 C-197.7412793 -61.64788574 -197.08998047 -61.75084961 -196.41894531 -61.85693359 C-124.58044566 -72.77238493 -53.56772191 -47.4987777 0 0 Z " fill="#6DDBF8" transform="translate(413.392578125,81.544921875)"/>
<path d="M0 0 C1.09287532 -0.00917004 1.09287532 -0.00917004 2.20782894 -0.01852533 C4.65654651 -0.03416313 7.10427897 -0.02124457 9.5530014 -0.00850582 C11.32329847 -0.01382938 13.09359102 -0.02089397 14.86387491 -0.02955288 C19.73429695 -0.04823221 24.60441601 -0.04185706 29.47485089 -0.03139985 C34.72510531 -0.02442287 39.97529655 -0.04039429 45.22553253 -0.05339718 C55.51302088 -0.07506723 65.80039874 -0.07490265 76.08790243 -0.06677163 C84.44682915 -0.06047845 92.80572359 -0.0616024 101.16464996 -0.06804371 C102.35315887 -0.06894536 103.54166778 -0.06984702 104.76619211 -0.070776 C107.18042879 -0.07262715 109.59466547 -0.07448971 112.00890213 -0.07636356 C134.66103851 -0.09295234 157.31311266 -0.08421347 179.96524531 -0.06737798 C200.70298771 -0.05267832 221.44058527 -0.06731131 242.17830902 -0.09614814 C263.45777081 -0.12551859 284.73716569 -0.1365214 306.01664686 -0.12696594 C308.42213153 -0.12594336 310.8276162 -0.12494875 313.23310089 -0.12398243 C315.0085381 -0.12326784 315.0085381 -0.12326784 316.81984273 -0.12253882 C325.17125438 -0.12037168 333.5226029 -0.13019467 341.87400055 -0.14475346 C352.0479894 -0.16224169 362.22179349 -0.16220986 372.39577496 -0.1394018 C377.58932573 -0.12822799 382.78255055 -0.12516803 387.97608757 -0.14370251 C392.72701945 -0.16043966 397.47733939 -0.15424853 402.22823113 -0.12948572 C403.9502292 -0.12457972 405.672276 -0.1281795 407.39423352 -0.14097316 C409.72948396 -0.15707627 412.06259807 -0.1425861 414.39775085 -0.12025452 C415.69634206 -0.11998483 416.99493327 -0.11971514 418.33287573 -0.11943728 C422.58271385 0.67042558 424.06550137 2.14318645 426.69887543 5.50615788 C427.97302876 12.08793081 424.85804563 17.14542418 421.88637543 22.81865788 C421.14085419 24.26909489 421.14085419 24.26909489 420.38027191 25.74883366 C410.66775487 44.38988403 399.3329707 61.78577049 384.91371918 77.13897038 C383.01374612 79.16962941 381.22641094 81.24456905 379.44887543 83.38115788 C345.24149456 122.68325504 293.1998222 146.12072274 242.69887543 154.50615788 C241.94751312 154.63748112 241.19615082 154.76880436 240.42201996 154.90410709 C216.39692374 158.95851978 189.56933889 157.82945944 165.69887543 153.50615788 C164.80555511 153.3451862 163.9122348 153.18421452 162.99184418 153.01836491 C124.12199603 145.69862686 88.62820441 128.91718781 57.69887543 104.50615788 C57.1413559 104.06723209 56.58383636 103.62830631 56.0094223 103.17607975 C41.78634726 91.85637847 28.67780283 78.86022726 17.92983246 64.18584538 C16.70101835 62.50908198 15.44943035 60.85128635 14.19496918 59.19365788 C5.14956096 47.07072739 -2.33778281 33.88776507 -8.98862457 20.31865788 C-9.49740143 19.31355167 -9.49740143 19.31355167 -10.0164566 18.2881403 C-12.28084386 13.49596727 -13.03309297 9.80604936 -12.30112457 4.50615788 C-8.43863807 0.40680027 -5.51089796 0.00505635 0 0 Z " fill="#6DDBF8" transform="translate(43.301124572753906,337.49384212493896)"/>
<path d="M0 0 C0.96955124 0.00565979 1.93910248 0.01131958 2.93803406 0.01715088 C6.02560421 0.03948794 9.11200114 0.08968002 12.19921875 0.140625 C14.29620716 0.16069342 16.39321382 0.17894359 18.49023438 0.1953125 C23.62284582 0.23934413 28.75458357 0.30835389 33.88671875 0.390625 C33.07251465 1.009375 32.25831055 1.628125 31.41943359 2.265625 C28.76227219 4.07903007 28.76227219 4.07903007 28.36328125 6.390625 C28.41226563 7.050625 28.46125 7.710625 28.51171875 8.390625 C28.56199219 9.380625 28.56199219 9.380625 28.61328125 10.390625 C28.89820649 12.74508634 28.89820649 12.74508634 29.88671875 16.390625 C46.71671875 16.390625 63.54671875 16.390625 80.88671875 16.390625 C87.20916668 33.77735681 87.20916668 33.77735681 85.88671875 39.390625 C85.0145874 39.58696533 84.14245605 39.78330566 83.24389648 39.9855957 C79.9792929 40.72391204 76.7161776 41.468238 73.45385742 42.21655273 C72.04717337 42.5379469 70.63995283 42.85700298 69.23217773 43.17358398 C67.19756586 43.63157 65.16509335 44.09819837 63.1328125 44.56640625 C61.91263428 44.84395752 60.69245605 45.12150879 59.43530273 45.4074707 C55.69951638 46.44249042 52.40926201 47.78839136 48.88671875 49.390625 C51.52671875 53.020625 54.16671875 56.650625 56.88671875 60.390625 C64.72575848 59.50958019 72.28019745 57.36250552 79.90234375 55.38671875 C80.98257813 55.11730469 82.0628125 54.84789062 83.17578125 54.5703125 C84.15240723 54.32007324 85.1290332 54.06983398 86.13525391 53.81201172 C89.14533404 53.35101808 91.02856546 53.32476946 93.88671875 54.390625 C95.19775391 56.31396484 95.19775391 56.31396484 96.17578125 58.8515625 C96.55412109 59.7887915 96.93246094 60.72602051 97.32226562 61.69165039 C97.71478516 62.70606201 98.10730469 63.72047363 98.51171875 64.765625 C108.49299524 89.06006707 123.76139991 115.0185029 144.88671875 131.390625 C145.43328125 131.865 145.97984375 132.339375 146.54296875 132.828125 C150.08798325 135.191468 153.93467002 136.64188245 157.88671875 138.203125 C158.76593994 138.55205811 159.64516113 138.90099121 160.55102539 139.26049805 C169.83386679 142.86980412 179.28093746 145.77677747 188.88671875 148.390625 C190.5728125 148.85082031 190.5728125 148.85082031 192.29296875 149.3203125 C202.33302003 151.83032532 212.63993483 153.03475358 222.88671875 154.390625 C222.55671875 155.050625 222.22671875 155.710625 221.88671875 156.390625 C202.03600999 156.72432226 182.50076195 156.94302455 162.88671875 153.390625 C161.99339844 153.22965332 161.10007813 153.06868164 160.1796875 152.90283203 C121.30983936 145.58309399 85.81604773 128.80165493 54.88671875 104.390625 C54.32919922 103.95169922 53.77167969 103.51277344 53.19726562 103.06054688 C38.97419059 91.7408456 25.86564616 78.74469439 15.11767578 64.0703125 C13.88886168 62.3935491 12.63727367 60.73575347 11.3828125 59.078125 C2.33740428 46.95519452 -5.14993949 33.77223219 -11.80078125 20.203125 C-12.30955811 19.1980188 -12.30955811 19.1980188 -12.82861328 18.17260742 C-15.09300054 13.38043439 -15.84524965 9.69051648 -15.11328125 4.390625 C-10.79484961 -0.63293595 -6.1388047 -0.13530974 0 0 Z " fill="#43CBEA" transform="translate(46.11328125,337.609375)"/>
<path d="M0 0 C1.15867584 -0.00790054 1.15867584 -0.00790054 2.34075928 -0.01596069 C4.55158319 -0.0276294 6.76182885 -0.02437902 8.97265625 -0.015625 C10.2656665 -0.01336914 11.55867676 -0.01111328 12.89086914 -0.00878906 C15.9375 0.25 15.9375 0.25 17.9375 2.25 C16.67679688 2.40855469 15.41609375 2.56710938 14.1171875 2.73046875 C-5.49442884 5.30052799 -24.50340751 9.33574735 -43.0625 16.25 C-43.8359375 16.53665527 -44.609375 16.82331055 -45.40625 17.11865234 C-47.73802245 17.99546398 -50.0579689 18.89750685 -52.375 19.8125 C-53.07471924 20.0811084 -53.77443848 20.3497168 -54.49536133 20.62646484 C-58.9796874 22.46018779 -61.76913757 24.59503528 -65.0625 28.25 C-66.21298828 29.34828125 -66.21298828 29.34828125 -67.38671875 30.46875 C-88.1126322 50.47525158 -101.98250034 76.96278018 -113.0625 103.25 C-120.9048813 102.53978435 -128.43849603 100.57355501 -136.0625 98.6875 C-137.42307654 98.35440674 -138.78375291 98.021721 -140.14453125 97.68945312 C-143.45152271 96.88029564 -146.75744713 96.067033 -150.0625 95.25 C-150.34867187 96.02085938 -150.63484375 96.79171875 -150.9296875 97.5859375 C-152.0625 100.25 -152.0625 100.25 -154.1875 102.875 C-156.37232214 105.13811978 -156.37232214 105.13811978 -156.0625 108.25 C-155.01271973 108.5173999 -153.96293945 108.7847998 -152.88134766 109.06030273 C-148.99322468 110.051326 -145.10587328 111.04534667 -141.21875 112.0402832 C-139.53504048 112.47079188 -137.85112175 112.90048319 -136.16699219 113.3293457 C-133.74879611 113.94528787 -131.33136325 114.56414844 -128.9140625 115.18359375 C-128.1588028 115.37529648 -127.40354309 115.56699921 -126.62539673 115.76451111 C-121.29024341 117.13612829 -121.29024341 117.13612829 -119.0625 118.25 C-120.35775265 125.9533447 -122.55531564 132.72844692 -125.0625 140.25 C-150.3075 140.745 -150.3075 140.745 -176.0625 141.25 C-177.2676797 144.8655391 -178.02050426 148.52522224 -177.0625 152.25 C-175.42810887 153.62270579 -173.76258293 154.9595452 -172.0625 156.25 C-178.23714913 156.37372902 -184.41107456 156.46440144 -190.58666992 156.5246582 C-192.6867327 156.54978051 -194.78670823 156.58388458 -196.88647461 156.62719727 C-199.9076084 156.68794871 -202.92758496 156.71623263 -205.94921875 156.73828125 C-206.88585861 156.76408768 -207.82249847 156.7898941 -208.78752136 156.81648254 C-213.36531103 156.81844592 -215.40190753 156.74731985 -219.15820312 153.91943359 C-221.73894721 150.30175977 -221.73470138 148.63961033 -221.0625 144.25 C-219.87615619 140.8469687 -218.35462013 137.661325 -216.75 134.4375 C-216.07819702 133.0618689 -216.07819702 133.0618689 -215.39282227 131.65844727 C-208.58256346 117.97300259 -200.55377467 105.22876487 -191.0625 93.25 C-190.43085938 92.42628906 -189.79921875 91.60257812 -189.1484375 90.75390625 C-177.80930994 76.17169488 -164.66279635 62.54919576 -150.0625 51.25 C-149.24120605 50.61408936 -149.24120605 50.61408936 -148.40332031 49.96533203 C-120.10088798 28.21806721 -87.93760707 12.98730412 -53.0625 5.25 C-52.32209473 5.08419434 -51.58168945 4.91838867 -50.81884766 4.74755859 C-46.25536011 3.75046709 -41.68218028 2.95178242 -37.0625 2.25 C-36.41120117 2.14703613 -35.75990234 2.04407227 -35.08886719 1.93798828 C-23.43432222 0.16714648 -11.76258888 0.04204966 0 0 Z " fill="#43CBEA" transform="translate(252.0625,17.75)"/>
<path d="M0 0 C0 32.34 0 64.68 0 98 C-30.15567679 98 -30.15567679 98 -42.375 96.75 C-43.74923868 96.61778197 -45.12350707 96.48587248 -46.49780273 96.35424805 C-60.05901163 95.01976346 -73.53770957 93.1021279 -87 91 C-87.98747112 88.39628666 -88.06742059 87.20547902 -87.18652344 84.52075195 C-86.74856445 83.60253662 -86.31060547 82.68432129 -85.859375 81.73828125 C-85.12702637 80.19539429 -85.12702637 80.19539429 -84.37988281 78.62133789 C-83.84202148 77.52942139 -83.30416016 76.43750488 -82.75 75.3125 C-82.2044043 74.19286865 -81.65880859 73.0732373 -81.09667969 71.91967773 C-74.49114118 58.61797014 -66.73159677 46.24972587 -57 35 C-56.29359375 34.17242187 -55.5871875 33.34484375 -54.859375 32.4921875 C-41.55218672 17.27732537 -21.49952811 0 0 0 Z " fill="#4A94CC" transform="translate(243,34)"/>
<path d="M0 0 C0 32.34 0 64.68 0 98 C-28.78234917 92.76684561 -48.9920273 75.47134429 -65.57617188 52.06542969 C-72.77221121 41.62673066 -78.55633412 30.42881472 -84 19 C-84.45761719 18.04222656 -84.91523438 17.08445312 -85.38671875 16.09765625 C-88 10.44013158 -88 10.44013158 -88 7 C-58.35731138 2.82228356 -30.18123316 0 0 0 Z " fill="#4A94CC" transform="translate(243,380)"/>
<path d="M0 0 C14.57862788 0 28.53853077 0.17504124 42.97241211 1.54418945 C45.82888585 1.81404801 48.68657342 2.06531872 51.54492188 2.31445312 C82.1231656 5.0615828 82.1231656 5.0615828 88 8 C86.01545925 14.54545118 83.46189828 20.58944457 80.375 26.6875 C79.93478516 27.55963135 79.49457031 28.4317627 79.04101562 29.33032227 C63.71452289 59.21093607 41.69052645 85.59728492 9.08984375 96.625 C6.10499159 97.16059964 3.03252525 97 0 97 C0 64.99 0 32.98 0 0 Z " fill="#4A94CC" transform="translate(258,380)"/>
<path d="M0 0 C15.49649524 0 29.4346212 8.07790344 41 18 C41.79921875 18.66644531 42.5984375 19.33289063 43.421875 20.01953125 C63.67632101 37.47483798 77.88893308 62.5039401 88 87 C88 87.66 88 88.32 88 89 C59.28767009 95.43495904 29.33596892 97 0 97 C0 64.99 0 32.98 0 0 Z " fill="#4A94CC" transform="translate(258,35)"/>
<path d="M0 0 C25.04337116 5.63035979 49.38660694 17.86139141 70 33 C70.57476074 33.42071777 71.14952148 33.84143555 71.74169922 34.27490234 C78.85200782 39.54084478 85.51369436 45.23478474 92 51.25 C92.61101562 51.8162207 93.22203125 52.38244141 93.8515625 52.96582031 C97.85891447 56.75029643 101.49512178 60.74728604 105 65 C92.2243931 69.60125724 79.45061023 73.60797534 66.1875 76.5625 C65.01985107 76.82562988 63.85220215 77.08875977 62.64916992 77.35986328 C54.39285797 79.13095266 54.39285797 79.13095266 51 78 C49.97607422 76.3203125 49.97607422 76.3203125 49.0546875 74.125 C48.7050293 73.31345459 48.35537109 72.50190918 47.99511719 71.66577148 C47.62547852 70.78606689 47.25583984 69.9063623 46.875 69 C36.75163819 45.83466249 24.37703431 25.24195055 6.33203125 7.35546875 C4.02545098 5.02570677 2.00107049 2.59398027 0 0 Z " fill="#4A94CC" transform="translate(310,42)"/>
<path d="M0 0 C6.28699602 0.5829418 12.2040316 1.60931492 18.3125 3.1875 C19.16263672 3.4038208 20.01277344 3.6201416 20.88867188 3.84301758 C27.29594368 5.49948302 33.65691412 7.30096117 40 9.1875 C41.26324097 9.56201294 41.26324097 9.56201294 42.55200195 9.9440918 C43.33921631 10.18297119 44.12643066 10.42185059 44.9375 10.66796875 C45.97197266 10.98157349 45.97197266 10.98157349 47.02734375 11.30151367 C49.11980059 12.04241949 51.03626774 12.96898565 53 14 C48.98889012 23.72184259 37.01603349 31.72277869 29 38 C28.00355469 38.80179687 27.00710938 39.60359375 25.98046875 40.4296875 C3.70970932 58.18169178 -23.08870797 72.72486175 -51 79 C-47.83330242 75.10948583 -44.56782761 71.53578126 -41 68 C-22.66616095 49.60261211 -8.5011784 24.50339657 0 0 Z " fill="#4A94CC" transform="translate(361,391)"/>
<path d="M0 0 C-0.94359375 0.81791016 -0.94359375 0.81791016 -1.90625 1.65234375 C-25.29222635 22.25595244 -39.79850434 49.7195535 -52 78 C-59.32414869 77.30289314 -66.31068592 75.60376971 -73.4375 73.8125 C-75.29036621 73.34928345 -75.29036621 73.34928345 -77.18066406 72.87670898 C-86.67452467 70.45114791 -95.87435168 67.55900284 -105 64 C-97.19889211 54.59866485 -88.6141948 46.53155587 -79 39 C-78.07445313 38.26910156 -77.14890625 37.53820312 -76.1953125 36.78515625 C-63.37689665 26.90212289 -16.14549446 -8.07274723 0 0 Z " fill="#4A94CC" transform="translate(191,43)"/>
<path d="M0 0 C1.31103516 1.92333984 1.31103516 1.92333984 2.2890625 4.4609375 C2.85657227 5.86678101 2.85657227 5.86678101 3.43554688 7.30102539 C3.82806641 8.31543701 4.22058594 9.32984863 4.625 10.375 C12.68026454 29.98152607 23.57250595 47.40823035 37.25 63.5625 C37.73331787 64.13460205 38.21663574 64.7067041 38.71459961 65.29614258 C41.10399502 68.05288555 43.51056768 70.49211936 46.359375 72.77734375 C47.23078125 73.51082031 48.1021875 74.24429688 49 75 C49 75.66 49 76.32 49 77 C42.49088264 75.70990467 36.5731485 73.88498296 30.4375 71.375 C29.5697998 71.02308594 28.70209961 70.67117188 27.80810547 70.30859375 C19.65270608 66.94776188 11.77232119 63.16520908 4 59 C3.39994141 58.68063477 2.79988281 58.36126953 2.18164062 58.03222656 C-18.56017272 46.89226683 -39.27785882 31.50783463 -54 13 C-42.86998848 8.85296626 -31.71775264 5.38328234 -20.18457031 2.54052734 C-18.14795272 2.03660788 -16.11685649 1.51460244 -14.0859375 0.98828125 C-12.94382813 0.70339844 -11.80171875 0.41851562 -10.625 0.125 C-9.64789063 -0.11992187 -8.67078125 -0.36484375 -7.6640625 -0.6171875 C-4.68690135 -1.04499071 -2.86020331 -0.92708483 0 0 Z " fill="#4A94CC" transform="translate(140,392)"/>
<path d="M0 0 C2.24026219 2.24026219 2.52447484 3.32852692 3.296875 6.33984375 C3.53067871 7.22953857 3.76448242 8.1192334 4.00537109 9.03588867 C4.3739624 10.47218628 4.3739624 10.47218628 4.75 11.9375 C6.98078647 20.41155518 9.42082934 28.7752346 12.17089844 37.09545898 C13.17620383 40.17513448 14 42.73736786 14 46 C14.66 46 15.32 46 16 46 C16.09796875 45.40316406 16.1959375 44.80632812 16.296875 44.19140625 C17.34949061 38.08442086 18.61365956 32.03855429 20 26 C20.1659668 25.2582251 20.33193359 24.5164502 20.50292969 23.75219727 C21.29945413 20.34349518 22.03780701 17.94328949 24 15 C26.3125 14.63671875 26.3125 14.63671875 29 14.6875 C29.886875 14.69136719 30.77375 14.69523438 31.6875 14.69921875 C34 15 34 15 36 17 C36.64833333 19.08551468 37.21037868 21.19822347 37.7265625 23.3203125 C38.0359375 24.57714844 38.3453125 25.83398438 38.6640625 27.12890625 C38.98452761 28.46090079 39.30483812 29.79293254 39.625 31.125 C39.95247701 32.46500228 40.28059433 33.80484824 40.609375 35.14453125 C41.41257482 38.42820109 42.2091527 41.71333722 43 45 C44.9364757 42.09528645 45.65376236 40.12421463 46.55078125 36.80078125 C46.8348584 35.76308594 47.11893555 34.72539062 47.41162109 33.65625 C47.70891113 32.5528125 48.00620117 31.449375 48.3125 30.3125 C50.40864112 22.67898869 52.51602823 15.05706787 54.875 7.5 C55.26429688 6.2521875 55.65359375 5.004375 56.0546875 3.71875 C57 1 57 1 58 0 C65.11111111 -0.59259259 65.11111111 -0.59259259 69 2 C69.99 2.99 69.99 2.99 71 4 C70.36887866 7.42631252 69.53161864 10.67579118 68.44946289 13.98632812 C68.13566177 14.95082886 67.82186066 15.91532959 67.49855042 16.90905762 C67.16000534 17.9393811 66.82146027 18.96970459 66.47265625 20.03125 C66.12367783 21.0999231 65.7746994 22.16859619 65.41514587 23.26965332 C64.67762216 25.52608066 63.93870276 27.78205222 63.19848633 30.03759766 C62.06703151 33.48618829 60.94039452 36.9363246 59.81445312 40.38671875 C59.09663933 42.58082248 58.37854959 44.77483596 57.66015625 46.96875 C57.32363541 47.99907349 56.98711456 49.02939697 56.64039612 50.09094238 C56.32344284 51.05544312 56.00648956 52.01994385 55.67993164 53.01367188 C55.40315079 53.85796753 55.12636993 54.70226318 54.84120178 55.57214355 C51.93890467 63.94868399 51.93890467 63.94868399 49 66 C46.22265625 66.46875 46.22265625 66.46875 43.0625 66.5 C41.50208984 66.54640625 41.50208984 66.54640625 39.91015625 66.59375 C37 66 37 66 34.76171875 64.08203125 C32.38287628 59.92037557 31.60200618 55.87004217 30.75 51.1875 C30.57726562 50.30384766 30.40453125 49.42019531 30.2265625 48.50976562 C29.80472397 46.34198428 29.39634351 44.17256141 29 42 C28.89977539 42.58491211 28.79955078 43.16982422 28.69628906 43.77246094 C28.23056357 46.43480551 27.74057171 49.0921264 27.25 51.75 C27.01410156 53.13058594 27.01410156 53.13058594 26.7734375 54.5390625 C26.04703243 58.39459711 25.44850383 61.33470275 23.23828125 64.61328125 C20.32079869 66.42079662 18.35361729 66.5009966 14.9375 66.4375 C13.89464844 66.43621094 12.85179687 66.43492187 11.77734375 66.43359375 C8.55819316 65.93102594 7.99447991 65.48081411 6 63 C4.95588684 60.58486938 4.95588684 60.58486938 4.00708008 57.68994141 C3.64693314 56.6051651 3.28678619 55.52038879 2.91572571 54.40274048 C2.53748154 53.23085175 2.15923737 52.05896301 1.76953125 50.8515625 C1.37424728 49.64688324 0.97896332 48.44220398 0.57170105 47.20101929 C-0.26224292 44.65194096 -1.09248351 42.10199556 -1.91674805 39.54980469 C-2.97141082 36.28560461 -4.04069004 33.02642364 -5.11471081 29.76854897 C-6.13991336 26.65281166 -7.1535117 23.53331193 -8.16796875 20.4140625 C-8.74444405 18.66230209 -8.74444405 18.66230209 -9.33256531 16.87515259 C-9.858601 15.23853165 -9.858601 15.23853165 -10.39526367 13.56884766 C-10.86134285 12.13347153 -10.86134285 12.13347153 -11.33683777 10.6690979 C-12.0079217 7.96811673 -12.23723712 5.76942672 -12 3 C-8.7080896 -0.97772507 -4.76284298 -0.38410024 0 0 Z " fill="#F4F1F1" transform="translate(248,223)"/>
<path d="M0 0 C1.54010742 0.02030273 1.54010742 0.02030273 3.11132812 0.04101562 C5.63725909 0.07626117 8.1621066 0.125533 10.6875 0.1875 C8.6875 2.1875 8.6875 2.1875 5.6875 3.1875 C5.33113571 8.64648878 6.03697515 11.61293954 8.94921875 16.22265625 C9.29182236 16.77503967 9.63442596 17.3274231 9.9874115 17.89654541 C10.72246289 19.07775237 11.46451925 20.25462447 12.21295166 21.42739868 C13.38779535 23.27006872 14.54181925 25.1243359 15.69091797 26.9831543 C18.00859201 30.72709627 20.34626888 34.45825782 22.6875 38.1875 C25.25392915 42.27705555 27.79448958 46.38049093 30.3125 50.5 C31.15494263 51.82173218 31.15494263 51.82173218 32.0144043 53.17016602 C32.76911011 54.41044556 32.76911011 54.41044556 33.5390625 55.67578125 C33.98072754 56.38259033 34.42239258 57.08939941 34.87744141 57.81762695 C36.06764649 61.29964043 35.54248218 63.62791947 34.6875 67.1875 C33.45414867 69.70055869 32.21521908 71.97929286 30.75 74.34375 C30.15155273 75.34094055 30.15155273 75.34094055 29.54101562 76.35827637 C28.26739738 78.47482489 26.9779304 80.58116896 25.6875 82.6875 C24.85178332 84.06965929 24.0171392 85.45246771 23.18359375 86.8359375 C16.48841543 97.92605395 16.48841543 97.92605395 13.08984375 103.31640625 C12.67541016 103.98313354 12.26097656 104.64986084 11.83398438 105.33679199 C11.05473115 106.59009618 10.26631109 107.83776975 9.46679688 109.07824707 C6.63398512 113.66759704 5.6875 117.82436475 5.6875 123.1875 C7.3375 123.5175 8.9875 123.8475 10.6875 124.1875 C10.6875 124.5175 10.6875 124.8475 10.6875 125.1875 C7.12515572 125.27491124 3.56308892 125.32802896 0 125.375 C-1.00740234 125.40013672 -2.01480469 125.42527344 -3.05273438 125.45117188 C-7.18144012 125.49205015 -10.58482823 125.43123902 -14.51953125 124.11328125 C-16.3125 122.1875 -16.3125 122.1875 -17 119.171875 C-16.57041505 113.6162966 -13.16367755 109.05902897 -10.3125 104.4375 C-9.69689209 103.40778076 -9.08128418 102.37806152 -8.44702148 101.31713867 C-5.68131835 96.69771185 -2.87392142 92.10416968 -0.06298828 87.51220703 C1.81464109 84.44426828 3.67917866 81.36864486 5.5378418 78.28918457 C6.61159816 76.522056 7.70266803 74.7664787 8.79492188 73.01074219 C9.44912109 71.93083008 10.10332031 70.85091797 10.77734375 69.73828125 C11.36378662 68.78606689 11.95022949 67.83385254 12.55444336 66.8527832 C13.91696526 63.64773008 13.82972188 62.4449123 12.6875 59.1875 C11.71209187 57.27562392 10.65585978 55.40402533 9.546875 53.56640625 C8.89396484 52.47618164 8.24105469 51.38595703 7.56835938 50.26269531 C7.2205542 49.68958618 6.87274902 49.11647705 6.5144043 48.52600098 C5.42690441 46.73252604 4.34989995 44.93311968 3.27539062 43.13183594 C-0.19832539 37.31684695 -3.71258177 31.5286506 -7.265625 25.76171875 C-7.86600586 24.77550537 -8.46638672 23.78929199 -9.08496094 22.77319336 C-10.21030666 20.92597875 -11.34840423 19.0864537 -12.50097656 17.25610352 C-15.37157024 12.52566924 -17.5286485 8.89181558 -16.3125 3.1875 C-12.17223843 -1.25944761 -5.61530132 -0.14011308 0 0 Z " fill="#D83530" transform="translate(16.3125,192.8125)"/>
<path d="M0 0 C1.24716797 -0.08121094 1.24716797 -0.08121094 2.51953125 -0.1640625 C7.76490677 1.38727843 10.26910091 6.04212851 12.88110352 10.54394531 C14.66101914 13.85897872 16.37293351 17.20056849 18.0625 20.5625 C18.65546875 21.72330078 19.2484375 22.88410156 19.859375 24.08007812 C21.31067487 26.9241577 22.75306246 29.77238911 24.1875 32.625 C24.20731934 31.72668457 24.22713867 30.82836914 24.24755859 29.90283203 C24.32559261 26.57409922 24.41228114 23.24582744 24.50488281 19.91748047 C24.54319674 18.4761626 24.57804543 17.03474832 24.609375 15.59326172 C24.65497446 13.52276114 24.71297444 11.45292567 24.7734375 9.3828125 C24.8048584 8.1364502 24.8362793 6.89008789 24.86865234 5.60595703 C25.1875 2.625 25.1875 2.625 27.1875 0.625 C29.5 0.359375 29.5 0.359375 32.1875 0.375 C33.074375 0.36984375 33.96125 0.3646875 34.875 0.359375 C37.1875 0.625 37.1875 0.625 39.1875 2.625 C39.45492554 5.16111755 39.45492554 5.16111755 39.47802734 8.40405273 C39.49078705 9.61548447 39.50354675 10.8269162 39.51669312 12.07505798 C39.51891876 13.38962479 39.52114441 14.70419159 39.5234375 16.05859375 C39.52986219 17.41618492 39.5365903 18.77377469 39.54360962 20.13136292 C39.55559345 22.97863984 39.55928931 25.82579533 39.55810547 28.6730957 C39.55790217 32.32304888 39.58520873 35.97222431 39.61964989 39.62199306 C39.64187906 42.42641277 39.64594427 45.2306441 39.64488602 48.0351429 C39.64839694 50.03548563 39.6700856 52.03576957 39.69198608 54.03599548 C39.68583282 55.25057938 39.67967957 56.46516327 39.67333984 57.71655273 C39.67618988 58.78751694 39.67903992 59.85848114 39.68197632 60.9618988 C39.1875 63.625 39.1875 63.625 37.28213501 65.46498108 C35.06105575 66.69502543 33.70979295 67.08558917 31.1875 67.125 C30.5275 67.1559375 29.8675 67.186875 29.1875 67.21875 C24.31697004 65.77281142 21.80758894 59.39947212 19.515625 55.23046875 C19.18834412 54.63825027 18.86106323 54.0460318 18.52386475 53.43586731 C17.49062319 51.56382417 16.46397354 49.68826107 15.4375 47.8125 C14.73350739 46.53426583 14.02908439 45.25626859 13.32421875 43.97851562 C11.60699637 40.86339994 9.89566228 37.74509493 8.1875 34.625 C8.1781543 35.48778564 8.16880859 36.35057129 8.15917969 37.23950195 C8.11514278 40.4436184 8.05352106 43.64677728 7.97998047 46.8503418 C7.95177203 48.23628396 7.93055667 49.62238696 7.91650391 51.00854492 C7.89507579 53.00207404 7.84632986 54.99525046 7.796875 56.98828125 C7.77592773 58.18751221 7.75498047 59.38674316 7.73339844 60.62231445 C7.1875 63.625 7.1875 63.625 5.36816406 65.51635742 C2.16259028 67.14606079 -0.27290279 67.00424256 -3.8125 66.625 C-5.99989319 65.46411133 -5.99989319 65.46411133 -7.8125 63.625 C-8.31370544 61.0065918 -8.31370544 61.0065918 -8.31420898 57.82421875 C-8.32358994 56.6328833 -8.33297089 55.44154785 -8.34263611 54.21411133 C-8.33140213 52.92657959 -8.32016815 51.63904785 -8.30859375 50.3125 C-8.30874872 48.97875896 -8.31023742 47.64501747 -8.31300354 46.3112793 C-8.31438788 43.51688717 -8.30182485 40.7230081 -8.27905273 37.92871094 C-8.250667 34.34722528 -8.25340445 30.76659208 -8.26614285 27.18504333 C-8.27309869 24.43120037 -8.26531203 21.67755438 -8.25288582 18.92373657 C-8.24617456 16.96113195 -8.25051477 14.99849966 -8.25498962 13.03588867 C-8.24230545 11.84455322 -8.22962128 10.65321777 -8.21655273 9.42578125 C-8.21114975 8.37559814 -8.20574677 7.32541504 -8.20018005 6.2434082 C-7.8125 3.625 -7.8125 3.625 -6.42909241 1.79614258 C-4.24188588 0.21161782 -2.68687592 0.09080072 0 0 Z " fill="#F4F1F0" transform="translate(138.8125,222.375)"/>
<path d="M0 0 C25.08 0 50.16 0 76 0 C74.32487225 5.02538324 72.56930059 8.97363881 70 13.5 C69.41593384 14.53471436 69.41593384 14.53471436 68.82006836 15.59033203 C64.3500434 23.35233212 59.36071846 31.63928154 53 38 C46.20797471 36.83546048 39.65694534 34.78698684 33.0625 32.8125 C20.10282901 28.97764161 7.06363117 25.46148065 -6 22 C-5.5657452 20.20754401 -5.12737599 18.41608481 -4.6875 16.625 C-4.44386719 15.62726563 -4.20023437 14.62953125 -3.94921875 13.6015625 C-2.74602517 9.03635887 -1.35659731 4.52199102 0 0 Z " fill="#4A94CC" transform="translate(373,354)"/>
<path d="M0 0 C10.86332904 5.26838803 20.07762021 28.20211542 24.94921875 37.9453125 C-0.46078125 37.9453125 -25.87078125 37.9453125 -52.05078125 37.9453125 C-57.05078125 19.9453125 -57.05078125 19.9453125 -58.05078125 15.9453125 C-53.44030114 13.87434481 -48.70635476 12.86450181 -43.80078125 11.7578125 C-35.32474455 9.79383433 -26.92904702 7.6037024 -18.55078125 5.2578125 C-17.48311523 4.96044189 -16.41544922 4.66307129 -15.31542969 4.35668945 C-9.7653402 2.80587953 -9.7653402 2.80587953 -4.3527832 0.8449707 C-2.05078125 -0.0546875 -2.05078125 -0.0546875 0 0 Z " fill="#4A94CC" transform="translate(425.05078125,120.0546875)"/>
<path d="M0 0 C6.72523851 1.62196929 13.40451165 3.37398805 20.0625 5.25 C29.38184692 7.87576254 38.75487817 10.2860487 48.13696289 12.67675781 C49.25707764 12.96389648 50.37719238 13.25103516 51.53125 13.546875 C52.53736328 13.80307617 53.54347656 14.05927734 54.58007812 14.32324219 C57 15 57 15 59 16 C57.70474735 23.7033447 55.50718436 30.47844692 53 38 C27.92 38 2.84 38 -23 38 C-14.95406977 21.90813953 -14.95406977 21.90813953 -9.8125 14.5 C-9.30525391 13.75492188 -8.79800781 13.00984375 -8.27539062 12.2421875 C-7.3009891 10.81154868 -6.32348765 9.38301421 -5.34228516 7.95703125 C-3.5349691 5.32199206 -1.76558967 2.66313286 0 0 Z " fill="#4A94CC" transform="translate(74,120)"/>
<path d="M0 0 C25.08 0 50.16 0 76 0 C82.32244793 17.38673181 82.32244793 17.38673181 81 23 C80.23260498 23.17015625 79.46520996 23.3403125 78.67456055 23.515625 C60.20011777 27.64209147 42.08317502 32.37133067 24 38 C0 7.74542872 0 7.74542872 0 0 Z " fill="#4A94CC" transform="translate(51,354)"/>
<path d="M0 0 C0.76171509 -0.00524185 1.52343018 -0.0104837 2.30822754 -0.0158844 C3.91527083 -0.02229471 5.52236109 -0.02098039 7.12939453 -0.01245117 C9.58581102 -0.00393378 12.03990647 -0.03272389 14.49609375 -0.06445312 C16.05989514 -0.06606515 17.62370063 -0.06548759 19.1875 -0.0625 C20.28608337 -0.07935097 20.28608337 -0.07935097 21.40686035 -0.09654236 C24.83910725 -0.0497102 26.78072438 0.20783533 29.59570312 2.23803711 C31.09375 4.43359375 31.09375 4.43359375 30.96875 8.05859375 C30.09375 11.43359375 30.09375 11.43359375 28.09375 13.43359375 C25.47998047 13.66064453 25.47998047 13.66064453 22.2109375 13.62890625 C21.04433594 13.62246094 19.87773437 13.61601562 18.67578125 13.609375 C17.45246094 13.59261719 16.22914063 13.57585937 14.96875 13.55859375 C13.73769531 13.54957031 12.50664062 13.54054687 11.23828125 13.53125 C8.19002194 13.50762008 5.14186211 13.47174814 2.09375 13.43359375 C2.09375 18.38359375 2.09375 23.33359375 2.09375 28.43359375 C6.89565992 28.31524254 6.89565992 28.31524254 11.6965332 28.16333008 C14.58915761 28.12730302 16.62311701 28.13058347 19.08984375 29.71875 C20.79888189 32.63807974 19.79671608 35.27024641 19.09375 38.43359375 C18.09375 39.43359375 18.09375 39.43359375 14.49609375 39.53125 C13.00777745 39.52550647 11.51948704 39.51249266 10.03125 39.49609375 C7.411875 39.47546875 4.7925 39.45484375 2.09375 39.43359375 C2.09375 44.71359375 2.09375 49.99359375 2.09375 55.43359375 C4.01960937 55.39878906 5.94546875 55.36398437 7.9296875 55.328125 C10.44269965 55.29999427 12.95572118 55.27269335 15.46875 55.24609375 C16.73976562 55.22095703 18.01078125 55.19582031 19.3203125 55.16992188 C21.13789063 55.15541992 21.13789063 55.15541992 22.9921875 55.140625 C24.11286621 55.12491455 25.23354492 55.1092041 26.38818359 55.09301758 C27.72743896 55.26160278 27.72743896 55.26160278 29.09375 55.43359375 C31.40657587 58.90283256 31.51853586 60.3556495 31.09375 64.43359375 C30.09179688 66.09838867 30.09179688 66.09838867 28.09375 67.43359375 C25.2580947 67.71974875 22.64678509 67.83015125 19.8125 67.796875 C19.0026062 67.7973735 18.1927124 67.79787201 17.35827637 67.79838562 C15.6468663 67.79604633 13.93545272 67.7863263 12.22412109 67.76977539 C9.60352842 67.74618179 6.98395315 67.74921542 4.36328125 67.75585938 C2.70051476 67.75028251 1.03775256 67.74317258 -0.625 67.734375 C-1.40943481 67.73528641 -2.19386963 67.73619781 -3.0020752 67.73713684 C-6.82464646 67.68728202 -8.65099967 67.60376063 -11.90625 65.43359375 C-12.29393005 62.85951233 -12.29393005 62.85951233 -12.31030273 59.56274414 C-12.32298691 58.33129166 -12.33567108 57.09983917 -12.34873962 55.83106995 C-12.34668816 54.48112827 -12.34370012 53.13118773 -12.33984375 51.78125 C-12.34440294 50.4012374 -12.34970772 49.02122709 -12.35572815 47.64122009 C-12.36467157 44.74680365 -12.3622228 41.85266293 -12.35229492 38.95825195 C-12.34080849 35.24772626 -12.36100384 31.53815267 -12.39021206 27.82775211 C-12.40855426 24.97698411 -12.4082856 22.12644505 -12.40257454 19.27563286 C-12.40242105 17.9076752 -12.40848826 16.53970228 -12.42086601 15.17180061 C-12.43573215 13.25919931 -12.42249161 11.34644176 -12.40795898 9.43383789 C-12.40779282 8.3451088 -12.40762665 7.2563797 -12.40745544 6.13465881 C-11.90625 3.43359375 -11.90625 3.43359375 -10.10011292 1.58383179 C-6.82919775 -0.13110264 -3.60747547 -0.01445986 0 0 Z " fill="#F4F1F1" transform="translate(199.90625,221.56640625)"/>
<path d="M0 0 C1.72265625 1.3828125 1.72265625 1.3828125 3 3 C2.66666667 9.33333333 2.66666667 9.33333333 0 12 C-3.00060758 12.2609224 -5.18152574 12.43561208 -7.87890625 11 C-10.4218426 9.80112025 -12.26243779 9.73310671 -15.0625 9.75 C-15.91972656 9.74484375 -16.77695312 9.7396875 -17.66015625 9.734375 C-20.27052798 9.85007512 -20.27052798 9.85007512 -23 12 C-23.25030977 14.58380177 -23.25030977 14.58380177 -23 17 C-22.42556152 17.29656494 -21.85112305 17.59312988 -21.25927734 17.89868164 C-18.62277927 19.27111621 -15.99909652 20.66650985 -13.375 22.0625 C-12.01955078 22.76149414 -12.01955078 22.76149414 -10.63671875 23.47460938 C-4.35479392 26.84483912 0.74610037 30.49220075 4 37 C4.14977039 39.24655587 4.22150174 41.49863768 4.25 43.75 C4.27578125 44.96171875 4.3015625 46.1734375 4.328125 47.421875 C3.83420543 52.80795028 1.87184 56.74450991 -2.25 60.25 C-8.71650437 65.39625973 -16.02505201 65.70763623 -24 65 C-30.32598143 63.8050924 -35.97645797 61.17670672 -40 56 C-40.70595593 52.47022037 -40.4009638 50.84647914 -38.875 47.625 C-37 46 -37 46 -34.3125 45.4375 C-30.99989436 46.00001794 -29.80578949 46.65136128 -27.125 48.5 C-22.81485586 51.41471433 -20.14736709 51.60052616 -15 51 C-12.59442147 50.13734032 -12.59442147 50.13734032 -11 49 C-10.32987578 46.2140814 -10.32987578 46.2140814 -11 43 C-14.05063018 40.1544542 -17.98748288 38.49819945 -21.69921875 36.671875 C-28.36313892 33.28879698 -34.42853354 29.80749132 -38 23 C-39.18948503 16.82867179 -39.44465465 10.33580455 -35.9375 4.875 C-27.1543927 -4.97800422 -11.27526864 -5.63763432 0 0 Z " fill="#F4F1F1" transform="translate(361,225)"/>
<path d="M0 0 C1.57575806 0.21148682 1.57575806 0.21148682 3.18334961 0.42724609 C33.47496213 4.47613577 63.44278605 7.22143194 94 8 C94 11.63 94 15.26 94 19 C61 19 28 19 -6 19 C-2.625 5.5 -2.625 5.5 0 0 Z " fill="#4A95CC" transform="translate(149,139)"/>
<path d="M0 0 C0.84080019 2.41429769 1.67281402 4.83103993 2.5 7.25 C2.85771484 8.27287109 2.85771484 8.27287109 3.22265625 9.31640625 C4.39421287 12.76413003 5 15.31702904 5 19 C-27.67 19 -60.34 19 -94 19 C-94 15.37 -94 11.74 -94 8 C-92.21722656 7.96261719 -90.43445313 7.92523438 -88.59765625 7.88671875 C-61.96840857 7.22361461 -34.43661418 6.20043214 -8.359375 0.4140625 C-5.54347885 -0.08011795 -2.85296511 -0.06634803 0 0 Z " fill="#4A95CC" transform="translate(352,139)"/>
<path d="M0 0 C32.67 0 65.34 0 99 0 C96.75 11.25 96.75 11.25 95.375 15.125 C95.11460937 15.87007813 94.85421875 16.61515625 94.5859375 17.3828125 C94.29589844 18.18332031 94.29589844 18.18332031 94 19 C85.65397868 18.05913553 77.32211763 17.06194209 69.00537109 15.88745117 C45.9874736 12.65075054 23.21614923 11.50014648 0 11 C0 7.37 0 3.74 0 0 Z " fill="#4A95CC" transform="translate(258,354)"/>
<path d="M0 0 C33 0 66 0 100 0 C100 3.3 100 6.6 100 10 C98.77821045 10.07516846 97.5564209 10.15033691 96.29760742 10.2277832 C68.22205833 11.96798383 40.26584851 13.73605624 12.5 18.44921875 C9 19 9 19 6 19 C4.99758612 16.02163997 3.99847479 13.04218266 3 10.0625 C2.71382812 9.21236328 2.42765625 8.36222656 2.1328125 7.48632812 C1.86210937 6.67744141 1.59140625 5.86855469 1.3125 5.03515625 C1.06113281 4.2862915 0.80976563 3.53742676 0.55078125 2.76586914 C0 1 0 1 0 0 Z " fill="#4A94CC" transform="translate(143,354)"/>
<path d="M0 0 C2.38038459 2.06576528 4.42458738 4.38291405 6.5 6.75 C7.74829678 8.12654645 8.99833274 9.50151754 10.25 10.875 C10.87777344 11.56851562 11.50554687 12.26203125 12.15234375 12.9765625 C28.84751603 31.26007041 48.47608453 45.37560252 70.08203125 57.37890625 C74.69113145 59.93951747 79.03850616 62.49124831 83 66 C83 66.66 83 67.32 83 68 C76.49088264 66.70990467 70.5731485 64.88498296 64.4375 62.375 C63.5697998 62.02308594 62.70209961 61.67117188 61.80810547 61.30859375 C53.65270608 57.94776188 45.77232119 54.16520908 38 50 C37.39994141 49.68063477 36.79988281 49.36126953 36.18164062 49.03222656 C15.43982728 37.89226683 -5.27785882 22.50783463 -20 4 C-17.60872043 3.13071724 -15.21338274 2.27948399 -12.8125 1.4375 C-12.13896484 1.19064453 -11.46542969 0.94378906 -10.77148438 0.68945312 C-3.84661509 -1.70891624 -3.84661509 -1.70891624 0 0 Z " fill="#3C8ABA" transform="translate(106,401)"/>
<path d="M0 0 C-5.00041446 5.22265511 -10.14334805 8.81183892 -16.625 11.875 C-33.44732981 19.86787568 -48.24644152 31.5026337 -61.89453125 44.08203125 C-63.61685185 45.65097265 -65.36108928 47.11958759 -67.1875 48.5625 C-71.71628333 52.48744555 -75.4803734 57.08359701 -79.19921875 61.7734375 C-85.07416455 68.89518844 -85.07416455 68.89518844 -89.3125 69.375 C-90.529375 68.92125 -91.74625 68.4675 -93 68 C-95.14535261 67.31100137 -97.29122047 66.62360575 -99.4375 65.9375 C-101.29369242 65.29751218 -103.14856606 64.6536261 -105 64 C-97.19889211 54.59866485 -88.6141948 46.53155587 -79 39 C-78.07445313 38.26910156 -77.14890625 37.53820312 -76.1953125 36.78515625 C-63.37689665 26.90212289 -16.14549446 -8.07274723 0 0 Z " fill="#3C8ABA" transform="translate(191,43)"/>
<path d="M0 0 C6.85921925 1.61191652 13.46207289 3.35968328 20 6 C18.67473564 9.60446296 17.0639411 12.62032483 14.9375 15.8125 C10.26178746 23.01349188 6.16876266 30.49622722 2 38 C-6.25 38 -14.5 38 -23 38 C-17.98546562 27.28713111 -12.04242879 17.69435939 -5.34228516 7.95703125 C-3.5349691 5.32199206 -1.76558967 2.66313286 0 0 Z " fill="#3C8ABA" transform="translate(74,120)"/>
<path d="M0 0 C8.25 0 16.5 0 25 0 C25.88042969 1.57910156 26.76085937 3.15820312 27.66796875 4.78515625 C28.84093258 6.87772372 30.01412156 8.97016499 31.1875 11.0625 C31.76564453 12.10083984 32.34378906 13.13917969 32.93945312 14.20898438 C35.4359355 18.65187675 37.90476939 23.01102576 40.92578125 27.12109375 C43 30 43 30 43 32 C34.09 34.97 34.09 34.97 25 38 C14.50715097 27.50715097 6.87464973 14.09493967 0 1 C0 0.67 0 0.34 0 0 Z " fill="#3C8ABA" transform="translate(51,354)"/>
</svg>
