<?xml version="1.0" encoding="UTF-8"?>
<svg version="1.1" xmlns="http://www.w3.org/2000/svg" width="512" height="512">
<path d="M0 0 C3.72268672 2.61923824 6.81940469 5.75734429 10 9 C10.69996094 9.65355469 11.39992187 10.30710937 12.12109375 10.98046875 C18.09970268 16.61105055 18.09970268 16.61105055 19 21 C19.141362 27.36128997 15.09774701 30.66878606 11 35 C9.68137164 36.49461551 8.36858509 37.99441108 7.0625 39.5 C6.04202992 40.66698441 5.02125849 41.83370549 4 43 C5.21558594 43.38800781 6.43117187 43.77601562 7.68359375 44.17578125 C13.91321467 46.25232156 19.97712773 48.72596165 26.0625 51.1875 C27.21427734 51.65091797 28.36605469 52.11433594 29.55273438 52.59179688 C32.36945374 53.7254972 35.18517147 54.86161501 38 56 C38.65597168 55.3387915 39.31194336 54.67758301 39.98779297 53.99633789 C42.41971036 51.54739147 44.85385365 49.10070247 47.28955078 46.65551758 C48.3438403 45.59619526 49.39723109 44.53597771 50.44970703 43.47485352 C51.96151857 41.95093039 53.47651902 40.43024216 54.9921875 38.91015625 C55.90339355 37.99371338 56.81459961 37.07727051 57.75341797 36.13305664 C60.87416004 33.17001345 63.28202299 32.35487317 67.65234375 32.39453125 C72.82472006 33.72850517 76.36838089 38.29752003 80 42 C80.69996094 42.65355469 81.39992188 43.30710938 82.12109375 43.98046875 C88.09970268 49.61105055 88.09970268 49.61105055 89 54 C89.12191185 59.48603346 86.42613614 62.24682039 82.88671875 66.0703125 C80.93932304 68.06205884 78.97108534 70.03172721 77 72 C86.57632508 76.50749405 96.35067026 80.5368532 106.12719727 84.58544922 C108.95668429 85.75794971 111.78404763 86.93547161 114.61132812 88.11328125 C116.41654088 88.86228239 118.22187506 89.61099098 120.02734375 90.359375 C120.86901596 90.71038269 121.71068817 91.06139038 122.5778656 91.42303467 C123.3629097 91.74717346 124.1479538 92.07131226 124.95678711 92.40527344 C125.64308701 92.68997498 126.3293869 92.97467651 127.03648376 93.26800537 C129.00477231 94.00177911 130.95391966 94.53121566 133 95 C137.67338493 89.9067838 142.23428548 84.76641704 146.5625 79.375 C149.87033629 75.28478851 153.33368356 71.54398858 157.11328125 67.890625 C158.97139947 66.02865974 160.6347454 64.08696399 162.3125 62.0625 C166.66579912 57.03419495 171.74457425 53.0476571 177 49 C177.57314941 48.55720703 178.14629883 48.11441406 178.73681641 47.65820312 C204.04291022 28.23075237 232.4315174 17.25571093 264 13 C264.95132812 12.86851563 265.90265625 12.73703125 266.8828125 12.6015625 C269.25863616 12.31890824 271.61118997 12.13121089 274 12 C275.03511719 11.93554688 276.07023437 11.87109375 277.13671875 11.8046875 C285.96416714 11.4971109 292.33014508 13.09431249 299.8125 17.75 C306.70630537 24.84077124 309.16560645 32.21852208 309.09594727 41.95239258 C307.71088805 85.94652527 289.29486172 126.50097021 259 158 C257.71029297 159.35158203 257.71029297 159.35158203 256.39453125 160.73046875 C251.47668492 165.77341133 246.30671564 170.28185717 240.83203125 174.70703125 C239.43017578 175.84205078 239.43017578 175.84205078 238 177 C237.48099121 177.41813965 236.96198242 177.8362793 236.42724609 178.26708984 C234.84970357 179.55343811 233.29842901 180.86633357 231.75 182.1875 C230.81671875 182.96480469 229.8834375 183.74210938 228.921875 184.54296875 C226.69617064 186.82717446 226.69617064 186.82717446 227.16821289 189.63037109 C228.18604815 193.75369431 229.70286197 197.48072683 231.38671875 201.37109375 C231.89595634 202.57017113 231.89595634 202.57017113 232.41548157 203.79347229 C233.50002934 206.34414414 234.59335315 208.890933 235.6875 211.4375 C237.11063048 214.76844332 238.53022246 218.10088748 239.94921875 221.43359375 C240.46619827 222.64527725 240.46619827 222.64527725 240.99362183 223.88143921 C244.11108919 231.20936271 247.08474081 238.5894237 250 246 C250.49580566 245.57001709 250.99161133 245.14003418 251.50244141 244.69702148 C252.73179043 243.63512361 253.96867763 242.58192104 255.2109375 241.53515625 C257.05756694 239.99003237 257.05756694 239.99003237 258.875 238.125 C262.62424838 236.1401038 265.90348291 235.89906103 270 237 C276.62086434 241.48119476 284.36863736 248.73727472 288 256 C288.52789097 259.29931856 288.72850251 261.81153058 286.9296875 264.74609375 C285.04871804 266.94370882 283.05600613 268.96335971 281 271 C279.8052901 272.20633891 278.61134375 273.41343427 277.41796875 274.62109375 C273.96585481 278.10177752 270.48812052 281.55542051 267 285 C269.41273705 292.68957353 272.45327971 300.03268947 275.625 307.4375 C276.37910156 309.21157227 276.37910156 309.21157227 277.1484375 311.02148438 C279.46314516 316.56150116 279.46314516 316.56150116 282 322 C282.90363281 321.08476562 283.80726563 320.16953125 284.73828125 319.2265625 C285.92955423 318.02590942 287.12096783 316.82539585 288.3125 315.625 C288.90740234 315.02171875 289.50230469 314.4184375 290.11523438 313.796875 C290.98051758 312.92675781 290.98051758 312.92675781 291.86328125 312.0390625 C292.39219971 311.50490723 292.92111816 310.97075195 293.46606445 310.42041016 C297.14148211 307.01700733 299.77604376 306.37516834 304.60546875 306.5 C309.18886313 307.45705462 311.85744914 310.72029796 315 314 C315.81339844 314.79148437 316.62679688 315.58296875 317.46484375 316.3984375 C325.13162744 323.88354385 325.13162744 323.88354385 325.625 329 C325.46175785 335.87793594 320.68718269 339.5156086 316 344 C313.73880768 346.16599524 311.48198128 348.33565308 309.23803711 350.51953125 C307.67458921 352.03662007 306.0960441 353.53831794 304.50219727 355.0234375 C303.77701904 355.72339844 303.05184082 356.42335938 302.3046875 357.14453125 C301.3144458 358.07809448 301.3144458 358.07809448 300.30419922 359.03051758 C298.76884199 360.9263928 298.76884199 360.9263928 299.11401367 363.29711914 C300.20898895 366.63756315 301.49263539 369.87089213 302.87109375 373.1015625 C303.45153651 374.49333757 304.03160237 375.88526987 304.61132812 377.27734375 C305.51964347 379.44450947 306.43119148 381.61014788 307.34985352 383.77294922 C313.03628038 397.19568674 317.5036134 409.56720584 312.4375 424 C307.86056575 434.26079873 299.1735274 442.14313856 291.3125 449.9375 C290.38888672 450.86884766 289.46527344 451.80019531 288.51367188 452.75976562 C287.61841797 453.65244141 286.72316406 454.54511719 285.80078125 455.46484375 C284.99809814 456.265271 284.19541504 457.06569824 283.3684082 457.89038086 C277.97935047 462.69059196 273.1557638 464.29632764 266 464 C257.9841388 462.29291845 253.59019492 455.21065518 249 449 C248.50258301 448.3301709 248.00516602 447.6603418 247.49267578 446.97021484 C245.20403066 443.88244825 242.92311702 440.78924853 240.65478516 437.68652344 C236.09934704 431.45788226 231.44505706 425.31139119 226.75 419.1875 C222.00407109 412.99141058 217.34541296 406.75935032 212.85742188 400.37451172 C208.45738541 394.15683251 203.79738151 388.13827295 199.16625977 382.09204102 C194.10880554 375.48008757 189.14221363 368.80777108 184.21972656 362.0949707 C180.01727971 356.36809519 175.7699095 350.67672653 171.5 345 C166.64790366 338.54927217 161.83597343 332.07159697 157.0625 325.5625 C151.41309628 317.86540818 145.65475649 310.25620761 139.85571289 302.67138672 C133.85256107 294.81901355 127.91434296 286.91939483 122 279 C118.32043709 280.56232021 115.83484207 282.83584082 112.9375 285.5625 C109.22521409 289.01462571 105.45183862 292.31925184 101.5 295.5 C96.74260332 299.33835414 92.24216082 303.39622359 87.74609375 307.53515625 C85.08124834 309.92707297 82.35168175 312.19254884 79.5625 314.4375 C75.56776014 317.65943101 71.75445651 321.00655495 68 324.5 C63.38995664 328.78955113 58.62217044 332.80410672 53.71484375 336.75390625 C50.89326505 339.0883059 48.19409288 341.51990598 45.5 344 C41.02665889 348.11700099 36.40292622 351.97738931 31.671875 355.79296875 C29.1014095 357.91623338 26.64080637 360.11811849 24.1875 362.375 C13.4871335 372.09646862 1.69562822 380.53131682 -10 389 C-4.71326624 401.38347106 0.73192943 413.67837699 6.4375 425.875 C10.81097129 435.22708105 15.09483073 444.61122955 19.25 454.0625 C19.71591553 455.12130371 20.18183105 456.18010742 20.66186523 457.27099609 C23.26934409 463.23137033 25.18701926 467.97594395 25.375 474.5625 C25.42398438 475.71878906 25.47296875 476.87507813 25.5234375 478.06640625 C24.26712787 487.50747938 18.722871 494.12578875 12.125 500.625 C11.10212891 501.70201172 11.10212891 501.70201172 10.05859375 502.80078125 C6.80364716 506.05572784 4.88514496 507.8147371 0.3046875 508.7734375 C-3.79266077 507.81448365 -5.5103821 506.20289938 -8 503 C-8.54769043 502.31518555 -9.09538086 501.63037109 -9.65966797 500.92480469 C-11.61756268 498.43123498 -13.53083054 495.90793598 -15.4375 493.375 C-16.14052246 492.4471167 -16.84354492 491.5192334 -17.56787109 490.56323242 C-22.72454187 483.74006951 -27.79813342 476.85791448 -32.84936523 469.95654297 C-37.36035794 463.81432309 -42.0139363 457.79476289 -46.72631836 451.80615234 C-49.85342958 447.81576609 -52.90792011 443.78621525 -55.88671875 439.68359375 C-56.52287109 438.80767578 -57.15902344 437.93175781 -57.81445312 437.02929688 C-59.03990469 435.33359904 -60.25893384 433.63323661 -61.47070312 431.92773438 C-62.02048828 431.16654297 -62.57027344 430.40535156 -63.13671875 429.62109375 C-63.61842529 428.9448999 -64.10013184 428.26870605 -64.59643555 427.57202148 C-66.01780417 425.71792419 -66.01780417 425.71792419 -69 425 C-71.58439267 426.04190605 -74.01452112 427.13462768 -76.5 428.375 C-83.52842371 431.80219328 -89.44146823 434.55864235 -97.3125 432.3515625 C-103.96894356 429.72046825 -107.76280788 425.76255038 -111.375 419.6875 C-113.55438818 410.31613083 -110.98641243 403.50060341 -107 395 C-105.9851891 392.67273979 -104.99240609 390.33695627 -104 388 C-112.672562 380.92194492 -121.48720599 374.09895677 -130.52661133 367.49560547 C-136.57512314 363.07027674 -142.5501183 358.55691263 -148.5 354 C-156.86384402 347.59823673 -165.30444434 341.31052657 -173.80078125 335.0859375 C-174.49381348 334.57643555 -175.1868457 334.06693359 -175.90087891 333.54199219 C-177.3586843 332.47110374 -178.8195214 331.40433503 -180.28271484 330.34082031 C-181.00797363 329.80811523 -181.73323242 329.27541016 -182.48046875 328.7265625 C-183.45922974 328.01234131 -183.45922974 328.01234131 -184.45776367 327.28369141 C-186.83628937 325.30390858 -187.00625367 323.96091454 -187.5 320.875 C-186.78138627 315.30574356 -183.87716976 312.85436288 -180 309 C-179.13761719 308.06607422 -179.13761719 308.06607422 -178.2578125 307.11328125 C-172.0148228 300.48190279 -166.07852719 296.83122748 -157.1015625 295.06640625 C-146.39439337 294.83715956 -137.07103459 299.77912708 -127.5625 304.125 C-125.98794933 304.83495466 -124.41299078 305.54400535 -122.83764648 306.25219727 C-114.54954338 309.98661812 -106.28954342 313.7822579 -98.03125 317.58203125 C-97.23065659 317.94987732 -96.43006317 318.31772339 -95.60520935 318.69671631 C-91.75242914 320.4672778 -87.90262574 322.2436857 -84.05883789 324.03369141 C-82.66559079 324.67754616 -81.27228348 325.32127065 -79.87890625 325.96484375 C-79.25338867 326.25889603 -78.62787109 326.5529483 -77.98339844 326.85591125 C-74.67712437 328.37605459 -71.60340984 329.45984976 -68 330 C-67.42894531 329.2471875 -66.85789062 328.494375 -66.26953125 327.71875 C-53.42537071 310.86264168 -39.81352543 294.65807816 -25.91503906 278.66699219 C-22.17138169 274.35900902 -18.45507474 270.02867982 -14.75 265.6875 C-11.32563831 261.67648582 -7.8627309 257.71344695 -4.3125 253.8125 C-1.28287132 250.47772886 1.60608092 247.06712361 4.4375 243.5625 C8.29941675 238.78715598 12.37674224 234.26332315 16.53515625 229.74609375 C18.92707297 227.08124834 21.19254884 224.35168175 23.4375 221.5625 C27.60425635 216.38562089 32.0530448 211.55077031 36.6171875 206.7265625 C38.78677735 204.24398264 40.35367767 201.83867142 42 199 C28.76870937 188.85753341 15.45093563 178.84901144 2 169 C-8.80090443 161.09138797 -19.52646636 153.09947505 -30.15917969 144.96582031 C-39.02277637 138.19624425 -48.00162777 131.58876628 -57 125 C-67.80253607 117.09019325 -78.53121949 109.09892917 -89.16357422 100.96142578 C-94.89862812 96.57952746 -100.67826599 92.26589951 -106.5 88 C-109.66901936 85.66984859 -112.83515854 83.33582214 -116 81 C-116.92538574 80.31808594 -117.85077148 79.63617188 -118.80419922 78.93359375 C-121.6899984 76.79962247 -124.56479579 74.65155639 -127.4375 72.5 C-128.33210938 71.84128906 -129.22671875 71.18257813 -130.1484375 70.50390625 C-135.65415873 66.35552769 -139.81175753 62.90422525 -141.875 56.125 C-142.17747224 48.56319401 -140.08014488 44.75562987 -135.21142578 39.36816406 C-131.26082662 35.13755997 -127.26284379 30.96165784 -123.19458008 26.84448242 C-122.18980226 25.82310209 -121.190426 24.79637977 -120.1965332 23.7644043 C-111.07428107 14.29689661 -102.55535745 8.09195232 -89.0625 7.4375 C-78.16022677 7.28716738 -68.84250386 11.76794429 -59 16 C-55.96510837 17.28503094 -52.92760343 18.56304495 -49.88525391 19.83032227 C-47.95352256 20.63779685 -46.02712109 21.45817012 -44.10693359 22.29272461 C-43.23504395 22.66147705 -42.3631543 23.03022949 -41.46484375 23.41015625 C-40.697771 23.74152588 -39.93069824 24.07289551 -39.14038086 24.41430664 C-36.50429644 25.13564421 -35.50262677 25.11739803 -33 24 C-31.10605754 22.34877709 -29.38406941 20.70975373 -27.6484375 18.90625 C-27.1483316 18.39952759 -26.64822571 17.89280518 -26.13296509 17.37072754 C-24.53970995 15.75410486 -22.95697556 14.1276557 -21.375 12.5 C-19.78418756 10.87412436 -18.19125458 9.25040757 -16.59561157 7.62927246 C-15.60409831 6.62078267 -14.61568805 5.60923085 -13.63070679 4.59436035 C-9.50666702 0.38037091 -5.98785631 -1.54428906 0 0 Z " fill="#61AFF5" transform="translate(187,2)"/>
<path d="M0 0 C6.89380537 7.09077124 9.35310645 14.46852208 9.28344727 24.20239258 C7.89838805 68.19652527 -10.51763828 108.75097021 -40.8125 140.25 C-42.10220703 141.60158203 -42.10220703 141.60158203 -43.41796875 142.98046875 C-48.33581508 148.02341133 -53.50578436 152.53185717 -58.98046875 156.95703125 C-60.38232422 158.09205078 -60.38232422 158.09205078 -61.8125 159.25 C-62.33150879 159.66813965 -62.85051758 160.0862793 -63.38525391 160.51708984 C-64.96279643 161.80343811 -66.51407099 163.11633357 -68.0625 164.4375 C-68.99578125 165.21480469 -69.9290625 165.99210938 -70.890625 166.79296875 C-73.11632936 169.07717446 -73.11632936 169.07717446 -72.64428711 171.88037109 C-71.62645185 176.00369431 -70.10963803 179.73072683 -68.42578125 183.62109375 C-67.91654366 184.82017113 -67.91654366 184.82017113 -67.39701843 186.04347229 C-66.31247066 188.59414414 -65.21914685 191.140933 -64.125 193.6875 C-62.70186952 197.01844332 -61.28227754 200.35088748 -59.86328125 203.68359375 C-59.34630173 204.89527725 -59.34630173 204.89527725 -58.81887817 206.13143921 C-55.70141081 213.45936271 -52.72775919 220.8394237 -49.8125 228.25 C-49.31669434 227.82001709 -48.82088867 227.39003418 -48.31005859 226.94702148 C-47.08070957 225.88512361 -45.84382237 224.83192104 -44.6015625 223.78515625 C-42.75493306 222.24003237 -42.75493306 222.24003237 -40.9375 220.375 C-37.18825162 218.3901038 -33.90901709 218.14906103 -29.8125 219.25 C-23.19163566 223.73119476 -15.44386264 230.98727472 -11.8125 238.25 C-11.28460903 241.54931856 -11.08399749 244.06153058 -12.8828125 246.99609375 C-14.76378196 249.19370882 -16.75649387 251.21335971 -18.8125 253.25 C-20.0072099 254.45633891 -21.20115625 255.66343427 -22.39453125 256.87109375 C-25.84664519 260.35177752 -29.32437948 263.80542051 -32.8125 267.25 C-30.39976295 274.93957353 -27.35922029 282.28268947 -24.1875 289.6875 C-23.43339844 291.46157227 -23.43339844 291.46157227 -22.6640625 293.27148438 C-20.34935484 298.81150116 -20.34935484 298.81150116 -17.8125 304.25 C-16.90886719 303.33476562 -16.00523437 302.41953125 -15.07421875 301.4765625 C-13.88294577 300.27590942 -12.69153217 299.07539585 -11.5 297.875 C-10.90509766 297.27171875 -10.31019531 296.6684375 -9.69726562 296.046875 C-8.83198242 295.17675781 -8.83198242 295.17675781 -7.94921875 294.2890625 C-7.42030029 293.75490723 -6.89138184 293.22075195 -6.34643555 292.67041016 C-2.67101789 289.26700733 -0.03645624 288.62516834 4.79296875 288.75 C9.37636313 289.70705462 12.04494914 292.97029796 15.1875 296.25 C16.00089844 297.04148437 16.81429688 297.83296875 17.65234375 298.6484375 C25.31912744 306.13354385 25.31912744 306.13354385 25.8125 311.25 C25.64925785 318.12793594 20.87468269 321.7656086 16.1875 326.25 C13.92630768 328.41599524 11.66948128 330.58565308 9.42553711 332.76953125 C7.86208921 334.28662007 6.2835441 335.78831794 4.68969727 337.2734375 C3.96451904 337.97339844 3.23934082 338.67335938 2.4921875 339.39453125 C1.5019458 340.32809448 1.5019458 340.32809448 0.49169922 341.28051758 C-1.04365801 343.1763928 -1.04365801 343.1763928 -0.69848633 345.54711914 C0.39648895 348.88756315 1.68013539 352.12089213 3.05859375 355.3515625 C3.63903651 356.74333757 4.21910237 358.13526987 4.79882812 359.52734375 C5.70714347 361.69450947 6.61869148 363.86014788 7.53735352 366.02294922 C13.22378038 379.44568674 17.6911134 391.81720584 12.625 406.25 C8.04806575 416.51079873 -0.6389726 424.39313856 -8.5 432.1875 C-9.42361328 433.11884766 -10.34722656 434.05019531 -11.29882812 435.00976562 C-12.19408203 435.90244141 -13.08933594 436.79511719 -14.01171875 437.71484375 C-14.81440186 438.515271 -15.61708496 439.31569824 -16.4440918 440.14038086 C-21.83314953 444.94059196 -26.6567362 446.54632764 -33.8125 446.25 C-41.8283612 444.54291845 -46.22230508 437.46065518 -50.8125 431.25 C-51.30991699 430.5801709 -51.80733398 429.9103418 -52.31982422 429.22021484 C-54.60846934 426.13244825 -56.88938298 423.03924853 -59.15771484 419.93652344 C-63.71315296 413.70788226 -68.36744294 407.56139119 -73.0625 401.4375 C-77.80842891 395.24141058 -82.46708704 389.00935032 -86.95507812 382.62451172 C-91.35511459 376.40683251 -96.01511849 370.38827295 -100.64624023 364.34204102 C-105.70369446 357.73008757 -110.67028637 351.05777108 -115.59277344 344.3449707 C-119.79522029 338.61809519 -124.0425905 332.92672653 -128.3125 327.25 C-133.16459634 320.79927217 -137.97652657 314.32159697 -142.75 307.8125 C-148.39940372 300.11540818 -154.15774351 292.50620761 -159.95678711 284.92138672 C-165.95993893 277.06901355 -171.89815704 269.16939483 -177.8125 261.25 C-181.49206291 262.81232021 -183.97765793 265.08584082 -186.875 267.8125 C-190.58728591 271.26462571 -194.36066138 274.56925184 -198.3125 277.75 C-203.06989668 281.58835414 -207.57033918 285.64622359 -212.06640625 289.78515625 C-214.73125166 292.17707297 -217.46081825 294.44254884 -220.25 296.6875 C-224.24473986 299.90943101 -228.05804349 303.25655495 -231.8125 306.75 C-236.42254336 311.03955113 -241.19032956 315.05410672 -246.09765625 319.00390625 C-248.91923495 321.3383059 -251.61840712 323.76990598 -254.3125 326.25 C-258.78584111 330.36700099 -263.40957378 334.22738931 -268.140625 338.04296875 C-270.7110905 340.16623338 -273.17169363 342.36811849 -275.625 344.625 C-286.3253665 354.34646862 -298.11687178 362.78131682 -309.8125 371.25 C-304.52576624 383.63347106 -299.08057057 395.92837699 -293.375 408.125 C-289.00152871 417.47708105 -284.71766927 426.86122955 -280.5625 436.3125 C-280.09658447 437.37130371 -279.63066895 438.43010742 -279.15063477 439.52099609 C-276.54315591 445.48137033 -274.62548074 450.22594395 -274.4375 456.8125 C-274.38851562 457.96878906 -274.33953125 459.12507813 -274.2890625 460.31640625 C-275.54537213 469.75747938 -281.089629 476.37578875 -287.6875 482.875 C-288.71037109 483.95201172 -288.71037109 483.95201172 -289.75390625 485.05078125 C-293.00885284 488.30572784 -294.92735504 490.0647371 -299.5078125 491.0234375 C-303.60516077 490.06448365 -305.3228821 488.45289938 -307.8125 485.25 C-308.36019043 484.56518555 -308.90788086 483.88037109 -309.47216797 483.17480469 C-311.43006268 480.68123498 -313.34333054 478.15793598 -315.25 475.625 C-315.95302246 474.6971167 -316.65604492 473.7692334 -317.38037109 472.81323242 C-322.53704187 465.99006951 -327.61063342 459.10791448 -332.66186523 452.20654297 C-337.17285794 446.06432309 -341.8264363 440.04476289 -346.53881836 434.05615234 C-349.66592958 430.06576609 -352.72042011 426.03621525 -355.69921875 421.93359375 C-356.65344727 420.6197168 -356.65344727 420.6197168 -357.62695312 419.27929688 C-358.85240469 417.58359904 -360.07143384 415.88323661 -361.28320312 414.17773438 C-361.83298828 413.41654297 -362.38277344 412.65535156 -362.94921875 411.87109375 C-363.43092529 411.1948999 -363.91263184 410.51870605 -364.40893555 409.82202148 C-365.83030417 407.96792419 -365.83030417 407.96792419 -368.8125 407.25 C-371.39689267 408.29190605 -373.82702112 409.38462768 -376.3125 410.625 C-383.40584436 414.08384982 -389.38700949 416.89382994 -397.30078125 414.49609375 C-401.83486024 412.65209033 -401.83486024 412.65209033 -403.8125 411.25 C-404.56640625 409.109375 -404.56640625 409.109375 -404.8125 407.25 C-404.18988281 406.73566406 -404.18988281 406.73566406 -403.5546875 406.2109375 C-398.73359729 402.11603661 -394.25791311 397.74269217 -389.8125 393.25 C-385.66745042 389.06151264 -381.50333598 385.02329246 -377 381.21875 C-373.81429249 378.35161324 -370.82665242 375.29568121 -367.8125 372.25 C-363.66741669 368.06155808 -359.50333641 364.02329283 -355 360.21875 C-351.81429232 357.35161308 -348.82665455 354.29567924 -345.8125 351.25 C-338.53145711 343.89288509 -338.53145711 343.89288509 -334.875 340.8125 C-330.78628849 337.35961404 -327.07515302 333.54922802 -323.3125 329.75 C-318.98921345 325.3846888 -314.66573169 321.14386039 -309.96484375 317.18359375 C-306.13291767 313.74111932 -302.56748084 310.02333598 -298.94506836 306.36303711 C-295.41771622 302.81297365 -291.82368184 299.4491019 -288 296.21875 C-284.81429232 293.35161308 -281.82665455 290.29567924 -278.8125 287.25 C-271.53145711 279.89288509 -271.53145711 279.89288509 -267.875 276.8125 C-263.78628849 273.35961404 -260.07515302 269.54922802 -256.3125 265.75 C-251.98921345 261.3846888 -247.66573169 257.14386039 -242.96484375 253.18359375 C-239.13291767 249.74111932 -235.56748084 246.02333598 -231.94506836 242.36303711 C-228.41771622 238.81297365 -224.82368184 235.4491019 -221 232.21875 C-217.81429232 229.35161308 -214.82665455 226.29567924 -211.8125 223.25 C-204.53145711 215.89288509 -204.53145711 215.89288509 -200.875 212.8125 C-196.78628849 209.35961404 -193.07515302 205.54922802 -189.3125 201.75 C-184.98921345 197.3846888 -180.66573169 193.14386039 -175.96484375 189.18359375 C-172.13291767 185.74111932 -168.56748084 182.02333598 -164.94506836 178.36303711 C-161.41771622 174.81297365 -157.82368184 171.4491019 -154 168.21875 C-150.81429232 165.35161308 -147.82665455 162.29567924 -144.8125 159.25 C-137.53145711 151.89288509 -137.53145711 151.89288509 -133.875 148.8125 C-129.78628849 145.35961404 -126.07515302 141.54922802 -122.3125 137.75 C-117.98921345 133.3846888 -113.66573169 129.14386039 -108.96484375 125.18359375 C-105.13675912 121.74457036 -101.5747248 118.03076477 -97.95605469 114.37402344 C-94.8875519 111.2856705 -91.81024165 108.27011159 -88.5 105.4375 C-76.09446412 94.81920234 -66.1720933 82.23020723 -57.8125 68.25 C-54.8125 69.25 -54.8125 69.25 -53.53125 71.515625 C-50.82253499 78.14850407 -48.86345546 84.59664509 -47.48828125 91.6328125 C-47.01319926 94.38787966 -47.01319926 94.38787966 -44.8125 96.25 C-39.85400175 96.81002102 -39.85400175 96.81002102 -35.5859375 94.5703125 C-32.76490379 90.8793565 -33.66281088 87.96826194 -34.20703125 83.5390625 C-36.00532861 73.77024718 -39.61041631 63.74302797 -46.55859375 56.40625 C-48.48002373 53.10210872 -47.65931555 50.90285433 -46.8125 47.25 C-45.95002523 44.76902036 -45.0497519 42.3655727 -44.0625 39.9375 C-39.03837096 26.9904717 -35.54428432 14.14638597 -34.171875 0.3125 C-33.8125 -2.75 -33.8125 -2.75 -32.8125 -4.75 C-21.10113113 -7.41167474 -10.21390914 -6.35532124 0 0 Z " fill="#399AEA" transform="translate(486.8125,19.75)"/>
<path d="M0 0 C2.77608708 6.65240601 5.55102627 13.30529 8.32519531 19.95849609 C9.26764383 22.21837009 10.21034806 24.47813746 11.15332031 26.73779297 C12.51435695 29.99938922 13.87445138 33.26137704 15.234375 36.5234375 C15.65120544 37.52176605 16.06803589 38.5200946 16.49749756 39.54867554 C19.0516225 45.67838253 21.55212198 51.82708561 24 58 C24.49580566 57.57001709 24.99161133 57.14003418 25.50244141 56.69702148 C26.73179043 55.63512361 27.96867763 54.58192104 29.2109375 53.53515625 C31.05756694 51.99003237 31.05756694 51.99003237 32.875 50.125 C36.62424838 48.1401038 39.90348291 47.89906103 44 49 C50.62086434 53.48119476 58.36863736 60.73727472 62 68 C62.52789097 71.29931856 62.72850251 73.81153058 60.9296875 76.74609375 C59.04871804 78.94370882 57.05600613 80.96335971 55 83 C53.8052901 84.20633891 52.61134375 85.41343427 51.41796875 86.62109375 C47.96585481 90.10177752 44.48812052 93.55542051 41 97 C43.41273705 104.68957353 46.45327971 112.03268947 49.625 119.4375 C50.12773437 120.62021484 50.63046875 121.80292969 51.1484375 123.02148438 C53.46314516 128.56150116 53.46314516 128.56150116 56 134 C56.90363281 133.08476562 57.80726563 132.16953125 58.73828125 131.2265625 C59.92955423 130.02590942 61.12096783 128.82539585 62.3125 127.625 C63.20485352 126.72007812 63.20485352 126.72007812 64.11523438 125.796875 C64.69208984 125.21679688 65.26894531 124.63671875 65.86328125 124.0390625 C66.39219971 123.50490723 66.92111816 122.97075195 67.46606445 122.42041016 C71.14148211 119.01700733 73.77604376 118.37516834 78.60546875 118.5 C83.18886313 119.45705462 85.85744914 122.72029796 89 126 C89.81339844 126.79148437 90.62679687 127.58296875 91.46484375 128.3984375 C99.13162744 135.88354385 99.13162744 135.88354385 99.625 141 C99.46175785 147.87793594 94.68718269 151.5156086 90 156 C87.73880768 158.16599524 85.48198128 160.33565308 83.23803711 162.51953125 C81.67458921 164.03662007 80.0960441 165.53831794 78.50219727 167.0234375 C77.77701904 167.72339844 77.05184082 168.42335938 76.3046875 169.14453125 C75.3144458 170.07809448 75.3144458 170.07809448 74.30419922 171.03051758 C72.76884199 172.9263928 72.76884199 172.9263928 73.11401367 175.29711914 C74.20898895 178.63756315 75.49263539 181.87089213 76.87109375 185.1015625 C77.45153651 186.49333757 78.03160237 187.88526987 78.61132812 189.27734375 C79.51964347 191.44450947 80.43119148 193.61014788 81.34985352 195.77294922 C87.03628038 209.19568674 91.5036134 221.56720584 86.4375 236 C81.86056575 246.26079873 73.1735274 254.14313856 65.3125 261.9375 C64.38888672 262.86884766 63.46527344 263.80019531 62.51367188 264.75976562 C61.61841797 265.65244141 60.72316406 266.54511719 59.80078125 267.46484375 C58.59675659 268.66548462 58.59675659 268.66548462 57.3684082 269.89038086 C51.97935047 274.69059196 47.1557638 276.29632764 40 276 C31.9841388 274.29291845 27.59019492 267.21065518 23 261 C22.50258301 260.3301709 22.00516602 259.6603418 21.49267578 258.97021484 C19.20403066 255.88244825 16.92311702 252.78924853 14.65478516 249.68652344 C10.09934704 243.45788226 5.44505706 237.31139119 0.75 231.1875 C-3.99592891 224.99141058 -8.65458704 218.75935032 -13.14257812 212.37451172 C-17.54261459 206.15683251 -22.20261849 200.13827295 -26.83374023 194.09204102 C-31.89119446 187.48008757 -36.85778637 180.80777108 -41.78027344 174.0949707 C-45.98272029 168.36809519 -50.2300905 162.67672653 -54.5 157 C-59.35209634 150.54927217 -64.16402657 144.07159697 -68.9375 137.5625 C-73.93106315 130.75896533 -79.00337615 124.02011233 -84.125 117.3125 C-84.79063965 116.43803223 -85.4562793 115.56356445 -86.14208984 114.66259766 C-89.30778991 110.50727595 -92.48987593 106.36733799 -95.71484375 102.2578125 C-96.83074482 100.81772047 -97.94663113 99.37761699 -99.0625 97.9375 C-99.58150879 97.28885986 -100.10051758 96.64021973 -100.63525391 95.97192383 C-104.05217997 91.53063504 -104.05217997 91.53063504 -103.80102539 88.9765625 C-102.38570929 85.48421287 -99.21554385 83.40940415 -96.375 81.0625 C-94.9971933 79.89737487 -93.61959482 78.73200349 -92.2421875 77.56640625 C-91.53545898 76.97359863 -90.82873047 76.38079102 -90.10058594 75.77001953 C-86.87019754 73.04799305 -83.68630088 70.27335561 -80.5 67.5 C-79.25025285 66.41637499 -78.00025196 65.33304254 -76.75 64.25 C-76.13125 63.71375 -75.5125 63.1775 -74.875 62.625 C-63 52.33333333 -51.125 42.04166667 -39.25 31.75 C-38.63092773 31.21342773 -38.01185547 30.67685547 -37.37402344 30.12402344 C-36.12745057 29.0437469 -34.88070651 27.96366786 -33.63378906 26.88378906 C-30.45490146 24.13030409 -27.27931595 21.37315735 -24.109375 18.609375 C-2.74823105 0 -2.74823105 0 0 0 Z " fill="#CBDEEC" transform="translate(413,190)"/>
<path d="M0 0 C3.72268672 2.61923824 6.81940469 5.75734429 10 9 C10.69996094 9.65355469 11.39992187 10.30710937 12.12109375 10.98046875 C18.09970268 16.61105055 18.09970268 16.61105055 19 21 C19.141362 27.36128997 15.09774701 30.66878606 11 35 C9.68137164 36.49461551 8.36858509 37.99441108 7.0625 39.5 C6.04202992 40.66698441 5.02125849 41.83370549 4 43 C5.21558594 43.38800781 6.43117187 43.77601562 7.68359375 44.17578125 C13.91321467 46.25232156 19.97712773 48.72596165 26.0625 51.1875 C27.21427734 51.65091797 28.36605469 52.11433594 29.55273438 52.59179688 C32.36945374 53.7254972 35.18517147 54.86161501 38 56 C38.65597168 55.3387915 39.31194336 54.67758301 39.98779297 53.99633789 C42.41971036 51.54739147 44.85385365 49.10070247 47.28955078 46.65551758 C48.3438403 45.59619526 49.39723109 44.53597771 50.44970703 43.47485352 C51.96151857 41.95093039 53.47651902 40.43024216 54.9921875 38.91015625 C55.90339355 37.99371338 56.81459961 37.07727051 57.75341797 36.13305664 C60.87416004 33.17001345 63.28202299 32.35487317 67.65234375 32.39453125 C72.82472006 33.72850517 76.36838089 38.29752003 80 42 C80.69996094 42.65355469 81.39992188 43.30710938 82.12109375 43.98046875 C88.09970268 49.61105055 88.09970268 49.61105055 89 54 C89.12191185 59.48603346 86.42613614 62.24682039 82.88671875 66.0703125 C80.93932304 68.06205884 78.97108534 70.03172721 77 72 C87.48131667 76.94725501 98.22327197 81.27652557 108.9375 85.6875 C111.74736888 86.84492991 114.55698672 88.00295189 117.36585999 89.16279602 C119.1025976 89.87989242 120.83990766 90.59560444 122.5778656 91.30973816 C123.3629097 91.63380142 124.1479538 91.95786469 124.95678711 92.29174805 C125.64308701 92.57422897 126.3293869 92.8567099 127.03648376 93.14775085 C129.06437318 94.02794069 131.03193823 94.99391004 133 96 C129.11470716 101.45464641 124.8684491 106.42731486 120.3515625 111.3671875 C118.00298292 113.99666032 115.77521304 116.69311033 113.5625 119.4375 C109.70058325 124.21284402 105.62325776 128.73667685 101.46484375 133.25390625 C99.07292703 135.91875166 96.80745116 138.64831825 94.5625 141.4375 C90.90493736 145.97236161 87.05382973 150.25536183 83.08837891 154.51708984 C79.28601193 158.62779276 75.75729408 162.92275584 72.24609375 167.28515625 C69.9116941 170.10673495 67.48009402 172.80590712 65 175.5 C60.83785755 180.02406788 56.9129148 184.69129376 53.05078125 189.47265625 C50.42873496 192.70401615 47.72523793 195.8554947 45 199 C41.81099253 198.38888772 39.78328416 197.33982214 37.19140625 195.40234375 C36.08671997 194.5829834 36.08671997 194.5829834 34.9597168 193.74707031 C34.16863525 193.14991211 33.37755371 192.55275391 32.5625 191.9375 C31.73210205 191.31842773 30.9017041 190.69935547 30.04614258 190.06152344 C22.81810295 184.65786071 15.65373955 179.16987497 8.48852539 173.68334961 C3.71544075 170.03704044 -1.08611979 166.45403415 -6 163 C-12.77254826 158.23948245 -19.32809998 153.20631362 -25.89916992 148.17285156 C-32.60692066 143.04187112 -39.37679952 138.00366819 -46.1862793 133.00878906 C-51.80438984 128.88676425 -57.38671247 124.72012548 -62.95361328 120.52929688 C-68.00472446 116.73252205 -73.09243385 112.98749918 -78.1875 109.25 C-85.90759214 103.58272192 -93.53505074 97.80180608 -101.13867188 91.97949219 C-107.10641979 87.41839607 -113.12796719 82.93824709 -119.1875 78.5 C-129.46907491 70.94552449 -129.46907491 70.94552449 -134 67.4375 C-134.721875 66.87933594 -135.44375 66.32117188 -136.1875 65.74609375 C-139.98713562 62.08566892 -141.69216743 58.23315364 -142 53 C-140.55271726 41.78355873 -130.81150434 34.55298303 -123.19458008 26.84448242 C-122.18980226 25.82310209 -121.190426 24.79637977 -120.1965332 23.7644043 C-111.07428107 14.29689661 -102.55535745 8.09195232 -89.0625 7.4375 C-78.16022677 7.28716738 -68.84250386 11.76794429 -59 16 C-55.96510837 17.28503094 -52.92760343 18.56304495 -49.88525391 19.83032227 C-47.95352256 20.63779685 -46.02712109 21.45817012 -44.10693359 22.29272461 C-43.23504395 22.66147705 -42.3631543 23.03022949 -41.46484375 23.41015625 C-40.697771 23.74152588 -39.93069824 24.07289551 -39.14038086 24.41430664 C-36.50429644 25.13564421 -35.50262677 25.11739803 -33 24 C-31.10605754 22.34877709 -29.38406941 20.70975373 -27.6484375 18.90625 C-27.1483316 18.39952759 -26.64822571 17.89280518 -26.13296509 17.37072754 C-24.53970995 15.75410486 -22.95697556 14.1276557 -21.375 12.5 C-19.78418756 10.87412436 -18.19125458 9.25040757 -16.59561157 7.62927246 C-15.60409831 6.62078267 -14.61568805 5.60923085 -13.63070679 4.59436035 C-9.50666702 0.38037091 -5.98785631 -1.54428906 0 0 Z " fill="#C8DCEB" transform="translate(187,2)"/>
<path d="M0 0 C0.66 0.33 1.32 0.66 2 1 C1.01 2.32 0.02 3.64 -1 5 C6.31902652 15.01341246 13.70623827 24.96699287 21.25 34.8125 C25.99573 41.00875026 30.65458094 47.240641 35.14257812 53.62548828 C39.54261459 59.84316749 44.20261849 65.86172705 48.83374023 71.90795898 C53.89119446 78.51991243 58.85778637 85.19222892 63.78027344 91.9050293 C68.59680574 98.46874845 73.46944593 104.98882185 78.37719727 111.48461914 C81.5796487 115.73242821 84.7329446 120.00581365 87.8125 124.34375 C88.43189453 125.20871094 89.05128906 126.07367188 89.68945312 126.96484375 C90.86097321 128.60522462 92.02189999 130.25324513 93.16992188 131.91015625 C96.9852294 137.22846371 100.57911538 141.01326477 107.22265625 142.49609375 C115.39912058 142.2356968 120.02772697 138.43906252 125.53515625 132.93359375 C126.13629745 132.34006607 126.73743866 131.74653839 127.35679626 131.13502502 C128.62199967 129.88058608 129.88329539 128.62219497 131.14086914 127.36010742 C133.04645409 125.45355407 134.97229693 123.56929959 136.90039062 121.68554688 C148.12404806 110.76093935 148.12404806 110.76093935 152.625 96.14453125 C152.27877512 89.81974457 149.61025611 84.37009811 147 78.6875 C146.05451462 76.59082228 145.11668943 74.4906691 144.1875 72.38671875 C143.55908203 71.01326294 143.55908203 71.01326294 142.91796875 69.61206055 C141.93462539 66.81397795 141.61787899 64.93818028 142 62 C143.14575195 60.27075195 143.14575195 60.27075195 144.73828125 58.73828125 C145.31126953 58.17689453 145.88425781 57.61550781 146.47460938 57.03710938 C147.08111328 56.46798828 147.68761719 55.89886719 148.3125 55.3125 C148.90740234 54.73177734 149.50230469 54.15105469 150.11523438 53.55273438 C157.19374349 46.71149372 157.19374349 46.71149372 162.1875 46.4375 C168.19408432 46.59275905 171.02145604 49.8478194 175 54 C175.81339844 54.79148437 176.62679687 55.58296875 177.46484375 56.3984375 C185.13162744 63.88354385 185.13162744 63.88354385 185.625 69 C185.46175785 75.87793594 180.68718269 79.5156086 176 84 C173.73880768 86.16599524 171.48198128 88.33565308 169.23803711 90.51953125 C167.67458921 92.03662007 166.0960441 93.53831794 164.50219727 95.0234375 C163.77701904 95.72339844 163.05184082 96.42335938 162.3046875 97.14453125 C161.3144458 98.07809448 161.3144458 98.07809448 160.30419922 99.03051758 C158.76884199 100.9263928 158.76884199 100.9263928 159.11401367 103.29711914 C160.20898895 106.63756315 161.49263539 109.87089213 162.87109375 113.1015625 C163.45153651 114.49333757 164.03160237 115.88526987 164.61132812 117.27734375 C165.51964347 119.44450947 166.43119148 121.61014788 167.34985352 123.77294922 C173.03628038 137.19568674 177.5036134 149.56720584 172.4375 164 C167.86056575 174.26079873 159.1735274 182.14313856 151.3125 189.9375 C150.38888672 190.86884766 149.46527344 191.80019531 148.51367188 192.75976562 C147.61841797 193.65244141 146.72316406 194.54511719 145.80078125 195.46484375 C144.99809814 196.265271 144.19541504 197.06569824 143.3684082 197.89038086 C137.97935047 202.69059196 133.1557638 204.29632764 126 204 C117.9841388 202.29291845 113.59019492 195.21065518 109 189 C108.50258301 188.3301709 108.00516602 187.6603418 107.49267578 186.97021484 C105.20403066 183.88244825 102.92311702 180.78924853 100.65478516 177.68652344 C96.09934704 171.45788226 91.44505706 165.31139119 86.75 159.1875 C82.00407109 152.99141058 77.34541296 146.75935032 72.85742188 140.37451172 C68.45738541 134.15683251 63.79738151 128.13827295 59.16625977 122.09204102 C54.10880554 115.48008757 49.14221363 108.80777108 44.21972656 102.0949707 C40.01727971 96.36809519 35.7699095 90.67672653 31.5 85 C26.64790366 78.54927217 21.83597343 72.07159697 17.0625 65.5625 C12.06893685 58.75896533 6.99662385 52.02011233 1.875 45.3125 C1.20936035 44.43803223 0.5437207 43.56356445 -0.14208984 42.66259766 C-3.30778991 38.50727595 -6.48987593 34.36733799 -9.71484375 30.2578125 C-10.83074482 28.81772047 -11.94663113 27.37761699 -13.0625 25.9375 C-13.84101318 24.96453979 -13.84101318 24.96453979 -14.63525391 23.97192383 C-18.04592261 19.53876829 -18.04592261 19.53876829 -17.82958984 17.00073242 C-16.82639022 14.58130308 -15.69472269 13.51272684 -13.69140625 11.8359375 C-13.02689453 11.27132813 -12.36238281 10.70671875 -11.67773438 10.125 C-10.97970703 9.5475 -10.28167969 8.97 -9.5625 8.375 C-8.1884505 7.21656273 -6.81473767 6.05772597 -5.44140625 4.8984375 C-4.52403687 4.13539307 -4.52403687 4.13539307 -3.58813477 3.35693359 C-1.88777866 1.93995448 -1.88777866 1.93995448 0 0 Z " fill="#BAD5E5" transform="translate(327,262)"/>
<path d="M0 0 C1.75252642 0.80676082 3.50579411 1.61191313 5.25976562 2.41552734 C8.90424274 4.08632612 12.54570457 5.76346666 16.18554688 7.44433594 C24.32916965 11.19552662 32.51934963 14.84257662 40.7088623 18.4921875 C44.01218509 19.96477411 47.31382606 21.44110871 50.61541748 22.91757202 C53.65997107 24.2790693 56.70498353 25.63953833 59.75 27 C58.53673064 30.24545165 57.20837897 33.04532786 55.24609375 35.8984375 C54.7574585 36.61700928 54.26882324 37.33558105 53.76538086 38.07592773 C53.24468018 38.83462158 52.72397949 39.59331543 52.1875 40.375 C46.74574388 48.42587295 41.63452055 56.60177596 36.75 65 C36.27046875 65.82371094 35.7909375 66.64742188 35.296875 67.49609375 C32.10206683 72.99019568 28.92058153 78.4918847 25.75 84 C21.73704246 82.08834331 18.33662998 79.55825882 14.8125 76.875 C14.11938721 76.35147949 13.42627441 75.82795898 12.7121582 75.28857422 C8.6971375 72.25158836 4.69599113 69.19646576 0.6953125 66.140625 C-1.05725638 64.80203714 -2.80986112 63.46349621 -4.5625 62.125 C-5.45187256 61.44550293 -6.34124512 60.76600586 -7.25756836 60.06591797 C-13.04662735 55.65226442 -18.8780269 51.30257949 -24.75 47 C-31.77316942 41.84917924 -38.74865883 36.63894848 -45.6875 31.375 C-46.58210938 30.69953125 -47.47671875 30.0240625 -48.3984375 29.328125 C-49.65333984 28.37292969 -49.65333984 28.37292969 -50.93359375 27.3984375 C-52.04045532 26.55804932 -52.04045532 26.55804932 -53.16967773 25.70068359 C-59.06329782 20.88259211 -59.06329782 20.88259211 -59.9375 16.75 C-58.94932804 11.35997113 -56.05023792 8.77788358 -52.25 5 C-51.67507812 4.37738281 -51.10015625 3.75476563 -50.5078125 3.11328125 C-34.49446 -13.89629364 -18.9075102 -8.84608438 0 0 Z " fill="#CBDEEC" transform="translate(59.25,306)"/>
<path d="M0 0 C3.30233209 2.71229366 4.73816376 6.31599591 6.44921875 10.12109375 C6.94431694 11.20127022 6.94431694 11.20127022 7.44941711 12.30326843 C8.53559827 14.6783009 9.61175022 17.05772667 10.6875 19.4375 C11.43907157 21.08790168 12.19102976 22.73812733 12.94335938 24.38818359 C18.35280323 36.27460595 23.68984864 48.1939318 29 60.125 C29.52284073 61.2994014 29.52284073 61.2994014 30.0562439 62.49752808 C31.03942024 64.70844226 32.02026646 66.92037086 33 69.1328125 C33.2908699 69.78738937 33.58173981 70.44196625 33.88142395 71.11637878 C36.09924039 76.13905479 37.21785635 80.05642809 37.375 85.5625 C37.42398438 86.71878906 37.47296875 87.87507813 37.5234375 89.06640625 C36.26712787 98.50747938 30.722871 105.12578875 24.125 111.625 C23.44308594 112.34300781 22.76117188 113.06101562 22.05859375 113.80078125 C18.80364716 117.05572784 16.88514496 118.8147371 12.3046875 119.7734375 C8.20733923 118.81448365 6.4896179 117.20289938 4 114 C3.45230957 113.31518555 2.90461914 112.63037109 2.34033203 111.92480469 C0.38243732 109.43123498 -1.53083054 106.90793598 -3.4375 104.375 C-4.14052246 103.4471167 -4.84354492 102.5192334 -5.56787109 101.56323242 C-10.72454187 94.74006951 -15.79813342 87.85791448 -20.84936523 80.95654297 C-24.80935312 75.56457762 -28.87285222 70.26481805 -33 65 C-38.01454596 58.58374465 -42.98731566 52.1385875 -47.875 45.625 C-48.48859375 44.82191406 -49.1021875 44.01882813 -49.734375 43.19140625 C-50.29382813 42.43988281 -50.85328125 41.68835938 -51.4296875 40.9140625 C-51.92710449 40.2535791 -52.42452148 39.5930957 -52.93701172 38.91259766 C-54 37 -54 37 -54 33 C-53.04468384 32.48167603 -53.04468384 32.48167603 -52.07006836 31.95288086 C-36.2107857 23.309196 -20.99500405 14.07481922 -6 4 C-4.78552664 3.18954886 -3.57074878 2.37955353 -2.35546875 1.5703125 C-1.57816406 1.05210937 -0.80085938 0.53390625 0 0 Z " fill="#BAD5E5" transform="translate(175,391)"/>
<path d="M0 0 C3.23904169 2.68679954 4.71519479 6.18986072 6.42578125 9.93359375 C6.73702438 10.60793961 7.04826752 11.28228546 7.36894226 11.97706604 C8.0221716 13.40010633 8.67165664 14.82487061 9.31762695 16.2512207 C10.31081753 18.43380269 11.32762572 20.60432765 12.34570312 22.77539062 C12.9780441 24.16078303 13.60895314 25.54683012 14.23828125 26.93359375 C14.54542557 27.5816246 14.85256989 28.22965546 15.16902161 28.89732361 C17.17408178 33.41945751 17.17408178 33.41945751 16.31762695 36.27563477 C11.30887286 42.83054122 4.32359721 50.99812219 -4 53 C-11.37913278 53.93115244 -17.96316685 53.63660489 -24 49 C-26.61924376 46.53803184 -28.79060285 43.83051282 -31 41 C-31.89762937 39.89777888 -32.79612795 38.79626529 -33.6953125 37.6953125 C-34.63175595 36.52728075 -35.56665369 35.35800808 -36.5 34.1875 C-36.95810059 33.62426025 -37.41620117 33.06102051 -37.88818359 32.48071289 C-39.15625 30.85546875 -39.15625 30.85546875 -41 28 C-39.60850075 23.82550225 -36.75793446 22.99200928 -33.0625 21.0625 C-24.31811785 16.33453749 -16.13044617 10.90839193 -7.92480469 5.31005859 C-5.29586419 3.52075181 -2.64918527 1.7591593 0 0 Z " fill="#CBDEEC" transform="translate(175,391)"/>
<path d="M0 0 C2.86679674 1.35086333 5.36480222 2.88617524 7.9140625 4.765625 C8.66558594 5.31863281 9.41710938 5.87164062 10.19140625 6.44140625 C10.99449219 7.03824219 11.79757813 7.63507813 12.625 8.25 C13.46675781 8.87261719 14.30851562 9.49523437 15.17578125 10.13671875 C21.60463885 14.9127161 27.93169982 19.80992617 34.23364258 24.75146484 C40.28754606 29.48381099 46.45191379 34.05023976 52.65283203 38.58740234 C58.94486001 43.20000357 65.1712182 47.89446151 71.375 52.625 C72.26098877 53.30030762 73.14697754 53.97561523 74.05981445 54.67138672 C78.07464068 57.73906007 82.0747249 60.81778109 86 64 C84.53967505 69.31027254 82.01679014 73.46330032 79 78 C74.93462937 76.23597384 71.56402579 73.54104808 68.0625 70.875 C67.36938721 70.35147949 66.67627441 69.82795898 65.9621582 69.28857422 C61.9471375 66.25158836 57.94599113 63.19646576 53.9453125 60.140625 C52.19274362 58.80203714 50.44013888 57.46349621 48.6875 56.125 C47.35344116 55.10575439 47.35344116 55.10575439 45.99243164 54.06591797 C40.20337265 49.65226442 34.3719731 45.30257949 28.5 41 C21.47683058 35.84917924 14.50134117 30.63894848 7.5625 25.375 C6.66789063 24.69953125 5.77328125 24.0240625 4.8515625 23.328125 C4.01496094 22.69132812 3.17835937 22.05453125 2.31640625 21.3984375 C1.57849854 20.83817871 0.84059082 20.27791992 0.08032227 19.70068359 C-5.83715274 14.86309048 -5.83715274 14.86309048 -6.625 10.6875 C-5.79472184 5.78885885 -3.47366823 3.40130014 0 0 Z " fill="#BAD5E5" transform="translate(6,312)"/>
<path d="M0 0 C4.58339438 0.95705462 7.25198039 4.22029796 10.39453125 7.5 C11.61462891 8.68722656 11.61462891 8.68722656 12.859375 9.8984375 C20.52615869 17.38354385 20.52615869 17.38354385 21.01953125 22.5 C20.86335397 28.6787636 17.39190644 31.68600545 13.13037109 35.81103516 C10.98993545 37.89367 8.89055892 40.01480706 6.7890625 42.13671875 C2.34662052 46.61391542 -2.12212722 51.06379048 -6.60546875 55.5 C-9.40364903 52.14647969 -11.06930529 48.49677411 -12.7421875 44.50390625 C-13.02649124 43.83334702 -13.31079498 43.16278778 -13.60371399 42.47190857 C-14.20068037 41.05857403 -14.79471674 39.64399874 -15.38598633 38.22827148 C-16.29034917 36.06875527 -17.21002876 33.91620867 -18.13085938 31.76367188 C-18.71057971 30.38581359 -19.28938675 29.00757061 -19.8671875 27.62890625 C-20.27960945 26.66930748 -20.27960945 26.66930748 -20.70036316 25.69032288 C-22.14633556 22.18567396 -23.18046811 19.29368338 -22.60546875 15.5 C-21.4597168 13.77075195 -21.4597168 13.77075195 -19.8671875 12.23828125 C-19.29419922 11.67689453 -18.72121094 11.11550781 -18.13085938 10.53710938 C-17.52435547 9.96798828 -16.91785156 9.39886719 -16.29296875 8.8125 C-15.40061523 7.94141602 -15.40061523 7.94141602 -14.49023438 7.05273438 C-9.85557494 2.57342665 -6.67381785 -0.17250579 0 0 Z " fill="#3D6687" transform="translate(491.60546875,308.5)"/>
<path d="M0 0 C3.72268672 2.61923824 6.81940469 5.75734429 10 9 C10.69996094 9.65355469 11.39992187 10.30710937 12.12109375 10.98046875 C18.09970268 16.61105055 18.09970268 16.61105055 19 21 C19.1209938 26.44472118 16.51857437 29.20000709 12.9609375 32.9609375 C12.31382812 33.63382813 11.66671875 34.30671875 11 35 C10.41476563 35.69351563 9.82953125 36.38703125 9.2265625 37.1015625 C8.65679687 37.74867187 8.08703125 38.39578125 7.5 39.0625 C6.9946875 39.65160156 6.489375 40.24070313 5.96875 40.84765625 C2.85672685 42.66917774 0.47062579 41.68252922 -3 41 C-5.5497455 40.08464974 -7.98823396 39.13571086 -10.46484375 38.05859375 C-11.14301651 37.77146011 -11.82118927 37.48432648 -12.51991272 37.18849182 C-14.66250711 36.27924302 -16.79998089 35.35860753 -18.9375 34.4375 C-20.39876398 33.8149928 -21.86034981 33.1932405 -23.32226562 32.57226562 C-26.88528976 31.05687705 -30.44377147 29.53126419 -34 28 C-34 24.34368913 -32.87877245 23.52897555 -30.39212036 21.02658081 C-29.87342377 20.52023102 -29.35472717 20.01388123 -28.8203125 19.4921875 C-28.29235077 18.96609894 -27.76438904 18.44001038 -27.22042847 17.89797974 C-26.10242604 16.78670195 -24.98083059 15.67902909 -23.85595703 14.57470703 C-22.13184208 12.88171856 -20.41860032 11.17831826 -18.70703125 9.47265625 C-17.62041161 8.39520775 -16.53319183 7.31836409 -15.4453125 6.2421875 C-14.93066437 5.73178925 -14.41601624 5.22139099 -13.88577271 4.69552612 C-9.61509026 0.5102627 -6.09645092 -1.57229599 0 0 Z " fill="#3D6687" transform="translate(187,2)"/>
<path d="M0 0 C0.93328125 0.17789063 1.8665625 0.35578125 2.828125 0.5390625 C17.46905786 3.7202076 29.49440494 10.83991762 37.875 23.4375 C43.27025824 32.56500747 47.81152844 43.14997534 46.875 54 C46 57 46 57 44.375 58.9375 C40.98831357 60.45259656 38.66582737 60.52368962 35 60 C31.37292724 56.39285621 30.40711489 53.41923178 29.625 48.4375 C27.45774862 37.38104107 23.42789789 28.52141684 14 22 C13.30261719 21.4946875 12.60523438 20.989375 11.88671875 20.46875 C6.95203913 17.95800638 1.51928729 17.12107278 -3.87109375 15.98242188 C-4.74121094 15.78326172 -5.61132812 15.58410156 -6.5078125 15.37890625 C-7.29816895 15.2094751 -8.08852539 15.04004395 -8.90283203 14.86547852 C-11.6015983 13.75172689 -12.53519117 12.49806817 -14 10 C-14.5 6.5 -14.5 6.5 -14 3 C-9.95956598 -2.21346326 -5.81210761 -1.21525886 0 0 Z " fill="#FBFCFE" transform="translate(407,57)"/>
<path d="M0 0 C3.72268672 2.61923824 6.81940469 5.75734429 10 9 C10.69996094 9.65355469 11.39992188 10.30710937 12.12109375 10.98046875 C18.09970268 16.61105055 18.09970268 16.61105055 19 21 C19.12230704 26.50381683 16.41680182 29.27197681 12.85546875 33.09765625 C12.24316406 33.72542969 11.63085938 34.35320312 11 35 C10.48050781 35.53496094 9.96101563 36.06992188 9.42578125 36.62109375 C8.29812041 37.76167907 7.15145356 38.88343897 6 40 C-2.22664297 37.42635209 -10.11978478 34.13647525 -18.0625 30.8125 C-19.41849914 30.24775709 -20.77461807 29.68330172 -22.13085938 29.11914062 C-25.42195985 27.74940424 -28.71142484 26.37579019 -32 25 C-30.46610588 21.36273274 -28.28469205 19.04017867 -25.5 16.26953125 C-24.613125 15.38458984 -23.72625 14.49964844 -22.8125 13.58789062 C-21.884375 12.67201172 -20.95625 11.75613281 -20 10.8125 C-19.071875 9.88501953 -18.14375 8.95753906 -17.1875 8.00195312 C-7.25059804 -1.86995457 -7.25059804 -1.86995457 0 0 Z " fill="#3D6687" transform="translate(257,35)"/>
<path d="M0 0 C6.6229597 4.44885743 14.37640759 11.75281518 18 19 C18.52789097 22.29931856 18.72850251 24.81153058 16.9296875 27.74609375 C15.04950248 29.94279233 13.0518211 31.96110376 11 34 C9.82827654 35.2059144 8.65780796 36.41304877 7.48828125 37.62109375 C6.22281459 38.9154919 4.95587356 40.20845018 3.6875 41.5 C3.06472168 42.13623291 2.44194336 42.77246582 1.80029297 43.42797852 C1.21006348 44.01893311 0.61983398 44.6098877 0.01171875 45.21875 C-0.51977783 45.75435547 -1.05127441 46.28996094 -1.59887695 46.84179688 C-3 48 -3 48 -5 48 C-6.66133223 44.19860093 -8.31501373 40.39398651 -9.9621582 36.58642578 C-10.52166985 35.2958382 -11.08314091 34.00609802 -11.64672852 32.71728516 C-14.9024997 25.26808068 -17.93405135 17.87980639 -20 10 C-18.54474941 8.51780033 -17.085701 7.03932861 -15.625 5.5625 C-14.81289063 4.73878906 -14.00078125 3.91507813 -13.1640625 3.06640625 C-9.23707261 -0.6833729 -5.23872964 -1.22608566 0 0 Z " fill="#3D6687" transform="translate(457,239)"/>
<path d="M0 0 C10.08742359 9.67778202 15.4723652 22.4552354 16.22265625 36.41796875 C16 39 16 39 14 42.25 C10.25338978 44.43552263 8.26736452 44.77588446 4 44 C0.37563221 40.37563221 -0.6206156 37.36644535 -1.4375 32.375 C-2.33521861 27.35403891 -3.53722092 23.83565073 -6.1875 19.5 C-7.56051021 16.81419933 -8.34209847 15.11702587 -7.43847656 12.16650391 C-5.4335074 7.79845763 -2.80106282 3.89194326 0 0 Z " fill="#C9DEED" transform="translate(438,73)"/>
</svg>
